<?xml version="1.0" encoding="utf-8"?>
<!-- Generator: Adobe Illustrator 23.0.3, SVG Export Plug-In . SVG Version: 6.00 Build 0)  -->
<svg version="1.1" xmlns="http://www.w3.org/2000/svg" xmlns:xlink="http://www.w3.org/1999/xlink" x="0px" y="0px"
	 viewBox="0 0 1280 1024" style="enable-background:new 0 0 1280 1024;" xml:space="preserve">
<style type="text/css">
	.st0{fill:#FCEE21;stroke:#000000;stroke-miterlimit:10;}
	.st1{fill:#FBB03B;}
	.st2{fill:#FBB03B;stroke:#000000;stroke-miterlimit:10;}
	.st3{fill:#8C7031;}
	.st4{fill:none;stroke:#000000;stroke-miterlimit:10;}
	.st5{fill:#FFFFFF;stroke:#000000;stroke-miterlimit:10;}
	.st6{fill:#FFFFFF;}
	.st7{opacity:0.81;fill:url(#SVGID_1_);}
	.st8{fill:#333333;}
</style>
<g id="lleg">
	<path class="st0" d="M524.5,584.5c2-5,14-48,36-39s26,21,26,21s10,4,3,42s-53,151-54,157s28,50,37,71s11,62,10,70s2,21,2,21
		l-100,20c0,0-41-25-8-45s81,7,84,9s-56-133-50-144S524.5,584.5,524.5,584.5z"/>
	<path class="st1" d="M547.89,652.92c-0.32-2.68-1.63-4.97-2-7.36c-0.4-2.64-4.09-2.59-5.3-0.69c-1.29,2.03-3.31,3.35-4.52,5.67
		c-1.39,2.66-2.48,5.74-3.31,8.63c-1.72,5.98-2.69,12.33-3.74,18.46c-1.05,6.15-2.52,12.56-1.79,18.81
		c0.55,4.67,2.78,11.81,8.43,12.38c5.13,0.52,8.31-5.21,9.59-9.34c1.93-6.22,1.39-13,1.61-19.44c0.21-6.29,0.91-12.53,1.21-18.8
		C548.22,658.49,548.22,655.65,547.89,652.92z"/>
	<path class="st1" d="M566.65,828.79c-4.81-9.92-10.89-18.54-20.61-23.99c-1.65-0.92-3.15,0.88-2.43,2.43
		c4.13,8.93,9.44,17.5,12.74,26.79c2.97,8.34,3.44,19.62,9.21,26.56c1.54,1.85,4.78,1.2,5.86-0.76
		C576.56,850.57,570.8,837.35,566.65,828.79z"/>
	<path class="st1" d="M513.84,910.95c-3.32-6.48-10.12-7.39-16.84-8.23c-6.35-0.8-12.9-0.37-18.65,2.66
		c-8.27,4.35-15.73,15.78-8.48,24.25c1.18,1.38,3.98,1.1,4.75-0.61c2.46-5.51,6.11-10.59,12.37-12.02
		c4.27-0.97,8.59-0.26,12.77,0.78c4.9,1.22,7.88,1.79,12.47-0.68C514.45,915.91,514.92,913.05,513.84,910.95z"/>
	<path class="st1" d="M577.67,624.95c-1.07-2.81-4.2-3.79-6.53-1.72c-4.12,3.65-5.78,9.95-7.04,15.08c-1.08,4.41,4.4,7.85,7.73,4.5
		C576.15,638.45,580.06,631.22,577.67,624.95z"/>
</g>
<g id="larm">
	<path class="st0" d="M647.95,490.57l12.61-29.63c0,0-118.03-142.55-124.42-142.27s-25.11-48.45-25.11-48.45l-2.64,28.88
		c0,0-16.08-13.83-31.6-14.87c-15.52-1.04-12.61,19,14.29,30.01c26.9,11.01,54.55,32,65.65,46.2S647.95,490.57,647.95,490.57z"/>
</g>
<g id="corp">
	<path class="st2" d="M593.57,133.33c-4.51-4.18-9.03-8.37-13.54-12.55c-1.52-1.41-3.16-3.06-3.19-5.13
		c-0.02-1.4,0.71-2.7,1.42-3.91c6.95-11.81,14.32-23.37,22.08-34.67c11.97,24.17,21.36,49.62,27.98,75.77
		c-1.2-4.74-14.5,3.4-16.74,2.46C607.3,153.53,597.98,137.42,593.57,133.33z"/>
	<path class="st0" d="M571.5,450.5c-39.92,65.01-115.18,139.16-183.67,173.45c-10.84,5.43-8.9,21.5,2.91,24.21
		c37.52,8.61,81.02,10.53,113.76,0.34c43.19-13.45,84.6-45.09,123-69c35.25-21.95,54.56-47.56,80.14-80.28
		c28.36-36.29,42.8-82.9,41.39-128.94s-18.37-91.24-46.42-127.77c-29.99-39.06-43.27-72.46-77.61-96.93
		c-7.05-5.03-14.64,1.16-14.62,9.82c0.12,48.1-7.88,68.1-10.15,121.69c-2.63,61.84,1.28,67.41-20.72,91.41s-27,4-47,36s-16,34-7,44
		C535.69,459.82,571.5,450.5,571.5,450.5z"/>
	<path d="M380.69,634.03c0,0,8.84-18.19,21.58-17.61c12.73,0.58,0,34.14,0,34.14S379,652,376,643S373.38,644.05,380.69,634.03z"/>
	<path class="st1" d="M712.76,352.07c-1.08-18.83-3.71-37.54-8.63-55.76c-4.81-17.8-12.14-34.84-19.99-51.51
		c-3.87-8.21-8.11-16.24-12.71-24.07c-4.01-6.82-8.51-16.1-15.97-19.68c-1.56-0.75-3.4,0.15-3.45,1.98
		c-0.23,8.28,5.37,16.65,8.57,24.04c3.37,7.8,6.35,15.78,9.01,23.86c5.53,16.81,8.7,34.29,11.31,51.78
		c2.52,16.84,3.97,34.03,4.02,51.06c0.03,8.55-0.7,17.09-0.55,25.63c0.05,2.93,0.39,5.78,0.84,8.68c0.44,2.78,1.63,4.78,2.59,7.34
		c0.66,1.74,0.79,3.66,1.78,5.35c1.4,2.39,2.88,2.53,3.77,4.84c0.86,2.24,3.41,2.48,4.82,0.63c1.77-2.32,4.54-2.95,6.26-5.47
		c0.8-1.17,1.74-3.09,2.33-3.95c3.77-5.55,5.09-10.77,5.85-17.41C713.66,370.35,713.28,361.17,712.76,352.07z"/>
	<path class="st1" d="M699.1,427.37c-0.67-2.59-2.44-4.02-3.45-6.38c-0.35-0.8-1.44-0.72-1.98-0.26c-1.78,1.53-3.84,1.98-5.51,3.74
		c-1.81,1.91-2.63,3.94-3.38,6.41c-1.54,5.07-0.88,10.28-2.48,15.26c-1.57,4.9-4.42,9.34-6.47,14.06c-1.88,4.33-3.71,8.7-5.68,12.99
		c-3.7,8.05-8.39,15.45-13.83,22.43c-2.68,3.44-5.74,6.56-8.16,10.2c-2.22,3.33-5.15,7.06-5.19,11.17
		c-0.02,2.24,1.74,5.03,4.12,5.42c4.51,0.72,8.85-1.46,12.65-3.88c4.18-2.65,7.39-6.31,10.47-10.11
		c6.52-8.08,11.25-17.17,15.05-26.8c1.99-5.04,3.56-10.14,4.85-15.41c1.31-5.33,1.52-10.84,2.89-16.13
		c1.39-5.4,4.68-9.83,5.93-15.31C699.5,432.26,699.76,429.94,699.1,427.37z"/>
	<path class="st1" d="M591.78,566.2c-6.48-2.89-11.84,2.72-16.5,6.63c-4.87,4.09-9.94,7.86-15.29,11.31
		c-10.52,6.79-21.69,12.79-33.12,17.88c-11.06,4.93-22.58,9.07-34.01,13.08c-5.92,2.07-11.8,4.05-17.6,6.43
		c-5.68,2.33-13.16,4.5-16.77,9.71c-1.42,2.06-0.56,5.87,1.81,6.9c5.89,2.57,13.27,0.63,19.4-0.49c6.72-1.23,13.2-3.05,19.74-5.03
		c13.24-4,26.07-8.91,38.55-14.86c12.37-5.9,23.82-12.88,34.49-21.5c5.3-4.28,10.38-8.89,15.07-13.83c2.37-2.49,5.33-5.58,6.24-8.97
		C594.41,571.3,594.36,567.35,591.78,566.2z"/>
	<path class="st1" d="M623.21,291.68c-0.3-8.14-0.57-16.29-0.64-24.44c-0.07-8.14-0.06-16.28,0.03-24.43
		c0.08-7.06,1.39-16.35-2.17-22.75c-1-1.8-3.28-1.45-4.36,0c-4.41,5.96-4.07,15.67-4.71,22.75c-0.73,8.14-1.39,16.28-1.97,24.43
		c-0.58,8.15-1.19,16.29-1.69,24.44c-0.47,7.77-1.16,16.66,4.27,22.96c1.6,1.86,5.21,1.88,6.81,0
		C624.16,308.33,623.5,299.47,623.21,291.68z"/>
	<path class="st1" d="M498.79,555.88c-7.46,2.66-14.97,7.68-21.42,12.23c-6.92,4.88-13.75,9.9-20.73,14.69
		c-7.01,4.8-14.31,9.13-21.33,13.91c-3.39,2.3-6.91,4.42-10.29,6.73c-3.93,2.68-7.22,6.06-11.05,8.84c-1.72,1.25-0.76,4.14,1.5,3.56
		c4.49-1.15,9.04-1.63,13.4-3.27c3.7-1.39,7.3-3.12,10.89-4.76c8.27-3.79,15.96-8.59,23.55-13.58c7.34-4.83,14.4-9.88,21.03-15.65
		c6.15-5.36,13.01-12.5,16.53-19.98C501.48,557.26,500.43,555.29,498.79,555.88z"/>
	<path class="st3" d="M571.72,506.01c0.02-2.41-0.4-5.08-1.64-7.2c-1.78-3.04-5.71-6.05-9.42-5.62c-4.15,0.48-7.16,1.91-10.1,4.81
		c-1.02,1.01-1.88,2.17-2.69,3.37c-7.28,5.62-8.05,18.6,0.4,23.54c4.34,2.54,9.62,2.25,13.84-0.4c3.28-2.06,5.63-5.11,6.81-8.65
		C570.48,512.77,571.7,509.57,571.72,506.01z"/>
	<path class="st3" d="M542.41,529.52c-2.14-1.66-4.62-1.57-7-0.49c-1.65,0.74-3.06,1.43-4.35,2.75c-1.91,1.96-2.74,4.15-2.86,6.82
		c-0.22,4.74,4.48,7.26,8.57,6.53c2.11-0.38,3.94-1.69,5.28-3.33c1.4-1.71,2-3.58,2.63-5.65
		C545.4,533.72,544.35,531.02,542.41,529.52z"/>
	<path class="st3" d="M691.12,228.29c-7.56-4.25-17.04,2.78-14.7,11.3c1.87,6.82,5.79,18.28,13.91,19.46
		c5.01,0.73,9.4-0.54,12.23-4.98C708.6,244.61,699.19,232.83,691.12,228.29z"/>
	<path class="st3" d="M719.98,279.41c-2.15-6.91-7.98-12.89-15.12-14.54c-3.74-0.86-8.51,1.13-9.31,5.28
		c-1.34,7.03,0.61,15.02,6.16,19.89c3.54,3.11,9.01,4.44,13.25,1.71C718.94,289.18,721.45,284.16,719.98,279.41z"/>
	<path class="st3" d="M705.25,355.73c-2.13-4.26-7.54-6.34-11.98-5.74c-5.11,0.69-8.11,4.04-10,8.61c-0.54,1.32-1.34,3.25-0.79,4.49
		c-0.47,3.04-0.1,5.58,0.32,8.65c0.51,3.79,4.54,7.03,7.98,7.98c4.04,1.11,8.09-0.14,11.11-2.94
		C707.72,371.36,708.72,362.68,705.25,355.73z"/>
	<path class="st3" d="M662.79,532.61c-0.11-0.84-0.16-1.4-0.41-2.13c-1.16-3.43-3.34-5.51-6.73-6.73c-3.25-1.16-6.62-0.7-9.74,0.53
		c-2.51,0.99-4.17,1.58-6.08,3.58c-0.34,0.36-0.67,0.74-0.99,1.12c-1.51,1.78-2.24,2.73-3.06,4.68c-1.21,2.86-1.25,5.43-0.59,8.47
		c0.89,4.07,4.61,7.49,8.54,8.54c3.44,0.92,6.88,0.54,10-1.21c1.24-0.7,2.28-1.68,3.39-2.55c1.74-1.37,2.97-3.1,3.85-5.11
		c0.57-1.3,1.23-2.56,1.58-3.94C663.13,535.6,663.06,534.63,662.79,532.61z"/>
	<path class="st3" d="M637.63,554.71c-0.2-0.71-0.56-1.32-1.08-1.85c-0.59-0.91-1.37-1.63-2.35-2.16c-0.67-0.28-1.33-0.56-2-0.84
		c-1.48-0.4-2.97-0.4-4.45,0c-1.03,0.41-2.22,0.77-3.14,1.31c-0.96,0.56-1.77,1.35-2.59,2.1c-0.43,0.55-0.85,1.1-1.28,1.65
		c-0.6,0.94-0.92,1.95-0.97,3.04c-0.19,0.72-0.19,1.45,0,2.17c0.05,1.09,0.37,2.1,0.97,3.04c0.76,1.18,1.75,2.17,2.93,2.93
		c0.94,0.6,1.95,0.92,3.04,0.97c1.09,0.24,2.17,0.19,3.26-0.15c1.17-0.24,1.87-0.45,3.11-1.08c0.39-0.2,0.76-0.45,1.13-0.68
		c0.98-0.53,1.76-1.24,2.35-2.16c0.74-0.81,1.24-1.76,1.5-2.85c0.1-0.74,0.2-1.48,0.3-2.22
		C638.39,556.78,638.15,555.71,637.63,554.71z"/>
	<path class="st3" d="M666.76,512.87c-7.67,0-7.68,11.92,0,11.92C674.43,524.8,674.44,512.87,666.76,512.87z"/>
	<path class="st3" d="M635.11,511.72c-5.9,0-5.91,9.17,0,9.17C641.01,520.89,641.02,511.72,635.11,511.72z"/>
	<path class="st3" d="M419.92,636.69c-6.34,0-6.35,9.86,0,9.86C426.27,646.55,426.28,636.69,419.92,636.69z"/>
	<path class="st3" d="M624.96,147.42c-1.92-0.85-3.85-0.96-5.6,0.39c-1.52,1.17-1.99,2.75-1.89,4.52c-0.01-0.01-0.02,0.05-0.03,0.22
		c-0.01,0.18-0.02,0.38-0.02,0.56c-0.01,0.6,0.04,1.3,0.19,1.87c0.24,0.87,0.71,1.49,1.21,2.16c0,0.02,0.01,0.05,0.04,0.12
		c0.08,0.17,0.21,0.34,0.29,0.51c0.33,0.65,0.76,1.25,1.33,1.71c1.53,1.24,3.86,1.98,5.67,0.73c1.32-0.92,2.26-2,2.72-3.58
		c0.26-0.9,0.36-1.87,0.42-2.79C629.48,150.95,627.51,148.55,624.96,147.42z"/>
	<path class="st3" d="M627.52,166.72c-2.1,0-4.11,1.85-4.01,4.01c0.1,2.17,1.76,4.01,4.01,4.01c2.1,0,4.11-1.85,4.01-4.01
		C631.43,168.56,629.77,166.72,627.52,166.72z"/>
	<path class="st3" d="M631.32,157.97c-3.39,0-3.4,5.27,0,5.27C634.71,163.24,634.72,157.97,631.32,157.97z"/>
	<path class="st4" d="M590.08,435.25c2.92,7.57-1.82,17.14-9.61,19.4"/>
	<path class="st4" d="M573.25,419.59c4.23-0.18,8.32,3.14,9.02,7.31"/>
</g>
<g id="rleg">
	<path class="st0" d="M596.5,587.5c2-5,14-48,36-39s26,21,26,21s10,4,3,42s-53,151-54,157s28,50,37,71s11,62,10,70s2,21,2,21
		l-100,20c0,0-41-25-8-45s81,7,84,9s-56-133-50-144S596.5,587.5,596.5,587.5z"/>
	<path class="st1" d="M649.9,593.56c-0.8-7.82-2.67-15.52-6.95-22.21c-3.02-4.72-8.9-10.34-14.44-5.95
		c-0.79,0.62-1.02,2.27-0.4,3.09c1.43,1.87,3.14,3.36,4.31,5.43c1.54,2.72,2.51,5.65,3.34,8.66c1.69,6.11,2.03,12.38,1.5,18.69
		c-0.57,6.76-2.07,13.46-3.92,19.97c-1.74,6.13-4.3,12.69-2.73,19.11c0.8,3.26,4.57,3.62,6.84,1.8c6.39-5.12,8.45-15.3,10.26-22.85
		C649.73,610.85,650.79,602.24,649.9,593.56z"/>
	<path class="st1" d="M601.46,690.77c-1.03-1.26-2.84-0.61-3.63,0.47c-2.84,3.89-2.48,9.86-3.08,14.49
		c-0.64,4.98-2.02,10.06,0.02,14.8c0.85,1.97,3.69,1.92,5.03,0.65c3.94-3.75,4.2-10.28,4.43-15.45
		C604.44,700.64,604.82,694.88,601.46,690.77z"/>
	<path class="st1" d="M638.26,902.9c-1.37-11.25-5.08-21.11-9.09-31.65c-4.03-10.59-8.01-21.21-12.15-31.76
		c-4.02-10.25-7.98-20.53-12.07-30.75c-3.73-9.33-7.69-21.53-15.25-28.48c-0.89-0.82-2.1-0.19-2.23,0.92
		c-1.1,9.94,3.64,21.24,6.81,30.5c3.67,10.7,7.56,21.33,11.34,31.99c3.67,10.35,7.52,20.65,11.29,30.97
		c3.88,10.61,7.46,20.9,13.83,30.31C632.74,907.88,638.78,907.23,638.26,902.9z"/>
	<path class="st1" d="M606.38,914.84c-4.4-6.42-13.79-8.32-21-9.97c-7.45-1.7-15.43-2.91-23.08-2.28
		c-6.72,0.55-13.27,2.45-18.36,7.09c-4.93,4.5-8.13,11.11-4.48,17.28c1.47,2.48,5.18,1.9,6.01-0.79c1.62-5.26,4.37-9.23,9.71-11.05
		c4.46-1.52,9.13-1.81,13.8-1.57c5.76,0.3,11.48,1.35,17.05,2.85c5.47,1.48,11.28,4.87,17.02,4.24
		C605.69,920.35,608.2,917.5,606.38,914.84z"/>
	<path class="st1" d="M644.57,921.34c-3.79-2.42-8.29-0.12-12.12,1.32c-3.96,1.49-7.57,3.21-10.4,6.4
		c-1.03,1.16-0.29,2.82,1.22,2.93c4.14,0.32,8.07-0.63,12.12-1.45c4.02-0.81,7.97-0.67,10.49-4.26
		C647.02,924.64,646.11,922.32,644.57,921.34z"/>
	<path class="st3" d="M633.51,649.77c-7.55,0-7.56,11.74,0,11.74C641.06,661.51,641.07,649.77,633.51,649.77z"/>
	<path class="st3" d="M634.53,634.39c-7.63,0-7.64,11.85,0,11.85C642.16,646.25,642.17,634.39,634.53,634.39z"/>
	<path class="st3" d="M627.27,647.07c-0.11-0.15-0.22-0.3-0.34-0.45c-0.49-0.9-1.15-1.63-2-2.18c-0.48-0.48-1.06-0.81-1.71-1
		c-0.93-0.49-1.92-0.71-2.99-0.67c-0.69,0.09-1.38,0.18-2.06,0.28c-0.62,0.26-1.24,0.52-1.85,0.78c-0.9,0.49-1.63,1.15-2.18,2
		c-0.48,0.48-0.81,1.06-1,1.71c-0.49,0.93-0.71,1.92-0.67,2.99c0.09,0.69,0.18,1.38,0.28,2.06c0.26,0.62,0.52,1.24,0.78,1.85
		c0.49,0.9,1.15,1.63,2,2.18c0.48,0.48,1.06,0.81,1.71,1c0.93,0.49,1.92,0.71,2.99,0.67c0.69-0.09,1.38-0.18,2.06-0.28
		c0.62-0.26,1.24-0.52,1.85-0.78c1.17-0.69,2.1-1.62,2.79-2.79c0.11-0.15,0.23-0.3,0.34-0.45
		C628.57,652.14,628.57,648.93,627.27,647.07z"/>
	<path class="st3" d="M622.93,557.97c-1.31-1.2-2.92-1.96-4.74-1.96c-1.72,0-3.52,0.75-4.74,1.96c-1.16,1.16-2.04,3.07-1.96,4.74
		c0.08,1.73,0.65,3.53,1.96,4.74c1.31,1.2,2.92,1.96,4.74,1.96c1.72,0,3.52-0.75,4.74-1.96c1.16-1.16,2.04-3.07,1.96-4.74
		C624.81,560.97,624.24,559.17,622.93,557.97z"/>
	<path class="st3" d="M612.75,796.93c-2.28-2.02-4.74-2.27-6.76-1.49c-1.82-1.18-4.53-1.23-5.56,1.12
		c-3.43,7.85,0.8,16.46,6.21,22.34c2.58,2.81,8.17,2.32,9.88-1.27C619.84,810.68,618.67,802.17,612.75,796.93z"/>
	<path class="st3" d="M622.58,825.02c-0.03-0.66-0.23-1.28-0.59-1.86c-0.14-0.19-0.28-0.38-0.42-0.56
		c-0.45-0.77-1.06-1.38-1.83-1.83c-0.8-0.46-1.65-0.69-2.57-0.7c-1.35,0.06-2.63,0.52-3.6,1.49c-0.92,0.92-1.49,2.3-1.49,3.6
		c0,0.92,0.23,1.78,0.7,2.57c0.45,0.77,1.06,1.38,1.83,1.83c0.19,0.14,0.38,0.28,0.56,0.42l1.19,0.5c0.66,0.21,1.33,0.24,1.99,0.09
		c1.05-0.14,2.13-0.57,2.87-1.37c0.59-0.64,1.02-1.38,1.28-2.2C622.7,826.34,622.73,825.68,622.58,825.02z"/>
	<path class="st3" d="M632.59,913.89c-0.87-1.35-2.31-2.82-3.97-3.06c-2.86-0.41-5.93-0.94-8.7,0.1c-1.73,0.65-3.09,1.75-3.6,3.6
		c-0.51,1.84,0.07,3.64,1.33,5.02c0.97,1.07,1.97,1.83,3.29,2.39c1.37,0.58,2.74,1.23,4.15,1.72c3.29,1.13,7.41-1.29,8.18-4.64
		C633.65,917.31,633.57,915.4,632.59,913.89z"/>
	<path class="st3" d="M534.15,715.94c-1.28-2.09-3.25-3.21-5.31-3.5c-1.49-0.89-3.36-1.21-4.9-0.78c-9.76,2.76-8.9,16.83-5.38,23.93
		c2.09,4.2,8.63,4.9,11.72,1.51C535.18,731.74,538.25,722.66,534.15,715.94z"/>
	<path class="st3" d="M524.23,739.66c-8.85,0-8.86,13.75,0,13.75C533.08,753.41,533.1,739.66,524.23,739.66z"/>
	<path class="st3" d="M556.63,851.27c-1.85-3.63-4.34-8.58-8.65-9.49c-2.39-0.5-4.3,0.39-5.69,2.32c-2.63,3.64-0.92,9.19,0.15,13.15
		c1.31,4.86,2.85,9.69,7.24,12.54c3.81,2.47,9.17,0.02,10.3-4.19C561.33,860.54,558.9,855.72,556.63,851.27z"/>
	<path class="st3" d="M546.85,836.26c-0.49-1.79-2.32-3.31-4.23-3.22c-1.77,0.08-3.31,1.05-4.01,2.7c-0.84,1.99-0.1,4.36,1.79,5.48
		c0.1,0.06,0.2,0.12,0.3,0.17c1.17,0.69,2.66,0.69,3.83,0c0.1-0.06,0.2-0.12,0.3-0.17C546.5,840.23,547.36,838.13,546.85,836.26z"/>
	<path class="st3" d="M567.38,632.95c-1.12,4.26-2.74,8.83,0.08,12.61c-0.08,1.67-0.24,3.36-0.28,5c-0.09,3.67,5.26,4.26,6.29,0.85
		c0.64-2.13,1.14-4.37,1.85-6.5c1.99-2.33,2.53-5.59,3.21-8.89C580,628.8,569.28,625.69,567.38,632.95z"/>
	<path class="st3" d="M481.67,907.58c-3.91-4.18-12.21,0.43-11.84,5.72c0.15,2.15,1.67,3.83,3.9,3.9c0.34,0.02,0.28,0-0.17-0.05
		c-0.79-0.12-0.51-0.08,0.84,0.11c0.84-0.04,1.56-0.27,2.32-0.63c0.01-0.01,0.03-0.01,0.04-0.02c0.17-0.03,0.62-0.15,0.66-0.16
		c1.92-0.35,4.07-1.24,5.01-3.04C483.45,911.44,483.18,909.19,481.67,907.58z"/>
</g>
<g id="rarm">
	<path class="st0" d="M735.36,401.87l-28.34,15.29c0,0,3.35,185.04,8.52,188.81c5.18,3.77-10.6,53.53-10.6,53.53l20.08-20.93
		c0,0,3.94,20.84,15.43,31.34c11.48,10.49,21.71-6.99,7.55-32.37s-22.69-59.04-22.5-77.06
		C725.69,542.45,735.36,401.87,735.36,401.87z"/>
</g>
<g id="eyes">
	<path class="st5" d="M606.41,334.2c13.11-2.91,39.34-10.2,40.8-10.2c1.46,0,14.17,29.21,0,37.89c-15.71,9.61-27.71,3.61-37.71-3.39
		C601.95,353.22,606.41,334.2,606.41,334.2z"/>
	<path class="st4" d="M607.5,334.5c0,0-4.86,6.61-1.43,18.8c3.43,12.2,8.43,16.2,11.43,19.2s21,4,25,2"/>
	<path d="M642.17,344.83c0-0.04,0-0.08,0-0.12c-0.12-0.92-0.25-1.84-0.37-2.77c-0.02-0.09-0.05-0.16-0.08-0.24
		c-0.05-0.47-0.08-0.84-0.23-1.27c-0.23-0.65-0.66-1.77-1.01-2.36c-0.2-0.35-0.8-1.05-0.81-1.06c-0.36-0.46-0.57-0.81-0.95-1.17
		c-0.26-0.24-1.65-1.33-1.97-1.52c-0.05-0.03-0.1-0.06-0.15-0.09c-0.05-0.03-0.11-0.05-0.16-0.08c-0.62-0.3-1.73-0.83-2.39-1
		c-0.87-0.23-1.89-0.33-2.79-0.4c-0.12-0.01-0.24-0.02-0.37-0.01c-0.96,0.02-1.95,0.13-2.87,0.39c-0.06,0.02-0.12,0.03-0.17,0.05
		c-0.65,0.21-1.83,0.7-2.44,1.03c-0.11,0.06-0.2,0.12-0.3,0.19c-0.72,0.49-1.54,1.08-2.15,1.7c-0.24,0.25-1.4,1.76-1.57,2.04
		c-0.03,0.05-0.07,0.1-0.1,0.15c-0.2,0.32-0.78,1.84-0.55,1.29c-0.26,0.61-0.41,0.88-0.56,1.38c-0.31,1.01-0.4,1.72-0.39,2.43
		c-0.18,1.28-0.21,1.17-0.09,1.98c0,0.33,0.04,0.66,0.13,0.98c0.03,0.26,0.06,0.62,0.11,0.98c0,0.02,0.01,0.05,0.01,0.07
		c0.01,0.04,0.02,0.08,0.03,0.13c0.03,0.2,0.07,0.41,0.12,0.61c0.37,0.88,0.74,1.76,1.11,2.64c0.58,0.75,1.15,1.49,1.73,2.24
		c0.75,0.58,1.49,1.15,2.24,1.73l2.64,1.11c0.98,0.13,1.96,0.26,2.94,0.39c0.98-0.13,1.96-0.26,2.94-0.39
		c0.88-0.37,1.76-0.74,2.64-1.11c1.23-0.66,2.22-1.57,2.99-2.69c1.16-1.24,1.98-2.67,2.44-4.31
		C641.91,346.93,642.16,345.64,642.17,344.83z"/>
	<path class="st6" d="M635.21,338.25c-1.02,0-1.02,1.59,0,1.59C636.23,339.84,636.24,338.25,635.21,338.25z"/>
	<path class="st6" d="M637.43,340.88c-0.91,0-1.78,0.8-1.74,1.74c0.04,0.94,0.76,1.74,1.74,1.74c0.91,0,1.78-0.8,1.74-1.74
		C639.12,341.68,638.4,340.88,637.43,340.88z"/>
</g>
<g id="eyeglasses">
	
		<linearGradient id="SVGID_1_" gradientUnits="userSpaceOnUse" x1="601.8257" y1="349.379" x2="673.8726" y2="349.379" gradientTransform="matrix(-1 0 0 1 1271 0)">
		<stop  offset="0.2994" style="stop-color:#CCE0F4"/>
		<stop  offset="0.3778" style="stop-color:#C3DCF2;stop-opacity:0.9097"/>
		<stop  offset="0.5082" style="stop-color:#A9D2EE;stop-opacity:0.7594"/>
		<stop  offset="0.6746" style="stop-color:#80C2E7;stop-opacity:0.5678"/>
		<stop  offset="0.8683" style="stop-color:#47ACDE;stop-opacity:0.3446"/>
		<stop  offset="0.9938" style="stop-color:#1E9CD7;stop-opacity:0.2"/>
	</linearGradient>
	<path class="st7" d="M609.91,381.3L667,367c2.17,0.15,2.43,0.11,2-2l-6-29c-0.07-0.44,0.16-18.18,0.42-18.55
		c2.98-4.11-38.3,5.11-40.42,5.55l-25,7c-2.14,0.44,0.29,1.71,0.66,3.87l7.6,44.74C606.65,380.97,607,384,609.91,381.3z"/>
	<path class="st8" d="M748.77,336.82c-2.61-2.45-6.26-3.2-9.68-3.64c-5.48-0.7-11.06-0.93-16.57-1.16
		c-18.48-0.75-40.42-0.57-57.55,7.83c-0.71-7.23-0.43-14.56,0.87-21.82c0.2-1.14-0.46-2.04-1.62-2.13
		c-23.43-1.94-46.06,4.87-68.16,11.79c-1.61,0.5-1.34,2.66-0.1,3.09c0,0.04-0.02,0.08-0.02,0.13c0.5,7.29,1.55,14.63,2.9,21.94
		c-5.41-2.07-13.58-1.02-17.93,2.54c-3.14,2.57-3.98,7.64-0.19,9.98c1.16,0.72,2.61-1.06,1.49-1.93c-5.06-3.93,2.31-7.89,5.79-8.74
		c3.85-0.94,7.32-0.36,11.14-0.28c1.97,10.39,4.5,20.73,6.85,30.81c0.32,1.4,2.08,1.09,2.53,0c1.99-4.78,10.04-5.76,14.39-6.91
		c5.21-1.38,10.48-2.56,15.76-3.66c10.74-2.24,21.56-3.96,32.45-5.26c1.29-0.16,2.02-1.28,1.44-2.51
		c-3.93-8.17-6.41-16.87-7.43-25.75c6.44-1.69,12.81-3.6,19.39-4.71c7.8-1.32,15.74-1.91,23.65-2.05
		c7.48-0.13,14.96,0.17,22.42,0.71c3.73,0.27,7.67,0.31,11.26,1.39c4.63,1.39,10.08,6.5,4.99,11.19c-1.2,1.1,0.35,3.12,1.74,2.26
		C753.24,347.02,752.45,340.28,748.77,336.82z M668.67,366.41c-11.89,1.67-23.69,3.89-35.36,6.71c-6.15,1.49-12.34,3.01-18.4,4.85
		c-2.66,0.81-5.22,1.76-7.04,3.63c-1.78-7.96-3.47-15.95-5.04-23.95c-1.76-8.95-2.89-18.12-5.06-26.98
		c-0.01-0.05-0.04-0.08-0.06-0.13c20.98-6.51,42.4-12.82,64.57-11.39C659.73,335.3,661.91,351.53,668.67,366.41z"/>
</g>
<g id="mouth">
	<path class="st4" d="M649,459c-10,16-84.5,4.5-84.5,4.5"/>
	<path class="st4" d="M648.42,449.15c-1.22,3.07-1.8,6.63-0.4,9.63c1.39,2.99,5.31,4.92,8.18,3.3"/>
</g>
<g id="moustache">
	<path d="M627.13,460.84c-0.08-0.08-0.17-0.16-0.25-0.23c-0.04-0.13-0.1-0.26-0.19-0.38c-3.62-4.78-7.55-9.3-11.38-13.91
		c-0.49-0.59-1.25-0.55-1.81-0.19c-0.4-0.63-0.79-1.25-1.18-1.88c-1.06-1.68-3.48-0.22-2.64,1.54c0.31,0.65,0.58,1.3,0.85,1.95
		c-0.03,0.02-0.06,0.04-0.08,0.06c-0.39-0.52-0.79-1.04-1.18-1.55c-0.29-0.42-0.61-0.84-0.96-1.26c-0.68-0.8-1.85-0.36-2.29,0.41
		c-0.16-0.52-0.32-1.04-0.46-1.58c-0.37-1.45-2.84-1.2-2.68,0.36c0.11,1.09,0.23,2.19,0.34,3.28c-0.83-1.48-1.65-2.96-2.47-4.45
		c-0.72-1.31-2.98-0.42-2.46,1.04c0.38,1.07,0.65,2.12,0.83,3.18c-0.41,0.01-0.8,0.21-1.1,0.5c-0.7-1.71-1.24-3.5-1.63-5.41
		c-0.29-1.42-2.65-1.12-2.55,0.35c0.07,0.95,0.08,1.88,0.05,2.8c-0.55-0.19-1.2-0.14-1.67,0.17c-0.11-0.72-0.21-1.46-0.27-2.21
		c-0.13-1.58-2.39-1.61-2.48,0c-0.03,0.63-0.09,1.25-0.17,1.86c-0.03-1.06-0.06-2.12-0.08-3.18c-0.03-1.34-2.04-1.68-2.38-0.32
		c-0.44,1.76-0.87,3.52-1.29,5.28c-0.12-1.13-0.15-2.28-0.08-3.5c0.04-0.72-0.59-1.12-1.21-1.12c0.02-0.15,0.04-0.3,0.06-0.45
		c0.15-1.01-1.05-1.59-1.67-0.7c-0.62,0.9-1.25,1.8-1.87,2.7c-0.49,0.22-0.88,0.71-0.95,1.31l-0.01,0.06
		c-0.04,0.05-0.07,0.1-0.11,0.15c-0.06-0.1-0.13-0.18-0.19-0.26c0.56-1.58,1.12-3.17,1.69-4.75c0.39-1.07-1.2-1.63-1.77-0.75
		c-0.14,0.22-0.26,0.44-0.4,0.65c0.01-0.59-0.68-1.17-1.16-0.58c-1.19,1.45-2.4,2.88-3.61,4.31c-0.05,0.03-0.1,0.05-0.15,0.08
		c0.12-0.18,0.24-0.36,0.35-0.54c0.25-0.41-0.06-0.89-0.44-1.02c-0.09-0.52-0.87-0.87-1.35-0.44c-2.68,2.41-4.82,5.07-6.54,8.08
		c-4.48,2.7-8.65,5.96-12.77,9.14c-0.9,0.69-0.52,1.9,0.26,2.49c-0.76,0.65-1.5,1.33-2.23,2.03c-1.31,1.27,0.6,3.05,1.96,1.96
		c1.7-1.36,3.36-2.77,5-4.21c1.39-1.03,2.84-1.97,4.34-2.84c-1.17,1.62-2.34,3.25-3.5,4.89c-1.18,1.68,1.54,3.2,2.73,1.6
		c0.89-1.2,1.78-2.4,2.66-3.6c0.08-0.03,0.16-0.07,0.24-0.13c-0.18,0.81,0.22,1.42,0.8,1.71c-0.02,0.08-0.05,0.16-0.07,0.25
		c-0.39,1.66,1.69,2.39,2.63,1.11c0.41-0.55,0.81-1.12,1.21-1.68c0.15,0.22,0.33,0.41,0.56,0.54c0.34,1.19,2.05,1.74,2.74,0.45
		c0.08-0.16,0.17-0.32,0.25-0.47c0.13,1.76,0.5,3.52,1.14,5.3c0.45,1.27,2.27,1.37,2.68,0c0.65-2.14,1.25-4.3,1.87-6.45
		c0.43,2.1,1.06,4.17,1.87,6.25c0.47,1.19,2.61,1.62,2.87,0c0.29-1.79,0.49-3.57,0.63-5.35c0.7,1.67,1.4,3.34,2.12,5
		c0.5,1.15,2.42,0.81,2.67-0.35c0.28-1.28,0.46-2.53,0.57-3.78c0.4,0.79,0.83,1.58,1.28,2.36c0.71,1.22,2.77,0.73,2.71-0.73
		c-0.05-1.32-0.11-2.65-0.17-3.97c0.41,1.08,0.83,2.16,1.24,3.24c0.62,1.64,2.88,1.37,3.03-0.41c0.02-0.23,0.02-0.46,0.03-0.69
		c0.74,1.16,1.55,2.28,2.45,3.38c1.07,1.3,2.93-0.11,2.66-1.51c0.33,0.62,0.65,1.25,0.99,1.87c0.77,1.41,2.62,0.96,3.17-0.23
		c0.26,0.3,0.52,0.59,0.8,0.88c1.35,1.4,3.56-0.06,3.14-1.83c-0.16-0.68-0.34-1.34-0.52-2.01c0.71,0.87,1.42,1.74,2.13,2.61
		c0.94,1.15,2.57,0.55,3.22-0.52c0.49,0.58,0.99,1.15,1.49,1.73c0.94,1.09,2.49,0.62,3.23-0.34c1.49-0.01,2.98-1.65,1.93-3.15
		c-0.64-0.91-1.28-1.82-1.91-2.73c0.45,0,0.87-0.15,1.21-0.41c0.82,0.78,1.64,1.56,2.48,2.33
		C626.07,465.93,629.21,462.84,627.13,460.84z M575.7,462.97c-0.02-0.42-0.03-0.85-0.02-1.27c0.15,0.01,0.29-0.01,0.43-0.04
		C575.97,462.1,575.84,462.54,575.7,462.97z M586.7,462.17c-0.24-0.56-0.49-1.13-0.73-1.69c0.24-0.04,0.49-0.09,0.73-0.13
		C586.73,460.96,586.73,461.56,586.7,462.17z"/>
</g>
</svg>
