<?xml version="1.0" encoding="utf-8"?>
<!-- Generator: Adobe Illustrator 23.0.3, SVG Export Plug-In . SVG Version: 6.00 Build 0)  -->
<svg version="1.1" xmlns="http://www.w3.org/2000/svg" xmlns:xlink="http://www.w3.org/1999/xlink" x="0px" y="0px"
	 viewBox="0 0 1280 1024" style="enable-background:new 0 0 1280 1024;" xml:space="preserve">
<style type="text/css">
	.st0{fill:#3FA9F5;stroke:#000000;stroke-miterlimit:10;}
	.st1{fill:#E6E6E6;stroke:#000000;stroke-miterlimit:10;}
	.st2{fill:url(#SVGID_1_);stroke:url(#SVGID_2_);stroke-miterlimit:10;}
	.st3{fill:url(#SVGID_3_);stroke:url(#SVGID_4_);stroke-miterlimit:10;}
	.st4{fill:#B3B3B3;stroke:#000000;stroke-miterlimit:10;}
	.st5{fill:#F2F2F2;}
	.st6{fill:#E2E0E0;}
	.st7{fill:none;stroke:#000000;stroke-miterlimit:10;}
	.st8{fill:#ED1C24;}
	.st9{fill:#FFFFFF;}
	.st10{fill:#FFFFFF;stroke:#000000;stroke-miterlimit:10;}
</style>
<g id="picioare">
	<path class="st0" d="M549.34,782.89c0,0,6.16-24.39,22.16-5.39s1,54-4,62s-34,40-42,31s-10-39,0-49S533.17,794.28,549.34,782.89z"
		/>
	<path class="st1" d="M450,432l32.5,1.27L494,601c0,0,41,101,47,144s9.5,38.5,13.5,44.5s-5,38-14,39s-3-30-3-35s-67-182-70-194
		S450,432,450,432z"/>
	<path class="st0" d="M590.35,777.47c0,0-18.85,9.03-15.85,21.03s13,44,16,50s7,26,16,18s28-56,24-63s-9.96-29.04-14.98-30.02
		C610.5,772.5,590.35,777.47,590.35,777.47z"/>
	<path class="st1" d="M582.5,432.5l33,1c0,0,6,349-3,366c-8.17,15.43-9,26-12,22s-11-16-10-29s-2-181,1-187S582.5,432.5,582.5,432.5
		z"/>
</g>
<g id="fusta">
	<linearGradient id="SVGID_1_" gradientUnits="userSpaceOnUse" x1="418.3438" y1="466.1086" x2="677.5016" y2="466.1086">
		<stop  offset="0" style="stop-color:#CCE0F4"/>
		<stop  offset="0.0641" style="stop-color:#C3DCF2"/>
		<stop  offset="0.1706" style="stop-color:#A9D2EE"/>
		<stop  offset="0.3066" style="stop-color:#80C2E7"/>
		<stop  offset="0.4649" style="stop-color:#47ACDE"/>
		<stop  offset="0.5674" style="stop-color:#1E9CD7"/>
		<stop  offset="0.8652" style="stop-color:#0075BE"/>
		<stop  offset="0.9944" style="stop-color:#005B97"/>
	</linearGradient>
	<linearGradient id="SVGID_2_" gradientUnits="userSpaceOnUse" x1="417.8438" y1="465.3719" x2="678.0016" y2="465.3719">
		<stop  offset="0" style="stop-color:#CCE0F4"/>
		<stop  offset="0.0641" style="stop-color:#C3DCF2"/>
		<stop  offset="0.1706" style="stop-color:#A9D2EE"/>
		<stop  offset="0.3066" style="stop-color:#80C2E7"/>
		<stop  offset="0.4649" style="stop-color:#47ACDE"/>
		<stop  offset="0.5674" style="stop-color:#1E9CD7"/>
		<stop  offset="0.8652" style="stop-color:#0075BE"/>
		<stop  offset="0.9944" style="stop-color:#005B97"/>
	</linearGradient>
	<path class="st2" d="M425.5,432.5c0,0,7,62-5,70s30-70,30-70v78l23-78c0,0,6,78,8,75s16-75,16-75l13,73l15-73l13,72l10-72
		c0,0,8,73,14,78s4-78,4-78s18,43,16,58s14-58,14-58s-1,52,6,66s19-66,19-66s11,61,9,66s17-66,17-66s2,43,10,59s10-61,10-61l10,62
		v-71C677.5,421.5,680.5,435.5,425.5,432.5z"/>
	<linearGradient id="SVGID_3_" gradientUnits="userSpaceOnUse" x1="418.0217" y1="466.1086" x2="683.0559" y2="466.1086">
		<stop  offset="0.1518" style="stop-color:#005B97"/>
		<stop  offset="0.5674" style="stop-color:#1E9CD7"/>
		<stop  offset="0.7787" style="stop-color:#0075BE"/>
		<stop  offset="0.9784" style="stop-color:#CCE0F4"/>
	</linearGradient>
	<linearGradient id="SVGID_4_" gradientUnits="userSpaceOnUse" x1="417.5217" y1="465.3719" x2="683.5559" y2="465.3719">
		<stop  offset="0" style="stop-color:#CCE0F4"/>
		<stop  offset="0.0641" style="stop-color:#C3DCF2"/>
		<stop  offset="0.1706" style="stop-color:#A9D2EE"/>
		<stop  offset="0.3066" style="stop-color:#80C2E7"/>
		<stop  offset="0.4649" style="stop-color:#47ACDE"/>
		<stop  offset="0.5674" style="stop-color:#1E9CD7"/>
		<stop  offset="0.8652" style="stop-color:#0075BE"/>
		<stop  offset="0.9944" style="stop-color:#005B97"/>
	</linearGradient>
	<path class="st3" d="M670.02,432.5c-6.93,0.67,16.92,55.34,12.48,51c-15.11-14.76-37.48-51-37.48-51v78l-23-78c0,0-6,78-8,75
		s-16-75-16-75l-13,73l-15-73l-13,72l-10-72c0,0-8,73-14,78s-4-78-4-78s-18,43-16,58s-14-58-14-58s1,52-6,66s-19-66-19-66
		s-11,61-9,66s-17-66-17-66s-2,43-10,59s-10-61-10-61l-10,62v-71C418.02,421.5,415.02,435.5,670.02,432.5z"/>
</g>
<g id="base">
	<g>
		<path class="st1" d="M658.14,432.5H429.45c-11.57,0-20.95-9.38-20.95-20.95V142.5h274v265.64
			C682.5,421.59,671.59,432.5,658.14,432.5z"/>
		<ellipse class="st4" cx="545.5" cy="144.5" rx="137" ry="19"/>
		<path class="st1" d="M682.5,296.5c11.5-12.88,19.93-28.69,24.8-45.25c1.57-5.33,2.76-11,1.47-16.41
			c-1.29-5.4-5.69-10.42-11.23-10.76c-5.39-0.33-11.15,3.68-15.04,7.42v-17c4.45-11.61,21.32-16.78,32.25-10.86
			c11.34,6.14,15.02,20.75,14.7,33.64c-0.92,36.86-24.18,68.96-47.05,97.88"/>
		<path class="st5" d="M662.1,426.33c0.5,3.14,3.69,5.06,6.71,4.06c6.25-2.07,6.83-4.39,11.19-14.32c4.34-9.9,2.68-274.18,0-269.07
			c-4.36,8.3-49.82,11.21-53.73,12.78c-0.49,0.2-1.02,0.28-1.54,0.32l0,0c-5.41,0.43-7.42,7.32-3.08,10.58
			c9.9,7.45,21.95,16.73,21.36,17.32c-0.75,0.75-12.7,12.14-18.67,17.83c-1.9,1.81-2.13,4.75-0.54,6.83l31.63,41.36
			c2.2,2.87,0.81,7.06-2.67,8.05h0c-3.34,0.96-4.79,4.89-2.86,7.78l2.21,3.32c1.87,2.8,0.58,6.64-2.62,7.7
			c-2.43,0.81-4.4,1.67-3.49,2.13c2,1,8,20,10,27s0,39,0,41c0,1.55,2.4,7.9,3.48,10.68c0.34,0.87,0.43,1.81,0.27,2.73l-3.47,19.98
			c-0.18,1.04-0.04,2.12,0.42,3.08l7.1,14.99c0.75,1.58,0.64,3.43-0.29,4.92l-2.5,3.99c-0.66,1.05-0.91,2.3-0.72,3.52L662.1,426.33z
			"/>
		<polyline class="st1" points="682.4,335.16 682.5,296.5 682.5,231.5 682.5,214.5 		"/>
		<path class="st5" d="M682,214c0,0,16-21,33-10s14,42,14,42s-12.14,39.56-15,43c-15,18-1-25-1-25s1-20-4-26s-5-14-10-14s-17,7-17,7
			V214z"/>
		<path class="st6" d="M408.5,146.93v266.97c0,0,2.75,15.21,16.62,18.16C439,435,473,433,473,433l-10-13l-22-44l-1-96l-22.18-128.6
			L408.5,146.93z"/>
	</g>
	<path id="nas" class="st7" d="M537.61,274.43c-2.03,0.39-3.92,1.46-5.32,2.98c-3.9,4.21-3.41,11.37,0.32,15.72
		c3.74,4.35,9.97,6.02,15.65,5.21c5.34-0.76,10.47-3.66,13.32-8.24c0.9-1.45,1.58-3.16,1.29-4.84c-0.32-1.85-1.75-3.29-3.2-4.47
		c-1.72-1.4-3.59-2.63-5.56-3.66"/>
</g>
<g id="Layer_6">
</g>
<g id="gura">
	<g>
		<g id="XMLID_2_">
			<g>
				<path class="st8" d="M606.8,308.16c-1.39,0.64-2.75,1.34-4.08,2.08l-0.07-0.13c-15,6.01-31.7,7.7-47.6,4.84
					c-1.14-0.21-2.38-0.43-3.42,0.1c-0.82,0.41-1.38,1.23-2.18,1.68c-2.65,1.5-5.47-1.63-8.37-2.57c-2.45-0.79-5.08,0.06-7.55,0.76
					c-12.98,3.64-27.12,3-39.7-1.8c-0.86-0.59-1.73-1.18-2.62-1.77c2.53,1.2,5.49,1.6,8.31,1.93c12.7,1.5,26.35,2.83,37.56-3.33
					c1.66-0.92,3.3-2,5.17-2.25c1.88-0.25,4.09,0.68,4.52,2.52c0.06-1.67,1.83-2.84,3.5-2.9c1.67-0.06,3.24,0.67,4.79,1.3
					C571.28,315.28,589.7,312.04,606.8,308.16z"/>
				<path class="st9" d="M517.26,329.81c-3.03-2.99-6.75-5.49-10.33-7.78c-4.66-2.99-8.76-5.94-13.1-8.91
					c12.58,4.8,26.72,5.44,39.7,1.8c2.47-0.7,5.1-1.55,7.55-0.76c2.9,0.94,5.72,4.07,8.37,2.57c0.8-0.45,1.36-1.27,2.18-1.68
					c1.04-0.53,2.28-0.31,3.42-0.1c15.9,2.86,32.6,1.17,47.6-4.84l0.07,0.13c-14.99,8.36-25.85,22.82-30.74,39.4l-0.48-0.14
					c-3.62-4.09-8.6-8.45-14.05-8.15c-1.15,0.06-2.29,0.3-3.44,0.24c-1.33-0.07-2.6-0.55-3.89-0.9c-4.65-1.25-9.76-0.73-14.07,1.45
					c-3.55,1.79-6.82,4.74-10.77,4.85c-1.28-1.94-1.45-4.76-2-7.16C522.38,335.91,520.14,332.64,517.26,329.81z"/>
				<path class="st8" d="M571.98,349.64c-0.11,0.37-0.22,0.73-0.32,1.1c-7.24-2.63-14.65-4.96-22.3-5.75
					c-7.66-0.78-15.63,0.06-22.51,3.52c-0.66-0.39-1.17-0.91-1.57-1.52c3.95-0.11,7.22-3.06,10.77-4.85
					c4.31-2.18,9.42-2.7,14.07-1.45c1.29,0.35,2.56,0.83,3.89,0.9c1.15,0.06,2.29-0.18,3.44-0.24c5.45-0.3,10.43,4.06,14.05,8.15
					L571.98,349.64z"/>
			</g>
			<g>
				<path class="st7" d="M491.21,311.35c0.89,0.59,1.76,1.18,2.62,1.77c4.34,2.97,8.44,5.92,13.1,8.91
					c3.58,2.29,7.3,4.79,10.33,7.78c2.88,2.83,5.12,6.1,6.02,10.02c0.55,2.4,0.72,5.22,2,7.16c0.4,0.61,0.91,1.13,1.57,1.52
					c6.88-3.46,14.85-4.3,22.51-3.52c7.65,0.79,15.06,3.12,22.3,5.75c0.1-0.37,0.21-0.73,0.32-1.1
					c4.89-16.58,15.75-31.04,30.74-39.4c1.33-0.74,2.69-1.44,4.08-2.08c-17.1,3.88-35.52,7.12-51.74,0.46
					c-1.55-0.63-3.12-1.36-4.79-1.3c-1.67,0.06-3.44,1.23-3.5,2.9c-0.43-1.84-2.64-2.77-4.52-2.52c-1.87,0.25-3.51,1.33-5.17,2.25
					c-11.21,6.16-24.86,4.83-37.56,3.33C496.7,312.95,493.74,312.55,491.21,311.35"/>
				<path class="st7" d="M491.21,311.35c-0.96-0.45-1.86-1.02-2.67-1.75C489.45,310.18,490.34,310.76,491.21,311.35z"/>
				<path class="st7" d="M493.04,312.81c0.26,0.1,0.52,0.21,0.79,0.31c12.58,4.8,26.72,5.44,39.7,1.8c2.47-0.7,5.1-1.55,7.55-0.76
					c2.9,0.94,5.72,4.07,8.37,2.57c0.8-0.45,1.36-1.27,2.18-1.68c1.04-0.53,2.28-0.31,3.42-0.1c15.9,2.86,32.6,1.17,47.6-4.84"/>
				<path class="st7" d="M525.04,347c0.08,0,0.16,0,0.24-0.01c3.95-0.11,7.22-3.06,10.77-4.85c4.31-2.18,9.42-2.7,14.07-1.45
					c1.29,0.35,2.56,0.83,3.89,0.9c1.15,0.06,2.29-0.18,3.44-0.24c5.45-0.3,10.43,4.06,14.05,8.15"/>
				<path class="st7" d="M516.85,329.7c0.14,0.04,0.27,0.08,0.41,0.11c9.56,2.66,19.73,1.9,29.62,0.92"/>
				<path class="st7" d="M558.42,330.69c8.24-0.06,16.48-1.06,24.49-2.98"/>
			</g>
		</g>
	</g>
</g>
<g id="ochi">
	<path class="st10" d="M467.5,236.5c0,0,6,24,38,22c0,0,7-1,11-1s8-1,10,2s-11-20-14-22c-1.86-1.24-10-8-26-3
		S468.5,235.5,467.5,236.5z"/>
	<ellipse cx="497.5" cy="243" rx="12.5" ry="15"/>
	<g>
		<path class="st4" d="M527.5,261.5 M467.5,235.5 M478.55,219.77c4.14-3.31,8.02-7.08,12.82-9.33c3.34-1.56,7.37-2.3,10.66-0.64
			c2.53,1.28,4.21,3.75,5.71,6.16c9.23,14.74,16.22,30.87,20.65,47.69c-3.23-6.93-7.06-13.59-11.44-19.86
			c-2.17-3.11-4.55-6.19-7.78-8.16c-6.59-4-14.99-2.51-22.52-0.86c-7.53,1.64-15.92,3.18-22.54-0.77
			c-4.07-2.43-7.96-7.11-10.17-11.24c4.22,1.29,6.87,4.09,11.78,3.48C470.55,225.61,474.85,222.74,478.55,219.77z"/>
		<path class="st7" d="M467.91,236.17c-0.57-0.48-1.46-0.39-2.09,0c-0.63,0.39-1.07,1.03-1.49,1.65c-0.47,0.69-0.95,1.42-1.04,2.25"
			/>
		<path class="st7" d="M468.5,239.5c-1.11-0.04-2.14,1.08-2.57,2.1c-0.42,1.02-0.24,2.14,0.57,2.9"/>
		<path class="st7" d="M470.5,242.5c-1.55-0.05-2.95,2.07-3.27,3.59c-0.32,1.51,0.56,3.19,2,3.78"/>
		<path class="st7" d="M467.5,235.5c-2.46-0.25-2.62-3.33-2-5.73"/>
		<path class="st7" d="M473.5,236.5c-1.9,0.08-3.55-3.4-2.56-5.03"/>
		<path class="st7" d="M477.5,236.5c-3,1-2.29-3.17-1.74-4.67"/>
	</g>
	<circle class="st9" cx="491" cy="242" r="3"/>
	<circle class="st9" cx="492.38" cy="247.49" r="1.55"/>
	<path class="st10" d="M616.85,236.5c0,0-6,24-38,22c0,0-7-1-11-1s-8-1-10,2s11-20,14-22c1.86-1.24,10-8,26-3
		S615.85,235.5,616.85,236.5z"/>
	<ellipse cx="586.85" cy="243" rx="12.5" ry="15"/>
	<g>
		<path class="st4" d="M556.85,261.5 M616.85,235.5 M618.62,226.22c4.91,0.62,7.56-2.18,11.78-3.48
			c-2.21,4.13-6.11,8.82-10.17,11.24c-6.62,3.95-15,2.42-22.54,0.77c-7.53-1.64-15.93-3.14-22.52,0.86
			c-3.24,1.97-5.62,5.05-7.78,8.16c-4.38,6.27-8.21,12.93-11.44,19.86c4.44-16.81,11.43-32.95,20.65-47.69
			c1.51-2.4,3.18-4.88,5.71-6.16c3.29-1.66,7.32-0.93,10.66,0.64c4.8,2.25,8.69,6.02,12.82,9.33
			C609.5,222.74,613.8,225.61,618.62,226.22z"/>
		<path class="st7" d="M616.44,236.17c0.57-0.48,1.46-0.39,2.09,0c0.63,0.39,1.07,1.03,1.49,1.65c0.47,0.69,0.95,1.42,1.04,2.25"/>
		<path class="st7" d="M615.85,239.5c1.11-0.04,2.14,1.08,2.57,2.1c0.42,1.02,0.24,2.14-0.57,2.9"/>
		<path class="st7" d="M613.85,242.5c1.55-0.05,2.95,2.07,3.27,3.59c0.32,1.51-0.56,3.19-2,3.78"/>
		<path class="st7" d="M616.85,235.5c2.46-0.25,2.62-3.33,2-5.73"/>
		<path class="st7" d="M610.85,236.5c1.9,0.08,3.55-3.4,2.56-5.03"/>
		<path class="st7" d="M606.85,236.5c3,1,2.29-3.17,1.74-4.67"/>
	</g>
	<circle class="st9" cx="593.35" cy="242" r="3"/>
	<circle class="st9" cx="591.97" cy="247.49" r="1.55"/>
</g>
</svg>
