<?xml version="1.0" encoding="utf-8"?>
<!-- Generator: Adobe Illustrator 23.0.3, SVG Export Plug-In . SVG Version: 6.00 Build 0)  -->
<svg version="1.1" xmlns="http://www.w3.org/2000/svg" xmlns:xlink="http://www.w3.org/1999/xlink" x="0px" y="0px"
	 viewBox="0 0 612 792" style="enable-background:new 0 0 612 792;" xml:space="preserve">
<style type="text/css">
	.st0{fill:#754C29;}
	.st1{fill:none;stroke:#000000;stroke-miterlimit:10;}
	.st2{fill:#754C29;stroke:#000000;stroke-miterlimit:10;}
	.st3{fill:#754C29;stroke:#000000;stroke-width:1.0006;stroke-linecap:round;stroke-linejoin:round;stroke-miterlimit:10;}
	.st4{fill:#FFDE17;}
	.st5{fill:#F26522;}
	.st6{fill:none;stroke:#000000;stroke-width:0.5;stroke-linecap:round;stroke-linejoin:round;}
	.st7{opacity:0.67;fill:#FBB040;}
	.st8{opacity:0.59;fill:#FFFFFF;}
	.st9{fill:#BE1E2D;}
	.st10{fill:#27AAE1;}
	.st11{fill:#009444;}
	.st12{fill:#FFFFFF;stroke:#000000;stroke-miterlimit:10;}
	.st13{fill:#FFFFFF;}
	.st14{stroke:#000000;stroke-miterlimit:10;}
</style>
<g id="Layer_1">
</g>
<g id="Layer_6">
	<g id="XMLID_5_">
		<g>
			<path class="st0" d="M323.09,154.4c6.73,2.85,7.6,11.9,7.27,19.21c-2.67,59.02-15.21,117.2-19.58,176.12
				c-0.32,4.4-1.76,12.96-8.23,11.27c-4.69-1.23-4.62-8.23-5.28-12.16c-2.67-15.98-2.04-32.15-1.06-48.26
				c2.8-45.44,7.33-90.77,13.59-135.86c0.29-2.12,0.61-4.29,1.62-6.18C313.55,154.53,318.92,152.64,323.09,154.4z"/>
		</g>
		<g>
			<path class="st1" d="M296.21,300.57c2.8-45.44,7.33-90.77,13.59-135.86c0.29-2.12,0.61-4.29,1.62-6.18
				c2.13-4,7.5-5.89,11.67-4.14c6.73,2.85,7.6,11.9,7.27,19.21c-2.67,59.02-15.21,117.2-19.58,176.12
				c-0.32,4.4-1.76,12.96-8.23,11.27c-4.69-1.23-4.62-8.23-5.28-12.16C294.6,332.84,295.23,316.67,296.21,300.57z"/>
		</g>
	</g>
</g>
<g id="hands">
	<path class="st2" d="M382.04,371.33c0.83-1.78,1.66-3.62,1.76-5.58c0.3-5.52-4.94-9.63-6.98-14.77c-0.62-1.57-0.95-3.34-0.43-4.95
		c0.52-1.61,2.06-2.96,3.74-2.85c0.7,0.04,1.38,0.33,1.96,0.72c3.35,2.22,3.85,7.4,7.36,9.35c0.32,0.18,0.69,0.33,1.05,0.27
		c0.48-0.08,0.82-0.49,1.09-0.9c1.68-2.5,2.3-5.54,2.89-8.5s1.21-5.99,2.88-8.5c1.67-2.51,4.67-4.38,7.63-3.8
		c3.35,0.65,5.5,4.33,5.26,7.73s-2.38,6.41-4.98,8.62c-2.6,2.21-5.67,3.77-8.56,5.58c-0.89,0.56-1.84,1.26-2,2.29
		c-0.19,1.18,0.81,2.29,1.95,2.66c1.14,0.37,2.38,0.17,3.56-0.02c2.13-0.35,4.25-0.7,6.38-1.05c1.41-0.23,2.9-0.46,4.24,0.05
		c3.01,1.15,3.56,5.11,3.56,8.33c0,2.7-0.57,6.1-3.18,6.78c-1.56,0.4-3.16-0.43-4.47-1.36c-2.45-1.73-4.6-3.89-7.2-5.4
		s-5.89-2.27-8.6-0.98c-2.67,1.28-4.09,4.18-5.35,6.86c-6.21,13.2-13.19,26.04-20.89,38.43c-0.81,1.31-1.74,2.69-3.18,3.22
		c-1.16,0.42-3.14-0.11-3.35-1.53c-0.19-1.31,2.71-4.22,3.48-5.32c2.57-3.71,5.04-7.48,7.41-11.33
		C373.83,387.62,378.17,379.59,382.04,371.33z"/>
	<path class="st3" d="M191.83,454.48c2.06-0.21,4.18,0.27,6.25,0.26c1.83-0.01,3.65-0.67,5.06-1.85l3.06,1.3
		c-3.51,1.9-7.85,3.98-10.46,7c-1.15,1.34-2.09,2.87-3.34,4.13c-1.79,1.81-4.34,3.02-6.85,2.65c-2.51-0.37-4.78-2.62-4.64-5.16
		C181.05,460.31,186.16,454.94,191.83,454.48"/>
	<path class="st2" d="M207.41,445.51c-1.16,0.7-2.36,1.39-3.69,1.64c-2.08,0.4-4.19-0.33-6.19-1.04c-2.83-1.01-5.67-2.03-8.5-3.04
		c-2.11-0.76-4.4-1.52-6.55-0.9c-2.2,0.64-3.77,2.61-4.76,4.68c-1.56,3.23-1.79,7.71,1.08,9.87c1.86,1.4,4.46,1.36,6.68,0.66
		c2.22-0.7,4.21-1.97,6.35-2.88c3.37-1.45,7.12-2.01,10.76-1.61c1.29,0.14,2.65,0.43,3.6,1.32c1.39,1.28,1.55,3.38,1.47,5.27
		c-0.16,3.72-0.9,7.42-2.2,10.91c-0.24,0.65-0.51,1.36-0.31,2.03c0.31,1.05,1.68,1.47,2.73,1.15c1.05-0.33,1.84-1.18,2.57-1.99
		c2.11-2.33,4.22-4.66,6.33-6.99c0.43-0.48,0.88-0.98,1.04-1.6c0.49-1.88-1.67-3.22-2.97-4.65c-2.29-2.51-2.15-6.48-0.83-9.62
		c1.93-4.55,5.88-7.94,10.05-10.6c3.95-2.52,11.61-5.02,14.16-9.1c2.11-3.38-2.64-2.97-4.9-2.22c-4.43,1.47-8.16,6.26-11.8,9.08
		C217.02,439.34,212.31,442.57,207.41,445.51z"/>
</g>
<g id="Layer_5">
	<g id="XMLID_2_">
		<g>
			<path class="st4" d="M373.77,480.61c2.66,23.17,2.19,43.42,6.08,66.41c-2.27,1.25-7.8,1.7-10.14,0.59
				c-3.51-1.66-7.56,0.2-11.31,1.2c-11.87,3.19-25.88-2.15-36.07,4.72c-0.74,0.5-1.51,1.08-2.41,1.07
				c-1.78-0.02-2.59-2.16-3.79-3.47c-2.1-2.29-5.7-2.09-8.81-1.84c-13.31,1.07-26.81-0.26-39.66-3.91c-3.52-1-7.21-2.19-10.77-1.34
				c-1.7,0.41-3.35,1.27-5.1,1.15c-2.73-0.19-4.98-2.77-7.71-2.58c-2.3,0.17-4.13,2.27-6.43,2.35c-1.63,0.06-3.09-0.9-4.51-1.71
				c-5.83-3.3-12.64-4.08-19.15-2.75c0.75-22.91,6.34-47,9.4-69.86c2.85-21.21,5.71-42.46,10.79-63.25
				c2.55-10.41,5.72-20.84,11.52-29.85c8.29-12.88,21.78-22.16,36.61-25.98c14.83-3.82,30.87-2.29,45,3.61
				c5.21,2.16,10.21,4.93,14.46,8.62c13.35,11.58,18.73,29.9,22.24,47.22c1.81,8.94,3.66,18.08,4.95,27.12
				C370.38,448.02,371.36,459.55,373.77,480.61z"/>
		</g>
		<g>
			<path class="st1" d="M223.41,470.64c2.85-21.21,5.71-42.46,10.79-63.25c2.55-10.41,5.72-20.84,11.52-29.85
				c8.29-12.88,21.78-22.16,36.61-25.98c14.83-3.82,30.87-2.29,45,3.61c5.21,2.16,10.21,4.93,14.46,8.62
				c13.35,11.58,18.73,29.9,22.24,47.22c1.81,8.94,3.66,18.08,4.95,27.12c1.41,9.89,2.39,21.41,4.81,42.47
				c2.66,23.17,2.19,43.42,6.08,66.41c-2.27,1.25-7.8,1.7-10.14,0.59c-3.51-1.66-7.56,0.2-11.31,1.2
				c-11.87,3.19-25.88-2.15-36.07,4.72c-0.74,0.5-1.51,1.08-2.41,1.07c-1.78-0.02-2.59-2.16-3.79-3.47c-2.1-2.29-5.7-2.09-8.81-1.84
				c-13.31,1.07-26.81-0.26-39.66-3.91c-3.52-1-7.21-2.19-10.77-1.34c-1.7,0.41-3.35,1.27-5.1,1.15c-2.73-0.19-4.98-2.77-7.71-2.58
				c-2.3,0.17-4.13,2.27-6.43,2.35c-1.63,0.06-3.09-0.9-4.51-1.71c-5.83-3.3-12.64-4.08-19.15-2.75
				C214.75,517.59,220.34,493.5,223.41,470.64z"/>
		</g>
	</g>
	<path class="st5" d="M327.49,362.26c-0.03-0.02-0.07,0.03-0.04,0.05c5.85,5.09,10.35,11.2,13.61,18.23
		c3.65,7.86,5.56,16.29,7.27,24.74c0.02,0.1,0.17,0.06,0.15-0.04C345.73,389.76,340.68,372.19,327.49,362.26z"/>
	<path class="st5" d="M354.28,451.07c-0.49-6.67-1.19-13.33-2.32-19.92c0-0.01-0.01,0-0.01,0c1.51,11.69,2.69,23.4,2.86,35.19
		c0.18,12-0.48,24.02-1.95,35.93c-0.83,6.75-2.03,13.42-3.19,20.12c-0.01,0.08,0.1,0.11,0.12,0.03c2.65-11.56,3.97-23.54,4.7-35.36
		C355.22,475.09,355.16,463.04,354.28,451.07z"/>
	<path class="st5" d="M369.09,500.62c0-0.03-0.04-0.02-0.04,0c-0.59,6.29-0.64,12.69,0.25,18.96c0.02,0.12,0.2,0.12,0.19,0
		C368.99,513.25,368.72,506.97,369.09,500.62z"/>
	<path class="st5" d="M339.42,458.38c-0.07-1.77-0.17-3.53-0.29-5.3c-0.27-4.57-0.58-9.15-0.97-13.7c0-0.04-0.06-0.04-0.06,0
		c0.06,1.73,0.15,3.45,0.23,5.18c-0.14-1.19-0.29-2.38-0.46-3.56c0-0.02-0.04-0.02-0.03,0c1.1,12.43,1.69,24.8,1.31,37.28
		c0,0.05,0.08,0.05,0.08,0c0.27-4.7,0.39-9.44,0.34-14.18c0.1,1.3,0.19,2.6,0.28,3.9c0,0.04,0.06,0.04,0.06,0
		C339.75,464.8,339.59,461.59,339.42,458.38z"/>
	<path class="st5" d="M310.97,370.5c-0.01-0.05-0.08-0.03-0.07,0.02c0.93,5.02,1.95,9.99,2.57,15.06c0.59,4.85,0.85,9.71,1.09,14.59
		c0,0.09,0.14,0.09,0.14,0C314.8,390.36,313.64,379.97,310.97,370.5z"/>
	<path class="st5" d="M299.17,356.21c-9.27,9.98-15.19,24.26-15.87,37.85c0,0.1,0.14,0.1,0.15,0c0.7-7.06,2.16-13.87,4.93-20.43
		c2.7-6.39,6.45-12.03,10.83-17.37C299.25,356.23,299.2,356.18,299.17,356.21z"/>
	<path class="st5" d="M274.11,370.23c-11.62,15.94-18.38,35.78-18.73,55.52c0,0.07,0.11,0.07,0.11,0c0.89-20,7.22-39.05,18.65-55.5
		C274.15,370.23,274.12,370.21,274.11,370.23z"/>
	<path class="st5" d="M260.7,374.21c-4.17,5.56-7.24,11.82-9.02,18.54c-0.01,0.05,0.07,0.07,0.08,0.02
		c1.9-6.67,4.9-12.92,8.97-18.54C260.74,374.2,260.71,374.19,260.7,374.21z"/>
	<path class="st5" d="M271.14,438.46c-5.84,16.54-8.92,33.97-8.87,51.52c0,0.04,0.06,0.04,0.06,0c0.26-17.52,3.16-34.93,8.85-51.51
		C271.19,438.45,271.15,438.44,271.14,438.46z"/>
	<path class="st5" d="M282.08,499.45c-2.08,14.71-3.87,29.58-4.87,44.41c0,0.05,0.08,0.05,0.08,0c1.55-14.81,3-29.61,4.84-44.39
		C282.13,499.43,282.08,499.42,282.08,499.45z"/>
	<path class="st5" d="M247.69,464.16c-5.18,17.9-8.13,36.67-8.69,55.29c0,0.05,0.07,0.05,0.07,0c0.9-18.76,3.78-37.15,8.64-55.29
		C247.72,464.16,247.7,464.15,247.69,464.16z"/>
	<path class="st5" d="M223.69,525.57c-0.81,3.2-1.15,6.44-1.06,9.73c0,0.04,0.06,0.04,0.06,0c-0.03-3.29,0.33-6.51,1.05-9.72
		C223.75,525.55,223.69,525.54,223.69,525.57z"/>
	<path class="st5" d="M321.44,497.94c0-0.01-0.02-0.01-0.02,0c0.82,13.34,0.74,26.7-0.11,40.04c0,0.02,0.03,0.02,0.03,0
		C322.43,524.66,322.42,511.26,321.44,497.94z"/>
	<path class="st5" d="M319.75,432.02c0-0.01-0.02-0.01-0.02,0c0.26,8.46,0.46,16.94,0.98,25.39c0,0.04,0.07,0.04,0.07,0
		C320.64,448.95,320.16,440.47,319.75,432.02z"/>
	<path class="st5" d="M297.93,464.7c-0.17,6.31-0.31,12.62-0.37,18.93c0,0.04,0.06,0.04,0.06,0c0.17-6.31,0.27-12.62,0.33-18.92
		C297.96,464.68,297.93,464.68,297.93,464.7z"/>
	<path class="st5" d="M357.44,541.33c0-0.1-0.15-0.1-0.15,0c0.01,2.16,0.02,4.33,0.1,6.49c0,0.07,0.1,0.07,0.1,0
		C357.52,545.65,357.48,543.49,357.44,541.33z"/>
	<path class="st6" d="M223.41,470.64c2.85-21.21,5.71-42.46,10.79-63.24c2.55-10.41,5.72-20.84,11.52-29.85
		c8.29-12.88,21.78-22.15,36.61-25.97c14.83-3.82,30.87-2.29,45,3.6c5.2,2.17,10.2,4.93,14.46,8.63
		c13.35,11.57,18.73,29.9,22.24,47.21c1.81,8.95,3.66,18.09,4.95,27.12c1.41,9.89,2.39,21.41,4.81,42.47
		c2.66,23.17,2.18,43.42,6.08,66.41c-2.27,1.25-7.8,1.7-10.15,0.59c-3.51-1.66-7.56,0.19-11.31,1.2
		c-11.87,3.19-25.87-2.14-36.07,4.72c-0.74,0.5-1.51,1.08-2.41,1.07c-1.78-0.02-2.59-2.16-3.79-3.47c-2.1-2.29-5.7-2.09-8.81-1.84
		c-13.31,1.07-26.81-0.26-39.66-3.92c-3.52-1-7.21-2.19-10.77-1.34c-1.71,0.41-3.35,1.27-5.1,1.15c-2.73-0.19-4.98-2.77-7.71-2.58
		c-2.3,0.16-4.13,2.27-6.43,2.35c-1.63,0.06-3.09-0.91-4.51-1.71c-5.84-3.3-12.64-4.08-19.16-2.75
		C214.75,517.59,220.34,493.5,223.41,470.64z"/>
	<path class="st7" d="M336.93,361.56c1.9,11.74-16.33,0.77-35.74,1c-19.41,0.22-31.21,6.99-37.01,1.83
		c-5.8-5.16,18.05-16.35,37.84-14.85C323.86,351.2,336.41,358.35,336.93,361.56z"/>
	
		<ellipse transform="matrix(0.1636 -0.9865 0.9865 0.1636 54.4525 497.4589)" class="st8" cx="320.6" cy="216.62" rx="16.9" ry="3.86"/>
	
		<ellipse transform="matrix(0.1636 -0.9865 0.9865 0.1636 19.9966 518.5947)" class="st8" cx="315.84" cy="247.5" rx="10.76" ry="2.46"/>
	<path class="st9" d="M367.71,428.52c-0.01-0.05-0.02-0.1-0.03-0.15c-0.11,0.03-0.23,0.07-0.34,0.11c-0.17-0.05-0.35-0.07-0.55-0.04
		c-45.27,7.27-91.61,10.64-136.09-2.81c-0.06,0.21-0.11,0.42-0.18,0.63c-0.06,0.18-0.11,0.35-0.17,0.53
		c43.8,15.65,92,10.56,137.02,3.9c0.03,0,0.05-0.01,0.07-0.02c0.03,0.01,0.05,0.02,0.08,0.02c0.09-0.02,0.18-0.03,0.27-0.05
		c0.07,0,0.13-0.01,0.2-0.02C367.88,429.93,367.78,429.23,367.71,428.52z"/>
	<path class="st10" d="M369.13,439.65c-0.03,0.01-0.06,0.02-0.09,0.03c-0.58,0.08-1.14,0.21-1.69,0.4c-0.7,0.04-1.58,0.17-2.68,0.43
		c-45.61,11-91.63,10.64-136.13-2.82c-0.08-0.03-0.16-0.03-0.23-0.02c-0.11-0.06-0.22-0.1-0.34-0.15c-0.03,0.12-0.07,0.24-0.1,0.37
		c-0.04,0.25-0.09,0.51-0.15,0.76c0.12,0.08,0.24,0.13,0.39,0.15c0.03,0.02,0.05,0.04,0.09,0.05c43.81,15.67,89.7,16.61,137.05,3.91
		c1.4-0.37,2.41-0.79,3.07-1.19c0.14-0.05,0.27-0.1,0.41-0.15c0.17-0.06,0.33-0.11,0.5-0.16c0.01,0,0.01-0.01,0.02-0.01
		C369.21,440.72,369.17,440.18,369.13,439.65z"/>
	<path class="st11" d="M370.72,453.52c-0.19,0-0.38,0.04-0.55,0.1c-0.11,0.02-0.22,0.04-0.33,0.06c-0.14-0.02-0.28-0.03-0.44,0
		c-46.09,8.47-91.19,9.07-136.13-2.82c-2.05-0.54-3.72-0.94-4.92-1.18c-0.06-0.02-0.13-0.04-0.19-0.06
		c-0.73-0.27-1.46-0.54-2.18-0.84c-0.01,0.04-0.01,0.07-0.02,0.11c-0.01,0.19-0.03,0.38-0.06,0.57c0.11,0.05,0.21,0.09,0.32,0.13
		c0.5,0.35,2.61,1.15,6.71,2.42c45.17,14,90.77,13.11,137.05,3.91c0.03-0.01,0.05-0.02,0.07-0.02c0.03,0.01,0.05,0.02,0.09,0.01
		c0.27-0.05,0.52-0.16,0.78-0.26C370.83,454.95,370.76,454.23,370.72,453.52z"/>
</g>
<g id="face">
	
		<ellipse transform="matrix(0.9546 -0.2979 0.2979 0.9546 -109.1735 102.4384)" class="st12" cx="281.48" cy="409.39" rx="13.6" ry="17.95"/>
	
		<ellipse transform="matrix(0.2759 -0.9612 0.9612 0.2759 -162.8325 601.7875)" class="st12" cx="317.99" cy="408.97" rx="17.95" ry="13.6"/>
	<g>
		<g id="XMLID_3_">
			<g>
				<path class="st13" d="M326.82,436.36c0.27,0,0.44,0.35,0.23,0.53c-4.73,4.4-7.6,10.12-10.68,15.69
					c-1.33,2.41-2.72,4.8-4.34,7.02c-1.16,1.58-2.55,3.3-4.68,3.34c-2.6,0.07-4.63-2.09-7.08-2.61c-3.16-0.67-6.34,0.43-9.52,0.24
					c-2.08-0.12-4.09-0.77-5.46-2.41c-1.65-1.98-2.29-4.77-3.37-7.08c-2.6-5.55-6.29-10.22-10.49-14.64
					c-0.11-0.11,0.05-0.26,0.16-0.16c0.01,0.01,0.01,0.01,0.01,0.01c3.66,3.05,6.68,6.97,9.07,11.14c-0.04,0.08-0.05,0.17-0.01,0.28
					c0.23,0.63,0.61,1.23,0.96,1.8c0.07,0.11,0.16,0.17,0.26,0.19c0.09,0.18,0.2,0.36,0.3,0.55c1.13,2.3,1.79,5.01,3.28,7.1
					c1.83,2.56,5.01,2.78,7.88,2.53c2.76-0.24,5.57-0.81,8.25,0.19c2.66,1.01,5.38,3.55,8.12,1.22c1.99-1.7,3.41-4.39,4.72-6.62
					c0.65-1.12,1.28-2.25,1.9-3.38c0.1-0.02,0.19-0.08,0.24-0.2c0.1-0.21,0.19-0.44,0.27-0.66c0.06-0.03,0.13-0.07,0.17-0.16
					c0.13-0.22,0.21-0.46,0.26-0.7c0.26-0.48,0.52-0.95,0.78-1.43c2.23-4.02,4.64-7.98,8-11.16c-0.72-0.01-1.44-0.03-2.16-0.05
					c0.18,0.13,0.15,0.46-0.11,0.44c-8.67-0.63-17.32-1.39-26-1.74c-4.4-0.18-8.8-0.31-13.2-0.36c-4.27-0.06-8.55-0.11-12.74,0.85
					c-0.03,0.01-0.05,0-0.06-0.01c-0.08-0.03-0.09-0.17,0-0.19c3.95-1.08,8.03-1.06,12.11-1.04c4.4,0.02,8.8,0.1,13.19,0.26
					c8.52,0.3,17.09,0.7,25.57,1.63c-0.08-0.16-0.01-0.39,0.21-0.39C324.18,436.36,325.5,436.36,326.82,436.36z"/>
				<path class="st13" d="M323.89,436.93c0.72,0.02,1.44,0.04,2.16,0.05c-3.35,3.18-5.77,7.14-8,11.16
					c-0.26,0.48-0.53,0.95-0.78,1.43c-0.05,0.24-0.13,0.48-0.26,0.7c-0.05,0.09-0.11,0.13-0.17,0.16c-0.08,0.22-0.16,0.45-0.27,0.66
					c-0.06,0.12-0.15,0.19-0.24,0.2c-0.62,1.14-1.24,2.27-1.9,3.38c-1.31,2.23-2.72,4.92-4.72,6.62c-2.75,2.33-5.47-0.21-8.12-1.22
					c-2.67-1.01-5.49-0.44-8.25-0.19c-2.88,0.25-6.06,0.03-7.88-2.53c-1.49-2.09-2.15-4.8-3.28-7.1c-0.09-0.19-0.2-0.37-0.3-0.55
					c-0.1-0.02-0.19-0.08-0.26-0.19c-0.35-0.57-0.73-1.16-0.96-1.8c-0.04-0.11-0.03-0.2,0.01-0.28c-2.39-4.17-5.41-8.09-9.07-11.14
					l0.17-0.19c0.01,0.01,0.04,0.01,0.06,0.01c4.2-0.95,8.47-0.9,12.74-0.85c4.4,0.06,8.8,0.18,13.2,0.36
					c8.69,0.35,17.33,1.11,26,1.74C324.05,437.39,324.07,437.05,323.89,436.93z"/>
			</g>
			<g>
			</g>
		</g>
		<path d="M305.34,448.03c-0.03,0-0.03,0.05,0,0.06c4.19,0.43,8.24,1.29,12.32,2.34c0.03-0.13,0.06-0.27,0.08-0.4
			C313.71,448.81,309.49,448.21,305.34,448.03z"/>
		<path d="M295.06,447.12c0.09,0,0.09-0.19,0-0.2c-4.8-0.42-9.88-0.07-14.58,1.54c0.02,0.07,0.05,0.14,0.08,0.2
			C285.4,447.76,290.13,447.05,295.06,447.12z"/>
		<path class="st1" d="M271.59,436.27c3.25,3.1,5.54,6.97,8.06,10.61c2.53,3.66,3.46,9.4,6.31,12.23"/>
		<path class="st1" d="M285.73,458.93c1.23,1.05,2.07,1.53,3.69,1.57s3.23-0.18,4.85-0.32c7.83-0.66,8.61,2.18,13.36,2.55
			c2,0.16,3.49-1.75,4.58-3.44c2.78-4.33,5.55-8.65,8.07-13.14c1.97-3.51,4.16-7.03,7.14-9.78c-1.78-0.1-3.06,0.44-5.53,0.27
			c-3.64-0.24-7.27-0.34-10.89-0.73c-4.09-0.44-8.2-0.47-12.31-0.5c-9.14-0.07-18.37-1.6-27.39,0.91"/>
	</g>
	<circle class="st14" cx="313.16" cy="419.03" r="6.76"/>
	<circle class="st14" cx="285.73" cy="419.47" r="6.76"/>
</g>
</svg>
