<?xml version="1.0" encoding="utf-8"?>
<!-- Generator: Adobe Illustrator 23.0.3, SVG Export Plug-In . SVG Version: 6.00 Build 0)  -->
<svg version="1.1" xmlns="http://www.w3.org/2000/svg" xmlns:xlink="http://www.w3.org/1999/xlink" x="0px" y="0px"
	 viewBox="0 0 272 513" style="enable-background:new 0 0 272 513;" xml:space="preserve">
<style type="text/css">
	.st0{fill:#754C28;}
	.st1{fill:none;stroke:#231F20;stroke-miterlimit:10;}
	.st2{fill:#754C28;stroke:#231F20;stroke-width:1.0006;stroke-linecap:round;stroke-linejoin:round;stroke-miterlimit:10;}
	.st3{fill:#754C28;stroke:#231F20;stroke-miterlimit:10;}
	.st4{fill:#FFDD15;}
	.st5{fill:#F16522;}
	.st6{fill:none;stroke:#231F20;stroke-width:0.5;stroke-linecap:round;stroke-linejoin:round;}
	.st7{opacity:0.67;fill:#FAAF40;}
	.st8{opacity:0.59;fill:#FFFFFF;}
	.st9{fill:#BE1E2D;}
	.st10{fill:#25A9E0;}
	.st11{fill:#009345;}
	.st12{fill:#FFFFFF;stroke:#231F20;stroke-miterlimit:10;}
	.st13{fill:#231F20;stroke:#231F20;stroke-miterlimit:10;}
	.st14{fill:#231F20;stroke:#231F20;stroke-linecap:round;stroke-miterlimit:10;}
</style>
<g id="Layer_1">
</g>
<g id="Layer_7">
	<g>
		<g id="XMLID_9_">
			<g>
				<path class="st0" d="M158.03,77.66c6.74,2.84,7.6,11.9,7.27,19.2c-2.67,59.02-15.21,117.2-19.58,176.13
					c-0.33,4.39-1.76,12.96-8.23,11.26c-4.69-1.23-4.62-8.23-5.28-12.16c-2.68-15.98-2.05-32.15-1.06-48.26
					c2.79-45.44,7.33-90.76,13.59-135.85c0.29-2.12,0.61-4.3,1.62-6.19C148.5,77.79,153.86,75.89,158.03,77.66z"/>
			</g>
			<g>
				<path class="st1" d="M131.16,223.82c2.79-45.44,7.33-90.76,13.59-135.85c0.29-2.12,0.61-4.3,1.62-6.19
					c2.14-3.99,7.5-5.89,11.67-4.13c6.74,2.84,7.6,11.9,7.27,19.2c-2.67,59.02-15.21,117.2-19.58,176.13
					c-0.33,4.39-1.76,12.96-8.23,11.26c-4.69-1.23-4.62-8.23-5.28-12.16C129.54,256.1,130.16,239.93,131.16,223.82z"/>
			</g>
		</g>
		<path class="st2" d="M31.18,412.53c1.78-1.05,3.91-1.51,5.78-2.38c1.66-0.77,3.03-2.14,3.82-3.8l3.32-0.11
			c-2.39,3.2-5.46,6.9-6.56,10.74c-0.49,1.7-0.7,3.48-1.3,5.14c-0.87,2.39-2.67,4.56-5.11,5.28s-5.44-0.38-6.38-2.74
			C23.84,422.34,26.23,415.32,31.18,412.53"/>
		<path class="st3" d="M46.75,400.78c-0.76,1.12-1.56,2.25-2.66,3.04c-1.72,1.23-3.95,1.46-6.05,1.65c-3,0.27-6,0.53-8.99,0.8
			c-2.24,0.2-4.63,0.46-6.33,1.93c-1.73,1.5-2.33,3.95-2.36,6.24c-0.06,3.59,1.61,7.75,5.11,8.5c2.27,0.49,4.62-0.64,6.34-2.2
			c1.72-1.56,3-3.55,4.55-5.28c2.45-2.73,5.62-4.81,9.1-5.97c1.23-0.41,2.59-0.71,3.82-0.31c1.79,0.58,2.83,2.42,3.54,4.17
			c1.42,3.45,2.29,7.12,2.57,10.83c0.05,0.69,0.11,1.45,0.57,1.97c0.72,0.83,2.14,0.64,2.96-0.1s1.17-1.84,1.5-2.89
			c0.94-3,1.88-6,2.82-9c0.19-0.61,0.39-1.26,0.27-1.89c-0.35-1.91-2.87-2.23-4.65-2.98c-3.13-1.32-4.67-4.98-4.78-8.38
			c-0.16-4.94,2.01-9.67,4.68-13.84c2.53-3.95,8.44-9.42,9.04-14.2c0.5-3.95-3.64-1.59-5.38,0.04c-3.41,3.19-4.78,9.1-6.91,13.19
			C52.89,391.15,49.96,396.06,46.75,400.78z"/>
		<g id="XMLID_8_">
			<g>
				<path class="st4" d="M208.72,403.87c2.66,23.16,2.18,43.41,6.08,66.4c-2.27,1.25-7.8,1.71-10.15,0.6
					c-3.51-1.66-7.56,0.19-11.31,1.2c-11.86,3.19-25.87-2.15-36.06,4.71c-0.74,0.5-1.52,1.08-2.41,1.07
					c-1.78-0.02-2.59-2.17-3.79-3.47c-2.11-2.3-5.71-2.09-8.81-1.85c-13.31,1.07-26.82-0.26-39.66-3.91c-3.52-1-7.2-2.19-10.76-1.34
					c-1.7,0.4-3.35,1.27-5.1,1.15c-2.73-0.19-4.98-2.77-7.72-2.57c-2.29,0.16-4.12,2.26-6.42,2.35c-1.63,0.06-3.09-0.9-4.51-1.71
					c-5.84-3.29-12.65-4.08-19.16-2.74c0.75-22.91,6.34-47,9.41-69.86c2.85-21.21,5.7-42.46,10.79-63.25
					c2.55-10.4,5.72-20.84,11.52-29.85c8.29-12.88,21.77-22.15,36.61-25.97c14.83-3.82,30.87-2.3,45,3.6
					c5.21,2.17,10.2,4.94,14.46,8.63c13.35,11.57,18.74,29.9,22.24,47.21c1.81,8.95,3.67,18.09,4.96,27.12
					C205.32,371.28,206.3,382.8,208.72,403.87z"/>
			</g>
			<g>
				<path class="st1" d="M58.35,393.89c2.85-21.21,5.7-42.46,10.79-63.25c2.55-10.4,5.72-20.84,11.52-29.85
					c8.29-12.88,21.77-22.15,36.61-25.97c14.83-3.82,30.87-2.3,45,3.6c5.21,2.17,10.2,4.94,14.46,8.63
					c13.35,11.57,18.74,29.9,22.24,47.21c1.81,8.95,3.67,18.09,4.96,27.12c1.41,9.89,2.38,21.41,4.81,42.48
					c2.66,23.16,2.18,43.41,6.08,66.4c-2.27,1.25-7.8,1.71-10.15,0.6c-3.51-1.66-7.56,0.19-11.31,1.2
					c-11.86,3.19-25.87-2.15-36.06,4.71c-0.74,0.5-1.52,1.08-2.41,1.07c-1.78-0.02-2.59-2.17-3.79-3.47
					c-2.11-2.3-5.71-2.09-8.81-1.85c-13.31,1.07-26.82-0.26-39.66-3.91c-3.52-1-7.2-2.19-10.76-1.34c-1.7,0.4-3.35,1.27-5.1,1.15
					c-2.73-0.19-4.98-2.77-7.72-2.57c-2.29,0.16-4.12,2.26-6.42,2.35c-1.63,0.06-3.09-0.9-4.51-1.71
					c-5.84-3.29-12.65-4.08-19.16-2.74C49.69,440.84,55.28,416.75,58.35,393.89z"/>
			</g>
		</g>
		<path class="st5" d="M162.44,285.52c-0.03-0.02-0.07,0.03-0.04,0.05c5.85,5.09,10.35,11.2,13.61,18.23
			c3.65,7.86,5.56,16.29,7.27,24.74c0.02,0.1,0.17,0.06,0.15-0.04C180.67,313.01,175.62,295.44,162.44,285.52z"/>
		<path class="st5" d="M189.23,374.33c-0.49-6.67-1.19-13.33-2.32-19.92c0-0.01-0.01,0-0.01,0c1.51,11.69,2.69,23.4,2.86,35.19
			c0.18,12-0.48,24.02-1.95,35.93c-0.83,6.75-2.03,13.42-3.19,20.12c-0.01,0.08,0.1,0.11,0.12,0.03c2.65-11.56,3.97-23.54,4.7-35.36
			C190.16,398.34,190.1,386.3,189.23,374.33z"/>
		<path class="st5" d="M204.03,423.88c0-0.03-0.04-0.02-0.04,0c-0.59,6.29-0.64,12.69,0.25,18.96c0.02,0.12,0.2,0.12,0.19,0
			C203.93,436.51,203.66,430.23,204.03,423.88z"/>
		<path class="st5" d="M174.36,381.64c-0.07-1.77-0.17-3.53-0.29-5.3c-0.27-4.57-0.58-9.15-0.97-13.7c0-0.04-0.06-0.04-0.06,0
			c0.06,1.73,0.15,3.45,0.23,5.18c-0.14-1.19-0.29-2.38-0.46-3.56c0-0.02-0.04-0.02-0.03,0c1.1,12.43,1.69,24.8,1.31,37.28
			c0,0.05,0.08,0.05,0.08,0c0.27-4.7,0.39-9.44,0.34-14.18c0.1,1.3,0.19,2.6,0.28,3.9c0,0.04,0.06,0.04,0.06,0
			C174.7,388.05,174.53,384.85,174.36,381.64z"/>
		<path class="st5" d="M145.91,293.76c-0.01-0.05-0.08-0.03-0.07,0.02c0.93,5.02,1.95,9.99,2.57,15.06
			c0.59,4.85,0.85,9.71,1.09,14.59c0,0.09,0.14,0.09,0.14,0C149.74,313.62,148.58,303.22,145.91,293.76z"/>
		<path class="st5" d="M134.11,279.47c-9.27,9.98-15.19,24.26-15.87,37.85c-0.01,0.1,0.14,0.1,0.15,0
			c0.7-7.06,2.16-13.87,4.93-20.43c2.7-6.39,6.45-12.03,10.83-17.37C134.19,279.48,134.14,279.43,134.11,279.47z"/>
		<path class="st5" d="M109.05,293.48C97.43,309.42,90.67,329.26,90.32,349c0,0.07,0.11,0.07,0.11,0c0.89-20,7.22-39.05,18.65-55.5
			C109.09,293.48,109.06,293.47,109.05,293.48z"/>
		<path class="st5" d="M95.64,297.46c-4.17,5.56-7.24,11.82-9.02,18.54c-0.01,0.05,0.07,0.07,0.08,0.02
			c1.9-6.67,4.9-12.92,8.97-18.54C95.68,297.46,95.65,297.45,95.64,297.46z"/>
		<path class="st5" d="M106.09,361.72c-5.84,16.54-8.92,33.97-8.87,51.52c0,0.04,0.06,0.04,0.06,0c0.26-17.52,3.16-34.93,8.85-51.51
			C106.13,361.71,106.09,361.7,106.09,361.72z"/>
		<path class="st5" d="M117.02,422.71c-2.08,14.71-3.87,29.58-4.87,44.41c0,0.05,0.08,0.05,0.08,0c1.55-14.81,3-29.61,4.84-44.39
			C117.08,422.69,117.02,422.67,117.02,422.71z"/>
		<path class="st5" d="M82.63,387.42c-5.18,17.9-8.13,36.67-8.69,55.29c0,0.05,0.07,0.05,0.07,0c0.9-18.76,3.78-37.15,8.64-55.29
			C82.66,387.41,82.64,387.41,82.63,387.42z"/>
		<path class="st5" d="M156.39,421.19c0-0.01-0.02-0.01-0.02,0c0.82,13.34,0.74,26.7-0.11,40.04c0,0.02,0.03,0.02,0.03,0
			C157.37,447.91,157.36,434.52,156.39,421.19z"/>
		<path class="st5" d="M154.69,355.27c0-0.01-0.02-0.01-0.02,0c0.26,8.46,0.46,16.94,0.98,25.39c0,0.04,0.07,0.04,0.07,0
			C155.58,372.2,155.11,363.73,154.69,355.27z"/>
		<path class="st5" d="M132.88,387.95c-0.17,6.31-0.31,12.62-0.37,18.93c0,0.04,0.06,0.04,0.06,0c0.17-6.31,0.27-12.62,0.33-18.92
			C132.9,387.94,132.88,387.94,132.88,387.95z"/>
		<path class="st5" d="M192.38,464.59c0-0.1-0.15-0.1-0.15,0c0.01,2.16,0.02,4.33,0.1,6.49c0,0.07,0.1,0.07,0.1,0
			C192.46,468.91,192.42,466.75,192.38,464.59z"/>
		<path class="st6" d="M58.35,393.89c2.85-21.21,5.71-42.46,10.79-63.24c2.55-10.41,5.72-20.84,11.52-29.85
			c8.29-12.88,21.78-22.15,36.61-25.97c14.83-3.82,30.87-2.29,45,3.6c5.2,2.17,10.2,4.93,14.46,8.63
			c13.35,11.57,18.73,29.9,22.24,47.21c1.81,8.95,3.66,18.09,4.95,27.12c1.41,9.89,2.39,21.41,4.81,42.47
			c2.66,23.17,2.18,43.42,6.08,66.41c-2.27,1.25-7.8,1.7-10.15,0.59c-3.51-1.66-7.56,0.19-11.31,1.2
			c-11.87,3.19-25.87-2.14-36.07,4.72c-0.74,0.5-1.51,1.08-2.41,1.07c-1.78-0.02-2.59-2.16-3.79-3.47c-2.1-2.29-5.7-2.09-8.81-1.84
			c-13.31,1.07-26.81-0.26-39.66-3.92c-3.52-1-7.21-2.19-10.77-1.34c-1.71,0.41-3.35,1.27-5.1,1.15c-2.73-0.19-4.98-2.77-7.71-2.58
			c-2.3,0.16-4.13,2.27-6.43,2.35c-1.63,0.06-3.09-0.91-4.51-1.71c-5.84-3.3-12.64-4.08-19.16-2.75
			C49.69,440.85,55.28,416.75,58.35,393.89z"/>
		<path class="st7" d="M171.87,284.82c1.9,11.74-16.33,0.77-35.74,1c-19.41,0.22-31.21,6.99-37.01,1.83
			c-5.8-5.16,18.05-16.35,37.84-14.85C158.8,274.45,171.35,281.61,171.87,284.82z"/>
		
			<ellipse transform="matrix(0.1636 -0.9865 0.9865 0.1636 -7.8935 270.4349)" class="st8" cx="155.54" cy="139.87" rx="16.9" ry="3.86"/>
		
			<ellipse transform="matrix(0.1636 -0.9865 0.9865 0.1636 -42.3494 291.5706)" class="st8" cx="150.78" cy="170.76" rx="10.76" ry="2.46"/>
		<path class="st9" d="M202.66,351.78c-0.01-0.05-0.02-0.1-0.03-0.15c-0.11,0.03-0.23,0.07-0.34,0.11
			c-0.17-0.05-0.35-0.07-0.55-0.04c-45.27,7.27-91.61,10.64-136.09-2.81c-0.06,0.21-0.11,0.42-0.18,0.63
			c-0.06,0.18-0.11,0.35-0.17,0.53c43.8,15.65,92,10.56,137.02,3.9c0.03,0,0.05-0.01,0.07-0.02c0.03,0.01,0.05,0.02,0.08,0.02
			c0.09-0.02,0.18-0.03,0.27-0.05c0.07,0,0.13-0.01,0.2-0.02C202.83,353.18,202.72,352.48,202.66,351.78z"/>
		<path class="st10" d="M204.08,362.91c-0.03,0.01-0.06,0.02-0.09,0.03c-0.58,0.08-1.14,0.21-1.69,0.4
			c-0.7,0.04-1.58,0.17-2.68,0.43c-45.61,11-91.63,10.64-136.13-2.82c-0.08-0.03-0.16-0.03-0.23-0.02c-0.11-0.06-0.22-0.1-0.34-0.15
			c-0.03,0.12-0.07,0.24-0.1,0.37c-0.04,0.25-0.09,0.51-0.15,0.76c0.12,0.08,0.24,0.13,0.39,0.15c0.03,0.02,0.05,0.04,0.09,0.05
			c43.81,15.67,89.7,16.61,137.05,3.91c1.4-0.37,2.41-0.79,3.07-1.19c0.14-0.05,0.27-0.1,0.41-0.15c0.17-0.06,0.33-0.11,0.5-0.16
			c0.01,0,0.01-0.01,0.02-0.01C204.15,363.97,204.11,363.44,204.08,362.91z"/>
		<path class="st11" d="M205.67,376.77c-0.19,0-0.38,0.04-0.55,0.1c-0.11,0.02-0.22,0.04-0.33,0.06c-0.14-0.02-0.28-0.03-0.44,0
			c-46.09,8.47-91.19,9.07-136.13-2.82c-2.05-0.54-3.72-0.94-4.92-1.18c-0.06-0.02-0.13-0.04-0.19-0.06
			c-0.73-0.27-1.46-0.54-2.18-0.84c-0.01,0.04-0.01,0.07-0.02,0.11c-0.01,0.19-0.03,0.38-0.06,0.57c0.11,0.05,0.21,0.09,0.32,0.13
			c0.5,0.35,2.61,1.15,6.71,2.42c45.17,14,90.77,13.11,137.05,3.91c0.03-0.01,0.05-0.02,0.07-0.02c0.03,0.01,0.05,0.02,0.09,0.01
			c0.27-0.05,0.52-0.16,0.78-0.26C205.77,378.2,205.7,377.49,205.67,376.77z"/>
		<path class="st12" d="M129.41,328.59c2.95,9.46-0.47,18.95-7.64,21.18c-7.17,2.24-15.38-3.62-18.33-13.08s1.53-13.19,8.71-15.43
			C119.32,319.03,126.46,319.13,129.41,328.59z"/>
		<path class="st12" d="M139.86,328.47c-2.73,9.53,0.9,18.93,8.12,21c7.22,2.07,15.29-3.97,18.03-13.5
			c2.73-9.53-5.85-1.68-13.08-3.75C145.71,330.15,142.6,318.94,139.86,328.47z"/>
		<circle class="st13" cx="148.1" cy="342.28" r="6.76"/>
		<circle class="st13" cx="120.68" cy="342.73" r="6.76"/>
		<line class="st14" x1="126.17" y1="372.89" x2="148.64" y2="364.72"/>
		<g>
			<g id="XMLID_3_">
				<g>
					<path class="st0" d="M195.85,305.93c-2.98-1.9-7.71-1.22-9.97-2.55c-2.27-1.33-3.88-3.53-5.2-5.79
						c-0.6-1.01-1.24-2.15-2.36-2.53c-1.95-0.67-3.92,1.29-5.97,1.11c-1.67-0.15-2.89-1.69-3.43-3.27
						c-1.07-3.11-0.09-6.64,2.07-9.13c0.84-0.97,1.87-1.79,3.01-2.35c4.12-2.03,9.36-1.1,12.9,1.81c0.47,0.39,0.92,0.81,1.34,1.27
						c2.68,2.9,4.1,6.89,4.17,10.85c0.02,1.34-0.08,2.75,0.47,3.97c0.53,1.15,1.57,1.96,2.58,2.73c7.37,5.65,14.75,11.3,22.12,16.94
						c1.04,0.8,2.16,1.72,2.44,3.02c0.3,1.46-0.59,2.87-1.44,4.09c-5.39,7.76-10.78,15.52-16.17,23.28
						c-1.07-0.39-1.36-1.58-1.18-2.69c0.18-1.11,0.86-2.07,1.52-2.98c3.9-5.41,7.79-10.8,11.69-16.21c1.21-1.67,2.47-3.84,1.51-5.68
						c-0.45-0.85-1.28-1.41-2.1-1.94C207.32,315.64,205.22,312.3,195.85,305.93z"/>
					<path class="st0" d="M188.25,284.5c-0.42-0.45-0.87-0.87-1.34-1.27c-3.54-2.91-8.79-3.85-12.9-1.81
						c-1.14,0.56-2.17,1.38-3.01,2.35l-0.44-0.08c-1.02-1.09-2.06-2.23-2.53-3.64c-0.45-1.39,0.15-3.33,1.36-4.15
						c0.02-0.02,0.06-0.04,0.08-0.06c4.27-2.87,7.98-2.96,9.84-2.47C183.97,274.61,186.8,279.88,188.25,284.5z"/>
				</g>
				<g>
					<path class="st1" d="M195.85,305.93c-2.98-1.9-7.71-1.22-9.97-2.55c-2.27-1.33-3.88-3.53-5.2-5.79
						c-0.6-1.01-1.24-2.15-2.36-2.53c-1.95-0.67-3.92,1.29-5.97,1.11c-1.67-0.15-2.89-1.69-3.43-3.27
						c-1.07-3.11-0.09-6.64,2.07-9.13c0.84-0.97,1.87-1.79,3.01-2.35c4.12-2.03,9.36-1.1,12.9,1.81c0.47,0.39,0.92,0.81,1.34,1.27
						c2.68,2.9,4.1,6.89,4.17,10.85c0.02,1.34-0.08,2.75,0.47,3.97c0.53,1.15,1.57,1.96,2.58,2.73c7.37,5.65,14.75,11.3,22.12,16.94
						c1.04,0.8,2.16,1.72,2.44,3.02c0.3,1.46-0.59,2.87-1.44,4.09c-5.39,7.76-10.78,15.52-16.17,23.28
						c-1.07-0.39-1.36-1.58-1.18-2.69c0.18-1.11,0.86-2.07,1.52-2.98c3.9-5.41,7.79-10.8,11.69-16.21c1.21-1.67,2.47-3.84,1.51-5.68
						c-0.45-0.85-1.28-1.41-2.1-1.94C207.32,315.64,205.22,312.3,195.85,305.93"/>
					<path class="st1" d="M169.39,275.9c-0.08,0.05-0.16,0.1-0.24,0.16"/>
					<path class="st1" d="M188.32,284.73c-0.03-0.08-0.05-0.15-0.08-0.23c-1.44-4.62-4.28-9.89-8.94-11.12
						c-1.85-0.49-5.57-0.4-9.84,2.47"/>
					<path class="st1" d="M169.47,275.84c-0.02,0.02-0.06,0.04-0.08,0.06c-1.21,0.82-1.81,2.77-1.36,4.15
						c0.47,1.41,1.5,2.54,2.53,3.64"/>
				</g>
			</g>
		</g>
	</g>
</g>
</svg>
