<?xml version="1.0" encoding="utf-8"?>
<!-- Generator: Adobe Illustrator 23.0.3, SVG Export Plug-In . SVG Version: 6.00 Build 0)  -->
<svg version="1.1" xmlns="http://www.w3.org/2000/svg" xmlns:xlink="http://www.w3.org/1999/xlink" x="0px" y="0px"
	 viewBox="0 0 1000 416" style="enable-background:new 0 0 1000 416;" xml:space="preserve">
<style type="text/css">
	.st0{fill:#754C28;stroke:#231F20;stroke-width:1.0006;stroke-linecap:round;stroke-linejoin:round;stroke-miterlimit:10;}
	.st1{fill:#754C28;}
	.st2{fill:none;stroke:#231F20;stroke-miterlimit:10;}
	.st3{fill:#754C28;stroke:#231F20;stroke-miterlimit:10;}
	.st4{fill:#FFDD15;}
	.st5{fill:#F16522;}
	.st6{fill:none;stroke:#231F20;stroke-width:0.5;stroke-linecap:round;stroke-linejoin:round;}
	.st7{opacity:0.67;fill:#FAAF40;}
	.st8{opacity:0.59;fill:#FFFFFF;}
	.st9{fill:#BE1E2D;}
	.st10{fill:#25A9E0;}
	.st11{fill:#009345;}
	.st12{fill:#FFFFFF;stroke:#231F20;stroke-miterlimit:10;}
	.st13{fill:#FFFFFF;}
	.st14{fill:#231F20;}
	.st15{fill:#231F20;stroke:#231F20;stroke-miterlimit:10;}
	.st16{fill:#231F20;stroke:#231F20;stroke-linecap:round;stroke-miterlimit:10;}
</style>
<g id="Layer_1">
</g>
<g id="Layer_6">
</g>
<g id="hands">
	<path class="st0" d="M263.21,336.57c1.88-0.87,4.04-1.11,5.99-1.79c1.73-0.6,3.23-1.83,4.18-3.39l3.32,0.23
		c-2.7,2.94-6.13,6.32-7.6,10.03c-0.65,1.64-1.04,3.39-1.81,4.99c-1.1,2.29-3.12,4.26-5.61,4.74c-2.5,0.47-5.38-0.92-6.07-3.37
		C254.91,345.6,258,338.86,263.21,336.57"/>
	<path class="st0" d="M506.26,348.02c1.78-1.05,3.91-1.51,5.78-2.38c1.66-0.77,3.03-2.14,3.82-3.8l3.32-0.11
		c-2.39,3.2-5.46,6.9-6.56,10.74c-0.49,1.7-0.7,3.48-1.3,5.14c-0.87,2.39-2.67,4.56-5.11,5.28s-5.44-0.38-6.38-2.74
		C498.92,357.83,501.31,350.81,506.26,348.02"/>
</g>
<g id="Layer_5">
</g>
<g id="face">
	<g>
		<g id="XMLID_5_">
			<g>
				<path class="st1" d="M170.8,14.65c6.73,2.85,7.6,11.9,7.27,19.21c-2.67,59.02-15.21,117.2-19.58,176.12
					c-0.32,4.4-1.76,12.96-8.23,11.27c-4.69-1.23-4.62-8.23-5.28-12.16c-2.67-15.98-2.04-32.15-1.06-48.26
					c2.8-45.44,7.33-90.77,13.59-135.86c0.29-2.12,0.61-4.29,1.62-6.18C161.26,14.79,166.63,12.89,170.8,14.65z"/>
			</g>
			<g>
				<path class="st2" d="M143.92,160.82c2.8-45.44,7.33-90.77,13.59-135.86c0.29-2.12,0.61-4.29,1.62-6.18
					c2.13-4,7.5-5.89,11.67-4.14c6.73,2.85,7.6,11.9,7.27,19.21c-2.67,59.02-15.21,117.2-19.58,176.12
					c-0.32,4.4-1.76,12.96-8.23,11.27c-4.69-1.23-4.62-8.23-5.28-12.16C142.31,193.1,142.93,176.93,143.92,160.82z"/>
			</g>
		</g>
		<path class="st3" d="M229.74,231.59c0.83-1.78,1.66-3.62,1.76-5.58c0.3-5.52-4.94-9.63-6.98-14.77c-0.62-1.57-0.95-3.34-0.43-4.95
			c0.52-1.61,2.06-2.96,3.74-2.85c0.7,0.04,1.38,0.33,1.96,0.72c3.35,2.22,3.85,7.4,7.36,9.35c0.32,0.18,0.69,0.33,1.05,0.27
			c0.48-0.08,0.82-0.49,1.09-0.9c1.68-2.5,2.3-5.54,2.89-8.5c0.59-2.95,1.21-5.99,2.88-8.5s4.67-4.38,7.63-3.8
			c3.35,0.65,5.5,4.33,5.26,7.73c-0.24,3.4-2.38,6.41-4.98,8.62s-5.67,3.77-8.56,5.58c-0.89,0.56-1.84,1.26-2,2.29
			c-0.19,1.18,0.81,2.29,1.95,2.66c1.14,0.37,2.38,0.17,3.56-0.02c2.13-0.35,4.25-0.7,6.38-1.05c1.41-0.23,2.9-0.46,4.24,0.05
			c3.01,1.15,3.56,5.11,3.56,8.33c0,2.7-0.57,6.1-3.18,6.78c-1.56,0.4-3.16-0.43-4.47-1.36c-2.45-1.73-4.6-3.89-7.2-5.4
			c-2.6-1.5-5.89-2.27-8.6-0.98c-2.67,1.28-4.09,4.18-5.35,6.86c-6.21,13.2-13.19,26.04-20.89,38.43c-0.81,1.31-1.74,2.69-3.18,3.22
			c-1.16,0.42-3.14-0.11-3.35-1.53c-0.19-1.31,2.71-4.22,3.48-5.32c2.57-3.71,5.04-7.48,7.41-11.33
			C221.54,247.88,225.88,239.84,229.74,231.59z"/>
		<path class="st0" d="M39.54,314.74c2.06-0.21,4.18,0.27,6.25,0.26c1.83-0.01,3.65-0.67,5.06-1.85l3.06,1.3
			c-3.51,1.9-7.85,3.98-10.46,7c-1.15,1.34-2.09,2.87-3.34,4.13c-1.79,1.81-4.34,3.02-6.85,2.65c-2.51-0.37-4.78-2.62-4.64-5.16
			C28.76,320.57,33.87,315.2,39.54,314.74"/>
		<path class="st3" d="M55.12,305.76c-1.16,0.7-2.36,1.39-3.69,1.64c-2.08,0.4-4.19-0.33-6.19-1.04c-2.83-1.01-5.67-2.03-8.5-3.04
			c-2.11-0.76-4.4-1.52-6.55-0.9c-2.2,0.64-3.77,2.61-4.76,4.68c-1.56,3.23-1.79,7.71,1.08,9.87c1.86,1.4,4.46,1.36,6.68,0.66
			s4.21-1.97,6.35-2.88c3.37-1.45,7.12-2.01,10.76-1.61c1.29,0.14,2.65,0.43,3.6,1.32c1.39,1.28,1.55,3.38,1.47,5.27
			c-0.16,3.72-0.9,7.42-2.2,10.91c-0.24,0.65-0.51,1.36-0.31,2.03c0.31,1.05,1.68,1.47,2.73,1.15s1.84-1.18,2.57-1.99
			c2.11-2.33,4.22-4.66,6.33-6.99c0.43-0.48,0.88-0.98,1.04-1.6c0.49-1.88-1.67-3.22-2.97-4.65c-2.29-2.51-2.15-6.48-0.83-9.62
			c1.93-4.55,5.88-7.94,10.05-10.6c3.95-2.52,11.61-5.02,14.16-9.1c2.11-3.38-2.64-2.97-4.9-2.22c-4.43,1.47-8.16,6.26-11.8,9.08
			C64.73,299.6,60.01,302.82,55.12,305.76z"/>
		<g id="XMLID_2_">
			<g>
				<path class="st4" d="M221.48,340.86c2.66,23.17,2.19,43.42,6.08,66.41c-2.27,1.25-7.8,1.7-10.14,0.59
					c-3.51-1.66-7.56,0.2-11.31,1.2c-11.87,3.19-25.88-2.14-36.07,4.72c-0.74,0.5-1.51,1.08-2.41,1.07
					c-1.78-0.02-2.59-2.16-3.79-3.47c-2.1-2.29-5.7-2.09-8.81-1.84c-13.31,1.07-26.81-0.26-39.66-3.91c-3.52-1-7.21-2.19-10.77-1.34
					c-1.7,0.41-3.35,1.27-5.1,1.15c-2.73-0.19-4.98-2.77-7.71-2.58c-2.3,0.17-4.13,2.27-6.43,2.35c-1.63,0.06-3.09-0.9-4.51-1.71
					c-5.83-3.3-12.64-4.08-19.15-2.75c0.75-22.91,6.34-47,9.4-69.86c2.85-21.21,5.71-42.46,10.79-63.25
					c2.55-10.41,5.72-20.84,11.52-29.85c8.29-12.88,21.78-22.16,36.61-25.98c14.83-3.82,30.87-2.29,45,3.61
					c5.21,2.16,10.21,4.93,14.46,8.62c13.35,11.58,18.73,29.9,22.24,47.22c1.81,8.94,3.66,18.08,4.95,27.12
					C218.09,308.28,219.07,319.8,221.48,340.86z"/>
			</g>
			<g>
				<path class="st2" d="M71.11,330.89c2.85-21.21,5.71-42.46,10.79-63.25c2.55-10.41,5.72-20.84,11.52-29.85
					c8.29-12.88,21.78-22.16,36.61-25.98c14.83-3.82,30.87-2.29,45,3.61c5.21,2.16,10.21,4.93,14.46,8.62
					c13.35,11.58,18.73,29.9,22.24,47.22c1.81,8.94,3.66,18.08,4.95,27.12c1.41,9.89,2.39,21.41,4.81,42.47
					c2.66,23.17,2.19,43.42,6.08,66.41c-2.27,1.25-7.8,1.7-10.14,0.59c-3.51-1.66-7.56,0.2-11.31,1.2
					c-11.87,3.19-25.88-2.14-36.07,4.72c-0.74,0.5-1.51,1.08-2.41,1.07c-1.78-0.02-2.59-2.16-3.79-3.47
					c-2.1-2.29-5.7-2.09-8.81-1.84c-13.31,1.07-26.81-0.26-39.66-3.91c-3.52-1-7.21-2.19-10.77-1.34c-1.7,0.41-3.35,1.27-5.1,1.15
					c-2.73-0.19-4.98-2.77-7.71-2.58c-2.3,0.17-4.13,2.27-6.43,2.35c-1.63,0.06-3.09-0.9-4.51-1.71c-5.83-3.3-12.64-4.08-19.15-2.75
					C62.45,377.85,68.04,353.76,71.11,330.89z"/>
			</g>
		</g>
		<path class="st5" d="M175.2,222.52c-0.03-0.02-0.07,0.03-0.04,0.05c5.85,5.09,10.35,11.2,13.61,18.23
			c3.65,7.86,5.56,16.29,7.27,24.74c0.02,0.1,0.17,0.06,0.15-0.04C193.43,250.01,188.39,232.44,175.2,222.52z"/>
		<path class="st5" d="M201.99,311.33c-0.49-6.67-1.19-13.33-2.32-19.92c0-0.01-0.01,0-0.01,0c1.51,11.69,2.69,23.4,2.86,35.19
			c0.18,12-0.48,24.02-1.95,35.93c-0.83,6.75-2.03,13.42-3.19,20.12c-0.01,0.08,0.1,0.11,0.12,0.03c2.65-11.56,3.97-23.54,4.7-35.36
			C202.93,335.34,202.87,323.3,201.99,311.33z"/>
		<path class="st5" d="M216.8,360.88c0-0.03-0.04-0.02-0.04,0c-0.59,6.29-0.64,12.69,0.25,18.96c0.02,0.12,0.2,0.12,0.19,0
			C216.7,373.51,216.42,367.23,216.8,360.88z"/>
		<path class="st5" d="M187.13,318.64c-0.07-1.77-0.17-3.53-0.29-5.3c-0.27-4.57-0.58-9.15-0.97-13.7c0-0.04-0.06-0.04-0.06,0
			c0.06,1.73,0.15,3.45,0.23,5.18c-0.14-1.19-0.29-2.38-0.46-3.56c0-0.02-0.04-0.02-0.03,0c1.1,12.43,1.69,24.8,1.31,37.28
			c0,0.05,0.08,0.05,0.08,0c0.27-4.7,0.39-9.44,0.34-14.18c0.1,1.3,0.19,2.6,0.28,3.9c0,0.04,0.06,0.04,0.06,0
			C187.46,325.05,187.3,321.85,187.13,318.64z"/>
		<path class="st5" d="M158.68,230.76c-0.01-0.05-0.08-0.03-0.07,0.02c0.93,5.02,1.95,9.99,2.57,15.06
			c0.59,4.85,0.85,9.71,1.09,14.59c0,0.09,0.14,0.09,0.14,0C162.5,250.62,161.34,240.22,158.68,230.76z"/>
		<path class="st5" d="M146.87,216.47c-9.27,9.98-15.19,24.26-15.87,37.85c-0.01,0.1,0.14,0.1,0.15,0
			c0.7-7.06,2.16-13.87,4.93-20.43c2.7-6.39,6.45-12.03,10.83-17.37C146.95,216.48,146.91,216.43,146.87,216.47z"/>
		<path class="st5" d="M121.82,230.48c-11.62,15.94-18.38,35.78-18.73,55.52c0,0.07,0.11,0.07,0.11,0c0.89-20,7.22-39.05,18.65-55.5
			C121.85,230.48,121.83,230.47,121.82,230.48z"/>
		<path class="st5" d="M108.41,234.46c-4.17,5.56-7.24,11.82-9.02,18.53c-0.01,0.05,0.07,0.07,0.08,0.02
			c1.9-6.67,4.9-12.92,8.97-18.54C108.44,234.46,108.42,234.45,108.41,234.46z"/>
		<path class="st5" d="M118.85,298.72c-5.84,16.54-8.92,33.97-8.87,51.52c0,0.04,0.06,0.04,0.06,0c0.26-17.52,3.16-34.93,8.85-51.51
			C118.9,298.71,118.86,298.7,118.85,298.72z"/>
		<path class="st5" d="M129.78,359.71c-2.08,14.71-3.87,29.58-4.87,44.41c0,0.05,0.08,0.05,0.08,0c1.55-14.81,3-29.61,4.84-44.39
			C129.84,359.69,129.79,359.67,129.78,359.71z"/>
		<path class="st5" d="M95.4,324.42c-5.18,17.9-8.13,36.67-8.69,55.29c0,0.05,0.07,0.05,0.07,0c0.9-18.76,3.78-37.15,8.64-55.29
			C95.42,324.41,95.4,324.41,95.4,324.42z"/>
		<path class="st5" d="M71.39,385.83c-0.81,3.19-1.15,6.44-1.06,9.73c0,0.04,0.06,0.04,0.06,0c-0.03-3.29,0.33-6.51,1.05-9.72
			C71.46,385.81,71.4,385.79,71.39,385.83z"/>
		<path class="st5" d="M169.15,358.19c0-0.01-0.02-0.01-0.02,0c0.82,13.34,0.74,26.7-0.11,40.04c0,0.02,0.03,0.02,0.03,0
			C170.14,384.91,170.13,371.52,169.15,358.19z"/>
		<path class="st5" d="M167.46,292.27c0-0.01-0.02-0.01-0.02,0c0.26,8.46,0.46,16.94,0.98,25.39c0,0.04,0.07,0.04,0.07,0
			C168.35,309.2,167.87,300.73,167.46,292.27z"/>
		<path class="st5" d="M145.64,324.95c-0.17,6.31-0.31,12.62-0.37,18.93c0,0.04,0.06,0.04,0.06,0c0.17-6.31,0.27-12.62,0.33-18.92
			C145.66,324.94,145.64,324.94,145.64,324.95z"/>
		<path class="st5" d="M205.15,401.59c0-0.1-0.15-0.1-0.15,0c0.01,2.16,0.02,4.33,0.1,6.49c0,0.07,0.1,0.07,0.1,0
			C205.23,405.91,205.18,403.75,205.15,401.59z"/>
		<path class="st6" d="M71.11,330.89c2.85-21.21,5.71-42.46,10.79-63.24c2.55-10.41,5.72-20.84,11.52-29.85
			c8.29-12.88,21.78-22.15,36.61-25.97c14.83-3.82,30.87-2.29,45,3.6c5.2,2.17,10.2,4.93,14.46,8.63
			c13.35,11.57,18.73,29.9,22.24,47.21c1.81,8.95,3.66,18.09,4.95,27.12c1.41,9.89,2.39,21.41,4.81,42.47
			c2.66,23.17,2.18,43.42,6.08,66.41c-2.27,1.25-7.8,1.7-10.15,0.59c-3.51-1.66-7.56,0.19-11.31,1.2
			c-11.87,3.19-25.87-2.14-36.07,4.72c-0.74,0.5-1.51,1.08-2.41,1.07c-1.78-0.02-2.59-2.16-3.79-3.47c-2.1-2.29-5.7-2.09-8.81-1.84
			c-13.31,1.07-26.81-0.26-39.66-3.92c-3.52-1-7.21-2.19-10.77-1.34c-1.71,0.41-3.35,1.27-5.1,1.15c-2.73-0.19-4.98-2.77-7.71-2.58
			c-2.3,0.16-4.13,2.27-6.43,2.35c-1.63,0.06-3.09-0.91-4.51-1.71c-5.84-3.3-12.64-4.08-19.16-2.75
			C62.45,377.85,68.04,353.75,71.11,330.89z"/>
		<path class="st7" d="M184.63,221.82c1.9,11.74-16.33,0.77-35.74,1s-31.21,6.99-37.01,1.83c-5.8-5.16,18.05-16.35,37.84-14.85
			C171.57,211.45,184.12,218.61,184.63,221.82z"/>
		
			<ellipse transform="matrix(0.1636 -0.9865 0.9865 0.1636 64.9348 230.3347)" class="st8" cx="168.31" cy="76.87" rx="16.9" ry="3.86"/>
		
			<ellipse transform="matrix(0.1636 -0.9865 0.9865 0.1636 30.4789 251.4704)" class="st8" cx="163.54" cy="107.76" rx="10.76" ry="2.46"/>
		<path class="st9" d="M215.42,288.78c-0.01-0.05-0.02-0.1-0.03-0.15c-0.11,0.03-0.23,0.07-0.34,0.11
			c-0.17-0.05-0.35-0.07-0.55-0.04c-45.27,7.27-91.61,10.64-136.09-2.81c-0.06,0.21-0.11,0.42-0.18,0.63
			c-0.06,0.18-0.11,0.35-0.17,0.53c43.8,15.65,92,10.56,137.02,3.9c0.03,0,0.05-0.01,0.07-0.02c0.03,0.01,0.05,0.02,0.08,0.02
			c0.09-0.02,0.18-0.03,0.27-0.05c0.07,0,0.13-0.01,0.2-0.02C215.59,290.18,215.49,289.48,215.42,288.78z"/>
		<path class="st10" d="M216.84,299.91c-0.03,0.01-0.06,0.02-0.09,0.03c-0.58,0.08-1.14,0.21-1.69,0.4
			c-0.7,0.04-1.58,0.17-2.68,0.43c-45.61,11-91.63,10.64-136.13-2.82c-0.08-0.03-0.16-0.03-0.23-0.02c-0.11-0.06-0.22-0.1-0.34-0.15
			c-0.03,0.12-0.07,0.24-0.1,0.37c-0.04,0.25-0.09,0.51-0.15,0.76c0.12,0.08,0.24,0.13,0.39,0.15c0.03,0.02,0.05,0.04,0.09,0.05
			c43.81,15.67,89.7,16.61,137.05,3.91c1.4-0.37,2.41-0.79,3.07-1.19c0.14-0.05,0.27-0.1,0.41-0.15c0.17-0.06,0.33-0.11,0.5-0.16
			c0.01,0,0.01-0.01,0.02-0.01C216.91,300.97,216.88,300.44,216.84,299.91z"/>
		<path class="st11" d="M218.43,313.77c-0.19,0-0.38,0.04-0.55,0.1c-0.11,0.02-0.22,0.04-0.33,0.06c-0.14-0.02-0.28-0.03-0.44,0
			c-46.09,8.47-91.19,9.07-136.13-2.82c-2.05-0.54-3.72-0.94-4.92-1.18c-0.06-0.02-0.13-0.04-0.19-0.06
			c-0.73-0.27-1.46-0.54-2.18-0.84c-0.01,0.04-0.01,0.07-0.02,0.11c-0.01,0.19-0.03,0.38-0.06,0.57c0.11,0.05,0.21,0.09,0.32,0.13
			c0.5,0.35,2.61,1.15,6.71,2.42c45.17,14,90.77,13.11,137.05,3.91c0.03-0.01,0.05-0.02,0.07-0.02c0.03,0.01,0.05,0.02,0.09,0.01
			c0.27-0.05,0.52-0.16,0.78-0.26C218.54,315.2,218.47,314.49,218.43,313.77z"/>
		
			<ellipse transform="matrix(0.9546 -0.2979 0.2979 0.9546 -74.459 50.727)" class="st12" cx="129.19" cy="269.64" rx="13.6" ry="17.95"/>
		
			<ellipse transform="matrix(0.2759 -0.9612 0.9612 0.2759 -138.7886 354.2159)" class="st12" cx="165.7" cy="269.22" rx="17.95" ry="13.6"/>
		<g>
			<g id="XMLID_1_">
				<g>
					<path class="st13" d="M174.52,296.62c0.27,0,0.44,0.35,0.23,0.53c-4.73,4.4-7.6,10.12-10.68,15.69
						c-1.33,2.41-2.72,4.8-4.34,7.02c-1.16,1.58-2.55,3.3-4.68,3.34c-2.6,0.07-4.63-2.09-7.08-2.61c-3.16-0.67-6.34,0.43-9.52,0.24
						c-2.08-0.12-4.09-0.77-5.46-2.41c-1.65-1.98-2.29-4.77-3.37-7.08c-2.6-5.55-6.29-10.22-10.49-14.64
						c-0.11-0.11,0.05-0.26,0.16-0.16c0.01,0.01,0.01,0.01,0.01,0.01c3.66,3.05,6.68,6.97,9.07,11.14
						c-0.04,0.08-0.05,0.17-0.01,0.28c0.23,0.63,0.61,1.23,0.96,1.8c0.07,0.11,0.16,0.17,0.26,0.19c0.09,0.18,0.2,0.36,0.3,0.55
						c1.13,2.3,1.79,5.01,3.28,7.1c1.83,2.56,5.01,2.78,7.88,2.53c2.76-0.24,5.57-0.81,8.25,0.19c2.66,1.01,5.38,3.55,8.12,1.22
						c1.99-1.7,3.41-4.39,4.72-6.62c0.65-1.12,1.28-2.25,1.9-3.38c0.1-0.02,0.19-0.08,0.24-0.2c0.1-0.21,0.19-0.44,0.27-0.66
						c0.06-0.03,0.13-0.07,0.17-0.16c0.13-0.22,0.21-0.46,0.26-0.7c0.26-0.48,0.52-0.95,0.78-1.43c2.23-4.02,4.64-7.98,8-11.16
						c-0.72-0.01-1.44-0.03-2.16-0.05c0.18,0.13,0.15,0.46-0.11,0.44c-8.67-0.63-17.32-1.39-26-1.74c-4.4-0.18-8.8-0.31-13.2-0.36
						c-4.27-0.06-8.55-0.11-12.74,0.85c-0.03,0.01-0.05,0-0.06-0.01c-0.08-0.03-0.09-0.17,0-0.19c3.95-1.08,8.03-1.06,12.11-1.04
						c4.4,0.02,8.8,0.1,13.19,0.26c8.52,0.3,17.09,0.7,25.57,1.63c-0.08-0.16-0.01-0.39,0.21-0.39
						C171.89,296.61,173.21,296.61,174.52,296.62z"/>
					<path class="st13" d="M171.6,297.18c0.72,0.02,1.44,0.04,2.16,0.05c-3.35,3.18-5.77,7.14-8,11.16
						c-0.26,0.48-0.53,0.95-0.78,1.43c-0.05,0.24-0.13,0.48-0.26,0.7c-0.05,0.09-0.11,0.13-0.17,0.16
						c-0.08,0.22-0.16,0.45-0.27,0.66c-0.06,0.12-0.15,0.19-0.24,0.2c-0.62,1.14-1.24,2.27-1.9,3.38c-1.31,2.23-2.72,4.92-4.72,6.62
						c-2.75,2.33-5.47-0.21-8.12-1.22c-2.67-1.01-5.49-0.44-8.25-0.19c-2.88,0.25-6.06,0.03-7.88-2.53c-1.49-2.09-2.15-4.8-3.28-7.1
						c-0.09-0.19-0.2-0.37-0.3-0.55c-0.1-0.02-0.19-0.08-0.26-0.19c-0.35-0.57-0.73-1.16-0.96-1.8c-0.04-0.11-0.03-0.2,0.01-0.28
						c-2.39-4.17-5.41-8.09-9.07-11.14l0.17-0.19c0.01,0.01,0.04,0.01,0.06,0.01c4.2-0.95,8.47-0.9,12.74-0.85
						c4.4,0.06,8.8,0.18,13.2,0.36c8.69,0.35,17.33,1.11,26,1.74C171.75,297.65,171.78,297.31,171.6,297.18z"/>
				</g>
				<g>
				</g>
			</g>
			<path class="st14" d="M153.05,308.28c-0.03,0-0.03,0.05,0,0.06c4.19,0.43,8.24,1.29,12.32,2.34c0.03-0.13,0.06-0.27,0.08-0.4
				C161.42,309.07,157.2,308.47,153.05,308.28z"/>
			<path class="st14" d="M142.77,307.37c0.09,0,0.09-0.19,0-0.2c-4.8-0.42-9.88-0.07-14.58,1.54c0.02,0.07,0.05,0.14,0.08,0.2
				C133.1,308.01,137.84,307.3,142.77,307.37z"/>
			<path class="st2" d="M119.3,296.53c3.25,3.1,5.54,6.97,8.06,10.61c2.53,3.66,3.46,9.4,6.31,12.23"/>
			<path class="st2" d="M133.44,319.18c1.23,1.05,2.07,1.53,3.69,1.57c1.62,0.04,3.23-0.18,4.85-0.32
				c7.83-0.66,8.61,2.18,13.36,2.55c2,0.16,3.49-1.75,4.58-3.44c2.78-4.33,5.55-8.65,8.07-13.14c1.97-3.51,4.16-7.03,7.14-9.78
				c-1.78-0.1-3.06,0.44-5.53,0.27c-3.64-0.24-7.27-0.34-10.89-0.73c-4.09-0.44-8.2-0.47-12.31-0.5c-9.14-0.07-18.37-1.6-27.39,0.91
				"/>
		</g>
		<circle class="st15" cx="160.87" cy="279.28" r="6.76"/>
		<circle class="st15" cx="133.44" cy="279.73" r="6.76"/>
	</g>
	<g>
		<g id="XMLID_6_">
			<g>
				<path class="st1" d="M398.09,14.66c6.73,2.84,7.6,11.9,7.26,19.2c-2.67,59.02-15.2,117.2-19.58,176.13
					c-0.32,4.39-1.76,12.96-8.23,11.26c-4.69-1.23-4.62-8.23-5.28-12.16c-2.67-15.98-2.04-32.15-1.06-48.26
					c2.8-45.44,7.33-90.76,13.59-135.85c0.29-2.12,0.61-4.3,1.62-6.19C388.55,14.79,393.92,12.89,398.09,14.66z"/>
			</g>
			<g>
				<path class="st2" d="M371.21,160.82c2.8-45.44,7.33-90.76,13.59-135.85c0.29-2.12,0.61-4.3,1.62-6.19
					c2.13-3.99,7.5-5.89,11.67-4.13c6.73,2.84,7.6,11.9,7.26,19.2c-2.67,59.02-15.2,117.2-19.58,176.13
					c-0.32,4.39-1.76,12.96-8.23,11.26c-4.69-1.23-4.62-8.23-5.28-12.16C369.6,193.1,370.22,176.93,371.21,160.82z"/>
			</g>
		</g>
		<path class="st3" d="M286.02,322.2c-0.87,1.04-1.78,2.08-2.95,2.75c-1.84,1.05-4.07,1.05-6.19,1.03
			c-3.01-0.04-6.02-0.07-9.03-0.11c-2.24-0.03-4.65,0-6.49,1.29c-1.87,1.32-2.71,3.7-2.98,5.97c-0.42,3.56,0.82,7.87,4.23,8.98
			c2.21,0.72,4.66-0.17,6.53-1.56s3.34-3.23,5.06-4.79c2.72-2.47,6.08-4.22,9.65-5.03c1.27-0.29,2.64-0.45,3.84,0.07
			c1.73,0.76,2.57,2.69,3.11,4.5c1.07,3.57,1.56,7.31,1.47,11.04c-0.02,0.7-0.04,1.45,0.37,2.02c0.64,0.9,2.07,0.85,2.95,0.19
			c0.88-0.65,1.35-1.71,1.79-2.72c1.24-2.89,2.47-5.78,3.71-8.67c0.25-0.59,0.51-1.21,0.46-1.85c-0.15-1.93-2.63-2.5-4.33-3.43
			c-2.98-1.63-4.15-5.43-3.92-8.82c0.34-4.93,2.97-9.42,6.04-13.3c2.92-3.67,9.34-8.52,10.42-13.22c0.89-3.88-3.46-1.95-5.35-0.5
			c-3.71,2.83-5.67,8.58-8.2,12.43C293.09,313.24,289.68,317.83,286.02,322.2z"/>
		<path class="st0" d="M469.73,336.44c-1.74-1.12-3.85-1.65-5.69-2.6c-1.63-0.83-2.95-2.25-3.67-3.94l-3.32-0.23
			c2.27,3.29,5.2,7.1,6.16,10.98c0.42,1.72,0.57,3.5,1.11,5.19c0.78,2.42,2.5,4.65,4.91,5.46s5.45-0.18,6.48-2.5
			C476.7,346.52,474.57,339.42,469.73,336.44"/>
		<path class="st3" d="M459.89,321.39c0.72,1.15,1.47,2.31,2.55,3.13c1.68,1.29,3.89,1.6,5.99,1.87c2.99,0.38,5.97,0.75,8.96,1.13
			c2.23,0.28,4.61,0.63,6.25,2.17c1.67,1.57,2.18,4.03,2.13,6.33c-0.07,3.59-1.89,7.68-5.43,8.31c-2.29,0.41-4.59-0.81-6.25-2.44
			c-1.66-1.63-2.86-3.66-4.35-5.44c-2.35-2.82-5.44-5.01-8.87-6.31c-1.22-0.46-2.56-0.81-3.81-0.46c-1.81,0.51-2.91,2.32-3.69,4.03
			c-1.55,3.39-2.55,7.03-2.97,10.73c-0.08,0.69-0.16,1.44-0.64,1.95c-0.75,0.8-2.16,0.56-2.95-0.21c-0.79-0.77-1.11-1.88-1.4-2.94
			c-0.83-3.03-1.66-6.07-2.49-9.1c-0.17-0.62-0.34-1.27-0.2-1.9c0.42-1.89,2.95-2.12,4.76-2.81c3.18-1.21,4.85-4.81,5.09-8.2
			c0.34-4.93-1.65-9.74-4.16-14c-2.38-4.04-8.08-9.72-8.51-14.52c-0.35-3.97,3.7-1.45,5.37,0.23c3.29,3.31,4.44,9.27,6.42,13.44
			C454.11,311.54,456.86,316.56,459.89,321.39z"/>
		<g id="XMLID_4_">
			<g>
				<path class="st4" d="M448.77,340.86c2.66,23.17,2.18,43.42,6.08,66.41c-2.27,1.25-7.8,1.71-10.14,0.6
					c-3.51-1.66-7.56,0.19-11.31,1.2c-11.87,3.19-25.88-2.14-36.07,4.71c-0.74,0.5-1.51,1.08-2.41,1.07
					c-1.78-0.02-2.59-2.17-3.79-3.47c-2.1-2.3-5.71-2.09-8.81-1.85c-13.31,1.07-26.81-0.26-39.66-3.91c-3.52-1-7.21-2.19-10.77-1.34
					c-1.7,0.4-3.35,1.27-5.1,1.15c-2.73-0.19-4.98-2.77-7.71-2.57c-2.3,0.16-4.13,2.26-6.43,2.35c-1.63,0.06-3.09-0.9-4.51-1.71
					c-5.83-3.29-12.64-4.08-19.15-2.74c0.75-22.91,6.33-47,9.4-69.86c2.85-21.21,5.71-42.46,10.79-63.25
					c2.55-10.4,5.72-20.84,11.52-29.85c8.29-12.88,21.78-22.15,36.61-25.97c14.83-3.82,30.87-2.3,45,3.6
					c5.21,2.17,10.2,4.94,14.46,8.63c13.35,11.57,18.73,29.9,22.24,47.21c1.81,8.95,3.66,18.09,4.95,27.12
					C445.38,308.28,446.36,319.8,448.77,340.86z"/>
			</g>
			<g>
				<path class="st2" d="M298.4,330.89c2.85-21.21,5.71-42.46,10.79-63.25c2.55-10.4,5.72-20.84,11.52-29.85
					c8.29-12.88,21.78-22.15,36.61-25.97c14.83-3.82,30.87-2.3,45,3.6c5.21,2.17,10.2,4.94,14.46,8.63
					c13.35,11.57,18.73,29.9,22.24,47.21c1.81,8.95,3.66,18.09,4.95,27.12c1.41,9.89,2.39,21.41,4.81,42.47
					c2.66,23.17,2.18,43.42,6.08,66.41c-2.27,1.25-7.8,1.71-10.14,0.6c-3.51-1.66-7.56,0.19-11.31,1.2
					c-11.87,3.19-25.88-2.14-36.07,4.71c-0.74,0.5-1.51,1.08-2.41,1.07c-1.78-0.02-2.59-2.17-3.79-3.47
					c-2.1-2.3-5.71-2.09-8.81-1.85c-13.31,1.07-26.81-0.26-39.66-3.91c-3.52-1-7.21-2.19-10.77-1.34c-1.7,0.4-3.35,1.27-5.1,1.15
					c-2.73-0.19-4.98-2.77-7.71-2.57c-2.3,0.16-4.13,2.26-6.43,2.35c-1.63,0.06-3.09-0.9-4.51-1.71
					c-5.83-3.29-12.64-4.08-19.15-2.74C289.74,377.84,295.33,353.75,298.4,330.89z"/>
			</g>
		</g>
		<path class="st5" d="M402.49,222.52c-0.03-0.02-0.07,0.03-0.04,0.05c5.85,5.09,10.35,11.2,13.61,18.23
			c3.65,7.86,5.56,16.29,7.27,24.74c0.02,0.1,0.17,0.06,0.15-0.04C420.72,250.01,415.68,232.44,402.49,222.52z"/>
		<path class="st5" d="M429.28,311.33c-0.49-6.67-1.19-13.33-2.32-19.92c0-0.01-0.01,0-0.01,0c1.51,11.69,2.69,23.4,2.86,35.19
			c0.18,12-0.48,24.02-1.95,35.93c-0.83,6.75-2.03,13.42-3.19,20.12c-0.01,0.08,0.1,0.11,0.12,0.03c2.65-11.56,3.97-23.54,4.7-35.36
			C430.22,335.34,430.16,323.3,429.28,311.33z"/>
		<path class="st5" d="M444.09,360.88c0-0.03-0.04-0.02-0.04,0c-0.59,6.29-0.64,12.69,0.25,18.96c0.02,0.12,0.2,0.12,0.19,0
			C443.99,373.51,443.71,367.23,444.09,360.88z"/>
		<path class="st5" d="M414.42,318.64c-0.07-1.77-0.17-3.53-0.29-5.3c-0.27-4.57-0.58-9.15-0.97-13.7c0-0.04-0.06-0.04-0.06,0
			c0.06,1.73,0.15,3.45,0.23,5.18c-0.14-1.19-0.29-2.38-0.46-3.56c0-0.02-0.04-0.02-0.03,0c1.1,12.43,1.69,24.8,1.31,37.28
			c0,0.05,0.08,0.05,0.08,0c0.27-4.7,0.39-9.44,0.34-14.18c0.1,1.3,0.19,2.6,0.28,3.9c0,0.04,0.06,0.04,0.06,0
			C414.75,325.05,414.59,321.85,414.42,318.64z"/>
		<path class="st5" d="M385.97,230.76c-0.01-0.05-0.08-0.03-0.07,0.02c0.93,5.02,1.95,9.99,2.57,15.06
			c0.59,4.85,0.85,9.71,1.09,14.59c0,0.09,0.14,0.09,0.14,0C389.79,250.62,388.63,240.22,385.97,230.76z"/>
		<path class="st5" d="M374.16,216.47c-9.27,9.98-15.19,24.26-15.87,37.85c-0.01,0.1,0.14,0.1,0.15,0
			c0.7-7.06,2.16-13.87,4.93-20.43c2.7-6.39,6.45-12.03,10.83-17.37C374.24,216.48,374.19,216.43,374.16,216.47z"/>
		<path class="st5" d="M349.11,230.48c-11.62,15.94-18.38,35.78-18.73,55.52c0,0.07,0.11,0.07,0.11,0c0.89-20,7.22-39.05,18.65-55.5
			C349.14,230.48,349.12,230.47,349.11,230.48z"/>
		<path class="st5" d="M335.7,234.46c-4.17,5.56-7.24,11.82-9.02,18.53c-0.01,0.05,0.07,0.07,0.08,0.02
			c1.9-6.67,4.9-12.92,8.97-18.54C335.73,234.46,335.71,234.45,335.7,234.46z"/>
		<path class="st5" d="M346.14,298.72c-5.84,16.54-8.92,33.97-8.87,51.52c0,0.04,0.06,0.04,0.06,0c0.26-17.52,3.16-34.93,8.85-51.51
			C346.19,298.71,346.15,298.7,346.14,298.72z"/>
		<path class="st5" d="M357.07,359.71c-2.08,14.71-3.87,29.58-4.87,44.41c0,0.05,0.08,0.05,0.08,0c1.55-14.81,3-29.61,4.84-44.39
			C357.13,359.69,357.08,359.67,357.07,359.71z"/>
		<path class="st5" d="M322.69,324.42c-5.18,17.9-8.13,36.67-8.69,55.29c0,0.05,0.07,0.05,0.07,0c0.9-18.76,3.78-37.15,8.64-55.29
			C322.71,324.41,322.69,324.41,322.69,324.42z"/>
		<path class="st5" d="M298.68,385.83c-0.81,3.19-1.15,6.44-1.06,9.73c0,0.04,0.06,0.04,0.06,0c-0.03-3.29,0.33-6.51,1.05-9.72
			C298.75,385.81,298.69,385.79,298.68,385.83z"/>
		<path class="st5" d="M396.44,358.19c0-0.01-0.02-0.01-0.02,0c0.82,13.34,0.74,26.7-0.11,40.04c0,0.02,0.03,0.02,0.03,0
			C397.42,384.91,397.42,371.52,396.44,358.19z"/>
		<path class="st5" d="M394.75,292.27c0-0.01-0.02-0.01-0.02,0c0.26,8.46,0.46,16.94,0.98,25.39c0,0.04,0.07,0.04,0.07,0
			C395.64,309.2,395.16,300.73,394.75,292.27z"/>
		<path class="st5" d="M372.93,324.95c-0.17,6.31-0.31,12.62-0.37,18.93c0,0.04,0.06,0.04,0.06,0c0.17-6.31,0.27-12.62,0.33-18.92
			C372.95,324.94,372.93,324.94,372.93,324.95z"/>
		<path class="st6" d="M298.4,330.89c2.85-21.21,5.71-42.46,10.79-63.24c2.55-10.41,5.72-20.84,11.52-29.85
			c8.29-12.88,21.78-22.15,36.61-25.97c14.83-3.82,30.87-2.29,45,3.6c5.2,2.17,10.2,4.93,14.46,8.63
			c13.35,11.57,18.73,29.9,22.24,47.21c1.81,8.95,3.66,18.09,4.95,27.12c1.41,9.89,2.39,21.41,4.81,42.47
			c2.66,23.17,2.18,43.42,6.08,66.41c-2.27,1.25-7.8,1.7-10.15,0.59c-3.51-1.66-7.56,0.19-11.31,1.2
			c-11.87,3.19-25.87-2.14-36.07,4.72c-0.74,0.5-1.51,1.08-2.41,1.07c-1.78-0.02-2.59-2.16-3.79-3.47c-2.1-2.29-5.7-2.09-8.81-1.84
			c-13.31,1.07-26.81-0.26-39.66-3.92c-3.52-1-7.21-2.19-10.77-1.34c-1.71,0.41-3.35,1.27-5.1,1.15c-2.73-0.19-4.98-2.77-7.71-2.58
			c-2.3,0.16-4.13,2.27-6.43,2.35c-1.63,0.06-3.09-0.91-4.51-1.71c-5.84-3.3-12.64-4.08-19.16-2.75
			C289.74,377.85,295.33,353.75,298.4,330.89z"/>
		<path class="st7" d="M411.92,221.82c1.9,11.74-16.33,0.77-35.74,1c-19.41,0.22-31.21,6.99-37.01,1.83
			c-5.8-5.16,18.05-16.35,37.84-14.85C398.86,211.45,411.4,218.61,411.92,221.82z"/>
		
			<ellipse transform="matrix(0.1636 -0.9865 0.9865 0.1636 255.0409 454.5619)" class="st8" cx="395.59" cy="76.87" rx="16.9" ry="3.86"/>
		
			<ellipse transform="matrix(0.1636 -0.9865 0.9865 0.1636 220.5851 475.6976)" class="st8" cx="390.83" cy="107.76" rx="10.76" ry="2.46"/>
		<path class="st9" d="M442.71,288.78c-0.01-0.05-0.02-0.1-0.03-0.15c-0.11,0.03-0.23,0.07-0.34,0.11
			c-0.17-0.05-0.35-0.07-0.55-0.04c-45.27,7.27-91.61,10.64-136.09-2.81c-0.06,0.21-0.11,0.42-0.18,0.63
			c-0.06,0.18-0.11,0.35-0.17,0.53c43.8,15.65,92,10.56,137.02,3.9c0.03,0,0.05-0.01,0.07-0.02c0.03,0.01,0.05,0.02,0.08,0.02
			c0.09-0.02,0.18-0.03,0.27-0.05c0.07,0,0.13-0.01,0.2-0.02C442.88,290.18,442.78,289.48,442.71,288.78z"/>
		<path class="st10" d="M444.13,299.91c-0.03,0.01-0.06,0.02-0.09,0.03c-0.58,0.08-1.14,0.21-1.69,0.4
			c-0.7,0.04-1.58,0.17-2.68,0.43c-45.61,11-91.63,10.64-136.13-2.82c-0.08-0.03-0.16-0.03-0.23-0.02c-0.11-0.06-0.22-0.1-0.34-0.15
			c-0.03,0.12-0.07,0.24-0.1,0.37c-0.04,0.25-0.09,0.51-0.15,0.76c0.12,0.08,0.24,0.13,0.39,0.15c0.03,0.02,0.05,0.04,0.09,0.05
			c43.81,15.67,89.7,16.61,137.05,3.91c1.4-0.37,2.41-0.79,3.07-1.19c0.14-0.05,0.27-0.1,0.41-0.15c0.17-0.06,0.33-0.11,0.5-0.16
			c0.01,0,0.01-0.01,0.02-0.01C444.2,300.97,444.17,300.44,444.13,299.91z"/>
		<path class="st11" d="M445.72,313.77c-0.19,0-0.38,0.04-0.55,0.1c-0.11,0.02-0.22,0.04-0.33,0.06c-0.14-0.02-0.28-0.03-0.44,0
			c-46.09,8.47-91.19,9.07-136.13-2.82c-2.05-0.54-3.72-0.94-4.92-1.18c-0.06-0.02-0.13-0.04-0.19-0.06
			c-0.73-0.27-1.46-0.54-2.18-0.84c-0.01,0.04-0.01,0.07-0.02,0.11c-0.01,0.19-0.03,0.38-0.06,0.57c0.11,0.05,0.21,0.09,0.32,0.13
			c0.5,0.35,2.61,1.15,6.71,2.42c45.17,14,90.77,13.11,137.05,3.91c0.03-0.01,0.05-0.02,0.07-0.02c0.03,0.01,0.05,0.02,0.09,0.01
			c0.27-0.05,0.52-0.16,0.78-0.26C445.83,315.2,445.76,314.49,445.72,313.77z"/>
		<path class="st12" d="M369.47,265.59c2.95,9.46-0.47,18.95-7.64,21.18c-7.17,2.24-15.38-3.62-18.33-13.08
			c-2.95-9.46,3.01-13.19,10.19-15.43C360.85,256.03,366.51,256.13,369.47,265.59z"/>
		<path class="st12" d="M379.92,265.47c-2.73,9.53,0.9,18.93,8.12,21c7.22,2.07,15.29-3.97,18.03-13.5
			c2.73-9.53-3.59-12.64-10.81-14.71C388.03,256.19,382.65,255.94,379.92,265.47z"/>
		<circle class="st15" cx="388.15" cy="279.28" r="6.76"/>
		<circle class="st15" cx="360.73" cy="279.73" r="6.76"/>
		<path class="st2" d="M353.68,308.17c-0.04-0.71,0.79-1.11,1.48-1.3c13.45-3.85,27.87-4.24,41.51-1.14"/>
	</g>
	<g>
		<g id="XMLID_12_">
			<g>
				<path class="st1" d="M636.35,14.66c6.73,2.84,7.6,11.89,7.27,19.2c-2.67,59.02-15.21,117.2-19.58,176.12
					c-0.32,4.4-1.75,12.96-8.23,11.27c-4.69-1.23-4.62-8.23-5.27-12.16c-2.68-15.98-2.05-32.15-1.06-48.26
					c2.8-45.44,7.33-90.77,13.59-135.86c0.29-2.12,0.61-4.29,1.62-6.18C626.81,14.79,632.18,12.89,636.35,14.66z"/>
			</g>
			<g>
				<path class="st2" d="M609.47,160.82c2.8-45.44,7.33-90.77,13.59-135.86c0.29-2.12,0.61-4.29,1.62-6.18
					c2.13-4,7.5-5.89,11.67-4.13c6.73,2.84,7.6,11.89,7.27,19.2c-2.67,59.02-15.21,117.2-19.58,176.12
					c-0.32,4.4-1.75,12.96-8.23,11.27c-4.69-1.23-4.62-8.23-5.27-12.16C607.85,193.1,608.48,176.93,609.47,160.82z"/>
			</g>
		</g>
		<path class="st3" d="M521.83,334.26c-0.76,1.12-1.56,2.25-2.66,3.04c-1.72,1.23-3.95,1.46-6.05,1.65c-3,0.27-6,0.53-8.99,0.8
			c-2.24,0.2-4.63,0.46-6.33,1.93c-1.73,1.5-2.33,3.95-2.36,6.24c-0.06,3.59,1.61,7.75,5.11,8.5c2.27,0.49,4.62-0.64,6.34-2.2
			s3-3.55,4.55-5.28c2.45-2.73,5.62-4.81,9.1-5.97c1.23-0.41,2.59-0.71,3.82-0.31c1.79,0.58,2.83,2.42,3.54,4.17
			c1.42,3.45,2.29,7.12,2.57,10.83c0.05,0.69,0.11,1.45,0.57,1.97c0.72,0.83,2.14,0.64,2.96-0.1c0.81-0.74,1.17-1.84,1.5-2.89
			c0.94-3,1.88-6,2.82-9c0.19-0.61,0.39-1.26,0.27-1.89c-0.35-1.91-2.87-2.23-4.65-2.98c-3.13-1.32-4.67-4.98-4.78-8.38
			c-0.16-4.94,2.01-9.67,4.68-13.84c2.53-3.95,8.44-9.42,9.04-14.2c0.5-3.95-3.64-1.59-5.38,0.04c-3.41,3.19-4.78,9.1-6.91,13.19
			C527.97,324.63,525.04,329.54,521.83,334.26z"/>
		<path class="st3" d="M709.16,312.68c1.62,1.11,3.31,2.22,5.22,2.64c5.4,1.18,10.31-3.32,15.71-4.51c1.65-0.36,3.45-0.39,4.95,0.38
			c1.5,0.77,2.59,2.51,2.21,4.16c-0.16,0.69-0.55,1.31-1.03,1.82c-2.73,2.95-7.92,2.61-10.41,5.76c-0.23,0.29-0.43,0.62-0.43,0.99
			c0,0.48,0.36,0.89,0.71,1.22c2.2,2.06,5.1,3.17,7.92,4.22c2.82,1.06,5.72,2.16,7.92,4.21c2.2,2.05,3.57,5.32,2.52,8.14
			c-1.18,3.2-5.16,4.73-8.48,3.94c-3.32-0.79-5.95-3.38-7.7-6.31c-1.76-2.92-2.8-6.2-4.12-9.35c-0.41-0.96-0.94-2.02-1.94-2.34
			c-1.14-0.38-2.39,0.43-2.94,1.5s-0.56,2.32-0.56,3.52c0,2.16,0,4.31,0,6.47c0,1.43-0.02,2.94-0.74,4.18
			c-1.62,2.79-5.61,2.69-8.79,2.17c-2.66-0.44-5.93-1.55-6.18-4.23c-0.15-1.6,0.94-3.04,2.07-4.19c2.11-2.14,4.59-3.92,6.49-6.24
			c1.9-2.32,3.2-5.45,2.35-8.33c-0.83-2.84-3.46-4.72-5.91-6.39c-12.03-8.26-23.57-17.22-34.55-26.83
			c-1.16-1.01-2.38-2.15-2.66-3.66c-0.23-1.21,0.62-3.08,2.05-3.06c1.32,0.02,3.72,3.36,4.68,4.29c3.24,3.14,6.57,6.19,9.98,9.14
			C694.41,301.96,701.64,307.53,709.16,312.68z"/>
		<g id="XMLID_11_">
			<g>
				<path class="st4" d="M687.03,340.86c2.66,23.17,2.19,43.42,6.08,66.41c-2.27,1.25-7.8,1.7-10.15,0.59
					c-3.51-1.65-7.56,0.2-11.31,1.2c-11.87,3.19-25.88-2.14-36.07,4.72c-0.74,0.5-1.51,1.08-2.4,1.07
					c-1.78-0.02-2.59-2.16-3.79-3.47c-2.1-2.29-5.7-2.09-8.8-1.84c-13.31,1.07-26.82-0.26-39.66-3.91c-3.52-1-7.21-2.19-10.77-1.34
					c-1.71,0.41-3.35,1.28-5.1,1.15c-2.73-0.19-4.97-2.77-7.71-2.58c-2.3,0.17-4.12,2.27-6.42,2.35c-1.63,0.06-3.09-0.9-4.52-1.71
					c-5.83-3.3-12.64-4.08-19.15-2.74c0.75-22.91,6.33-47,9.4-69.86c2.85-21.21,5.71-42.46,10.79-63.25
					c2.54-10.4,5.71-20.84,11.52-29.85c8.29-12.88,21.77-22.16,36.6-25.98c14.83-3.82,30.87-2.29,45.01,3.61
					c5.2,2.16,10.2,4.94,14.46,8.63c13.35,11.57,18.73,29.9,22.24,47.21c1.81,8.95,3.66,18.08,4.95,27.12
					C683.63,308.28,684.61,319.8,687.03,340.86z"/>
			</g>
			<g>
				<path class="st2" d="M536.66,330.89c2.85-21.21,5.71-42.46,10.79-63.25c2.54-10.4,5.71-20.84,11.52-29.85
					c8.29-12.88,21.77-22.16,36.6-25.98c14.83-3.82,30.87-2.29,45.01,3.61c5.2,2.16,10.2,4.94,14.46,8.63
					c13.35,11.57,18.73,29.9,22.24,47.21c1.81,8.95,3.66,18.08,4.95,27.12c1.41,9.89,2.39,21.41,4.81,42.47
					c2.66,23.17,2.19,43.42,6.08,66.41c-2.27,1.25-7.8,1.7-10.15,0.59c-3.51-1.65-7.56,0.2-11.31,1.2
					c-11.87,3.19-25.88-2.14-36.07,4.72c-0.74,0.5-1.51,1.08-2.4,1.07c-1.78-0.02-2.59-2.16-3.79-3.47c-2.1-2.29-5.7-2.09-8.8-1.84
					c-13.31,1.07-26.82-0.26-39.66-3.91c-3.52-1-7.21-2.19-10.77-1.34c-1.71,0.41-3.35,1.28-5.1,1.15
					c-2.73-0.19-4.97-2.77-7.71-2.58c-2.3,0.17-4.12,2.27-6.42,2.35c-1.63,0.06-3.09-0.9-4.52-1.71c-5.83-3.3-12.64-4.08-19.15-2.74
					C528,377.85,533.59,353.76,536.66,330.89z"/>
			</g>
		</g>
		<path class="st5" d="M640.75,222.52c-0.03-0.02-0.07,0.03-0.04,0.05c5.85,5.09,10.35,11.2,13.61,18.23
			c3.65,7.86,5.56,16.29,7.27,24.74c0.02,0.1,0.17,0.06,0.15-0.04C658.98,250.01,653.94,232.44,640.75,222.52z"/>
		<path class="st5" d="M667.54,311.33c-0.49-6.67-1.19-13.33-2.32-19.92c0-0.01-0.01,0-0.01,0c1.51,11.69,2.69,23.4,2.86,35.19
			c0.18,12-0.48,24.02-1.95,35.93c-0.83,6.75-2.03,13.42-3.19,20.12c-0.01,0.08,0.1,0.11,0.12,0.03c2.65-11.56,3.97-23.54,4.7-35.36
			C668.48,335.34,668.42,323.3,667.54,311.33z"/>
		<path class="st5" d="M682.35,360.88c0-0.03-0.04-0.02-0.04,0c-0.59,6.29-0.64,12.69,0.25,18.96c0.02,0.12,0.2,0.12,0.19,0
			C682.25,373.51,681.97,367.23,682.35,360.88z"/>
		<path class="st5" d="M652.68,318.64c-0.07-1.77-0.17-3.53-0.29-5.3c-0.27-4.57-0.58-9.15-0.97-13.7c0-0.04-0.06-0.04-0.06,0
			c0.06,1.73,0.15,3.45,0.23,5.18c-0.14-1.19-0.29-2.38-0.46-3.56c0-0.02-0.04-0.02-0.03,0c1.1,12.43,1.69,24.8,1.31,37.28
			c0,0.05,0.08,0.05,0.08,0c0.27-4.7,0.39-9.44,0.34-14.18c0.1,1.3,0.19,2.6,0.28,3.9c0,0.04,0.06,0.04,0.06,0
			C653.01,325.05,652.85,321.85,652.68,318.64z"/>
		<path class="st5" d="M624.23,230.76c-0.01-0.05-0.08-0.03-0.07,0.02c0.93,5.02,1.95,9.99,2.57,15.06
			c0.59,4.85,0.85,9.71,1.09,14.59c0,0.09,0.14,0.09,0.14,0C628.05,250.62,626.89,240.22,624.23,230.76z"/>
		<path class="st5" d="M612.42,216.47c-9.27,9.98-15.19,24.26-15.87,37.85c-0.01,0.1,0.14,0.1,0.15,0
			c0.7-7.06,2.16-13.87,4.93-20.43c2.7-6.39,6.45-12.03,10.83-17.37C612.5,216.48,612.45,216.43,612.42,216.47z"/>
		<path class="st5" d="M587.37,230.48c-11.62,15.94-18.38,35.78-18.73,55.52c0,0.07,0.11,0.07,0.11,0c0.89-20,7.22-39.05,18.65-55.5
			C587.4,230.48,587.38,230.47,587.37,230.48z"/>
		<path class="st5" d="M573.96,234.46c-4.17,5.56-7.24,11.82-9.02,18.53c-0.01,0.05,0.07,0.07,0.08,0.02
			c1.9-6.67,4.9-12.92,8.97-18.54C573.99,234.46,573.97,234.45,573.96,234.46z"/>
		<path class="st5" d="M584.4,298.72c-5.84,16.54-8.92,33.97-8.87,51.52c0,0.04,0.06,0.04,0.06,0c0.26-17.52,3.16-34.93,8.85-51.51
			C584.45,298.71,584.41,298.7,584.4,298.72z"/>
		<path class="st5" d="M595.33,359.71c-2.08,14.71-3.87,29.58-4.87,44.41c0,0.05,0.08,0.05,0.08,0c1.55-14.81,3-29.61,4.84-44.39
			C595.39,359.69,595.34,359.67,595.33,359.71z"/>
		<path class="st5" d="M560.95,324.42c-5.18,17.9-8.13,36.67-8.69,55.29c0,0.05,0.07,0.05,0.07,0c0.9-18.76,3.78-37.15,8.64-55.29
			C560.97,324.41,560.95,324.41,560.95,324.42z"/>
		<path class="st5" d="M536.94,385.83c-0.81,3.19-1.15,6.44-1.06,9.73c0,0.04,0.06,0.04,0.06,0c-0.03-3.29,0.33-6.51,1.05-9.72
			C537.01,385.81,536.95,385.79,536.94,385.83z"/>
		<path class="st5" d="M634.7,358.19c0-0.01-0.02-0.01-0.02,0c0.82,13.34,0.74,26.7-0.11,40.04c0,0.02,0.03,0.02,0.03,0
			C635.68,384.91,635.68,371.52,634.7,358.19z"/>
		<path class="st5" d="M633.01,292.27c0-0.01-0.02-0.01-0.02,0c0.26,8.46,0.46,16.94,0.98,25.39c0,0.04,0.07,0.04,0.07,0
			C633.9,309.2,633.42,300.73,633.01,292.27z"/>
		<path class="st5" d="M611.19,324.95c-0.17,6.31-0.31,12.62-0.37,18.93c0,0.04,0.06,0.04,0.06,0c0.17-6.31,0.27-12.62,0.33-18.92
			C611.21,324.94,611.19,324.94,611.19,324.95z"/>
		<path class="st5" d="M670.7,401.59c0-0.1-0.16-0.1-0.15,0c0.01,2.16,0.02,4.33,0.1,6.49c0,0.07,0.1,0.07,0.1,0
			C670.78,405.91,670.73,403.75,670.7,401.59z"/>
		<path class="st6" d="M536.66,330.89c2.85-21.21,5.71-42.46,10.79-63.24c2.55-10.41,5.72-20.84,11.52-29.85
			c8.29-12.88,21.78-22.15,36.61-25.97c14.83-3.82,30.87-2.29,45,3.6c5.2,2.17,10.2,4.93,14.46,8.63
			c13.35,11.57,18.73,29.9,22.24,47.21c1.81,8.95,3.66,18.09,4.95,27.12c1.41,9.89,2.39,21.41,4.81,42.47
			c2.66,23.17,2.18,43.42,6.08,66.41c-2.27,1.25-7.8,1.7-10.15,0.59c-3.51-1.66-7.56,0.19-11.31,1.2
			c-11.87,3.19-25.87-2.14-36.07,4.72c-0.74,0.5-1.51,1.08-2.41,1.07c-1.78-0.02-2.59-2.16-3.79-3.47c-2.1-2.29-5.7-2.09-8.81-1.84
			c-13.31,1.07-26.81-0.26-39.66-3.92c-3.52-1-7.21-2.19-10.77-1.34c-1.71,0.41-3.35,1.27-5.1,1.15c-2.73-0.19-4.98-2.77-7.71-2.58
			c-2.3,0.16-4.13,2.27-6.43,2.35c-1.63,0.06-3.09-0.91-4.51-1.71c-5.84-3.3-12.64-4.08-19.16-2.75
			C528,377.85,533.59,353.75,536.66,330.89z"/>
		<path class="st7" d="M650.18,221.82c1.9,11.74-16.33,0.77-35.74,1c-19.41,0.22-31.21,6.99-37.01,1.83
			c-5.8-5.16,18.05-16.35,37.84-14.85C637.12,211.45,649.66,218.61,650.18,221.82z"/>
		
			<ellipse transform="matrix(0.1636 -0.9865 0.9865 0.1636 454.3232 689.612)" class="st8" cx="633.85" cy="76.87" rx="16.9" ry="3.86"/>
		
			<ellipse transform="matrix(0.1636 -0.9865 0.9865 0.1636 419.8673 710.7477)" class="st8" cx="629.09" cy="107.76" rx="10.76" ry="2.46"/>
		<path class="st9" d="M680.97,288.78c-0.01-0.05-0.02-0.1-0.03-0.15c-0.11,0.03-0.23,0.07-0.34,0.11
			c-0.17-0.05-0.35-0.07-0.55-0.04c-45.27,7.27-91.61,10.64-136.09-2.81c-0.06,0.21-0.11,0.42-0.18,0.63
			c-0.06,0.18-0.11,0.35-0.17,0.53c43.8,15.65,92,10.56,137.02,3.9c0.03,0,0.05-0.01,0.07-0.02c0.03,0.01,0.05,0.02,0.08,0.02
			c0.09-0.02,0.18-0.03,0.27-0.05c0.07,0,0.13-0.01,0.2-0.02C681.14,290.18,681.04,289.48,680.97,288.78z"/>
		<path class="st10" d="M682.39,299.91c-0.03,0.01-0.06,0.02-0.09,0.03c-0.58,0.08-1.14,0.21-1.69,0.4
			c-0.7,0.04-1.58,0.17-2.68,0.43c-45.61,11-91.63,10.64-136.13-2.82c-0.08-0.03-0.16-0.03-0.23-0.02c-0.11-0.06-0.22-0.1-0.34-0.15
			c-0.03,0.12-0.07,0.24-0.1,0.37c-0.04,0.25-0.09,0.51-0.15,0.76c0.12,0.08,0.24,0.13,0.39,0.15c0.03,0.02,0.05,0.04,0.09,0.05
			c43.81,15.67,89.7,16.61,137.05,3.91c1.4-0.37,2.41-0.79,3.07-1.19c0.14-0.05,0.27-0.1,0.41-0.15c0.17-0.06,0.33-0.11,0.5-0.16
			c0.01,0,0.01-0.01,0.02-0.01C682.46,300.97,682.43,300.44,682.39,299.91z"/>
		<path class="st11" d="M683.98,313.77c-0.19,0-0.38,0.04-0.55,0.1c-0.11,0.02-0.22,0.04-0.33,0.06c-0.14-0.02-0.28-0.03-0.44,0
			c-46.09,8.47-91.19,9.07-136.13-2.82c-2.05-0.54-3.72-0.94-4.92-1.18c-0.06-0.02-0.13-0.04-0.19-0.06
			c-0.73-0.27-1.46-0.54-2.18-0.84c-0.01,0.04-0.01,0.07-0.02,0.11c-0.01,0.19-0.03,0.38-0.06,0.57c0.11,0.05,0.21,0.09,0.32,0.13
			c0.5,0.35,2.61,1.15,6.71,2.42c45.17,14,90.77,13.11,137.05,3.91c0.03-0.01,0.05-0.02,0.07-0.02c0.03,0.01,0.05,0.02,0.09,0.01
			c0.27-0.05,0.52-0.16,0.78-0.26C684.09,315.2,684.02,314.49,683.98,313.77z"/>
		
			<ellipse transform="matrix(0.9546 -0.2979 0.2979 0.9546 -53.3228 189.4106)" class="st12" cx="594.74" cy="269.64" rx="13.6" ry="17.95"/>
		
			<ellipse transform="matrix(0.2759 -0.9612 0.9612 0.2759 198.3181 801.6962)" class="st12" cx="631.25" cy="269.22" rx="17.95" ry="13.6"/>
		<circle class="st15" cx="629.41" cy="271.28" r="6.76"/>
		<circle class="st15" cx="597.99" cy="270.73" r="6.76"/>
		<path class="st2" d="M593.27,301.39c3.51,7.7,11.35,13.25,19.78,13.99c3.44,0.3,6.99-0.16,10.12-1.64
			c6.42-3.03,10.16-9.69,13.49-15.96"/>
		<path class="st2" d="M635.05,295.45c0.69,1.93,2.5,3.41,4.53,3.69c2.03,0.28,4.18-0.65,5.36-2.33"/>
		<path class="st2" d="M587.84,298.93c1.58,1.92,4.56,2.51,6.76,1.34c2.19-1.17,3.36-3.98,2.64-6.36"/>
	</g>
</g>
<g id="Layer_7">
	<g>
		<g id="XMLID_9_">
			<g>
				<path class="st1" d="M891.03,14.66c6.73,2.84,7.6,11.9,7.27,19.2c-2.67,59.03-15.21,117.2-19.58,176.13
					c-0.33,4.39-1.76,12.96-8.23,11.26c-4.69-1.23-4.63-8.23-5.28-12.16c-2.68-15.98-2.05-32.15-1.06-48.26
					c2.8-45.43,7.33-90.76,13.59-135.85c0.29-2.12,0.61-4.29,1.62-6.19C881.5,14.79,886.86,12.89,891.03,14.66z"/>
			</g>
			<g>
				<path class="st2" d="M864.15,160.82c2.8-45.43,7.33-90.76,13.59-135.85c0.29-2.12,0.61-4.29,1.62-6.19
					c2.14-3.99,7.5-5.89,11.67-4.13c6.73,2.84,7.6,11.9,7.27,19.2c-2.67,59.03-15.21,117.2-19.58,176.13
					c-0.33,4.39-1.76,12.96-8.23,11.26c-4.69-1.23-4.63-8.23-5.28-12.16C862.54,193.1,863.17,176.93,864.15,160.82z"/>
			</g>
		</g>
		<path class="st0" d="M764.18,349.53c1.78-1.05,3.91-1.51,5.78-2.38c1.66-0.77,3.03-2.14,3.82-3.8l3.32-0.11
			c-2.39,3.2-5.46,6.9-6.56,10.74c-0.49,1.7-0.7,3.48-1.3,5.14c-0.87,2.39-2.67,4.56-5.11,5.28s-5.44-0.38-6.38-2.74
			C756.84,359.34,759.23,352.32,764.18,349.53"/>
		<path class="st3" d="M779.75,337.78c-0.76,1.12-1.56,2.25-2.66,3.04c-1.72,1.23-3.95,1.46-6.05,1.65c-3,0.27-6,0.53-8.99,0.8
			c-2.24,0.2-4.63,0.46-6.33,1.93c-1.73,1.5-2.33,3.95-2.36,6.24c-0.06,3.59,1.61,7.75,5.11,8.5c2.27,0.49,4.62-0.64,6.34-2.2
			c1.72-1.56,3-3.55,4.55-5.28c2.45-2.73,5.62-4.81,9.1-5.97c1.23-0.41,2.59-0.71,3.82-0.31c1.79,0.58,2.83,2.42,3.54,4.17
			c1.42,3.45,2.29,7.12,2.57,10.83c0.05,0.69,0.11,1.45,0.57,1.97c0.72,0.83,2.14,0.64,2.96-0.1s1.17-1.84,1.5-2.89
			c0.94-3,1.88-6,2.82-9c0.19-0.61,0.39-1.26,0.27-1.89c-0.35-1.91-2.87-2.23-4.65-2.98c-3.13-1.32-4.67-4.98-4.78-8.38
			c-0.16-4.94,2.01-9.67,4.68-13.84c2.53-3.95,8.44-9.42,9.04-14.2c0.5-3.95-3.64-1.59-5.38,0.04c-3.41,3.19-4.78,9.1-6.91,13.19
			C785.89,328.15,782.96,333.06,779.75,337.78z"/>
		<g id="XMLID_8_">
			<g>
				<path class="st4" d="M941.71,340.87c2.66,23.16,2.19,43.42,6.08,66.4c-2.27,1.25-7.8,1.71-10.15,0.6
					c-3.51-1.66-7.56,0.19-11.31,1.2c-11.87,3.19-25.88-2.14-36.07,4.71c-0.74,0.5-1.51,1.08-2.4,1.07
					c-1.78-0.02-2.59-2.17-3.79-3.47c-2.1-2.3-5.7-2.09-8.8-1.85c-13.31,1.07-26.82-0.26-39.66-3.91c-3.52-1-7.2-2.19-10.76-1.34
					c-1.71,0.4-3.35,1.27-5.1,1.15c-2.73-0.19-4.97-2.77-7.71-2.57c-2.29,0.16-4.12,2.26-6.42,2.35c-1.63,0.06-3.09-0.9-4.51-1.71
					c-5.84-3.29-12.65-4.08-19.16-2.74c0.75-22.91,6.33-47,9.4-69.86c2.85-21.21,5.71-42.46,10.79-63.25
					c2.54-10.4,5.71-20.84,11.52-29.85c8.29-12.88,21.77-22.15,36.6-25.97c14.83-3.82,30.87-2.3,45.01,3.6
					c5.2,2.17,10.2,4.94,14.46,8.63c13.35,11.57,18.73,29.9,22.24,47.21c1.81,8.95,3.67,18.09,4.96,27.12
					C938.32,308.28,939.3,319.8,941.71,340.87z"/>
			</g>
			<g>
				<path class="st2" d="M791.34,330.89c2.85-21.21,5.71-42.46,10.79-63.25c2.54-10.4,5.71-20.84,11.52-29.85
					c8.29-12.88,21.77-22.15,36.6-25.97c14.83-3.82,30.87-2.3,45.01,3.6c5.2,2.17,10.2,4.94,14.46,8.63
					c13.35,11.57,18.73,29.9,22.24,47.21c1.81,8.95,3.67,18.09,4.96,27.12c1.41,9.89,2.38,21.41,4.8,42.48
					c2.66,23.16,2.19,43.42,6.08,66.4c-2.27,1.25-7.8,1.71-10.15,0.6c-3.51-1.66-7.56,0.19-11.31,1.2
					c-11.87,3.19-25.88-2.14-36.07,4.71c-0.74,0.5-1.51,1.08-2.4,1.07c-1.78-0.02-2.59-2.17-3.79-3.47c-2.1-2.3-5.7-2.09-8.8-1.85
					c-13.31,1.07-26.82-0.26-39.66-3.91c-3.52-1-7.2-2.19-10.76-1.34c-1.71,0.4-3.35,1.27-5.1,1.15c-2.73-0.19-4.97-2.77-7.71-2.57
					c-2.29,0.16-4.12,2.26-6.42,2.35c-1.63,0.06-3.09-0.9-4.51-1.71c-5.84-3.29-12.65-4.08-19.16-2.74
					C782.69,377.84,788.28,353.75,791.34,330.89z"/>
			</g>
		</g>
		<path class="st5" d="M895.44,222.52c-0.03-0.02-0.07,0.03-0.04,0.05c5.85,5.09,10.35,11.2,13.61,18.23
			c3.65,7.86,5.56,16.29,7.27,24.74c0.02,0.1,0.17,0.06,0.15-0.04C913.67,250.01,908.62,232.44,895.44,222.52z"/>
		<path class="st5" d="M922.23,311.33c-0.49-6.67-1.19-13.33-2.32-19.92c0-0.01-0.01,0-0.01,0c1.51,11.69,2.69,23.4,2.86,35.19
			c0.18,12-0.48,24.02-1.95,35.93c-0.83,6.75-2.03,13.42-3.19,20.12c-0.01,0.08,0.1,0.11,0.12,0.03c2.65-11.56,3.97-23.54,4.7-35.36
			C923.16,335.34,923.1,323.3,922.23,311.33z"/>
		<path class="st5" d="M937.03,360.88c0-0.03-0.04-0.02-0.04,0c-0.59,6.29-0.64,12.69,0.25,18.96c0.02,0.12,0.2,0.12,0.19,0
			C936.93,373.51,936.66,367.23,937.03,360.88z"/>
		<path class="st5" d="M907.36,318.64c-0.07-1.77-0.17-3.53-0.29-5.3c-0.27-4.57-0.58-9.15-0.97-13.7c0-0.04-0.06-0.04-0.06,0
			c0.06,1.73,0.15,3.45,0.23,5.18c-0.14-1.19-0.29-2.38-0.46-3.56c0-0.02-0.04-0.02-0.03,0c1.1,12.43,1.69,24.8,1.31,37.28
			c0,0.05,0.08,0.05,0.08,0c0.27-4.7,0.39-9.44,0.34-14.18c0.1,1.3,0.19,2.6,0.28,3.9c0,0.04,0.06,0.04,0.06,0
			C907.7,325.05,907.53,321.85,907.36,318.64z"/>
		<path class="st5" d="M878.91,230.76c-0.01-0.05-0.08-0.03-0.07,0.02c0.93,5.02,1.95,9.99,2.57,15.06
			c0.59,4.85,0.85,9.71,1.09,14.59c0,0.09,0.14,0.09,0.14,0C882.74,250.62,881.58,240.22,878.91,230.76z"/>
		<path class="st5" d="M867.11,216.47c-9.27,9.98-15.19,24.26-15.87,37.85c-0.01,0.1,0.14,0.1,0.15,0
			c0.7-7.06,2.16-13.87,4.93-20.43c2.7-6.39,6.45-12.03,10.83-17.37C867.19,216.48,867.14,216.43,867.11,216.47z"/>
		<path class="st5" d="M842.05,230.48c-11.62,15.94-18.38,35.78-18.73,55.52c0,0.07,0.11,0.07,0.11,0c0.89-20,7.22-39.05,18.65-55.5
			C842.09,230.48,842.06,230.47,842.05,230.48z"/>
		<path class="st5" d="M828.64,234.46c-4.17,5.56-7.24,11.82-9.02,18.53c-0.01,0.05,0.07,0.07,0.08,0.02
			c1.9-6.67,4.9-12.92,8.97-18.54C828.68,234.46,828.65,234.45,828.64,234.46z"/>
		<path class="st5" d="M839.09,298.72c-5.84,16.54-8.92,33.97-8.87,51.52c0,0.04,0.06,0.04,0.06,0c0.26-17.52,3.16-34.93,8.85-51.51
			C839.13,298.71,839.09,298.7,839.09,298.72z"/>
		<path class="st5" d="M850.02,359.71c-2.08,14.71-3.87,29.58-4.87,44.41c0,0.05,0.08,0.05,0.08,0c1.55-14.81,3-29.61,4.84-44.39
			C850.08,359.69,850.02,359.67,850.02,359.71z"/>
		<path class="st5" d="M815.63,324.42c-5.18,17.9-8.13,36.67-8.69,55.29c0,0.05,0.07,0.05,0.07,0c0.9-18.76,3.78-37.15,8.64-55.29
			C815.66,324.41,815.64,324.41,815.63,324.42z"/>
		<path class="st5" d="M889.39,358.19c0-0.01-0.02-0.01-0.02,0c0.82,13.34,0.74,26.7-0.11,40.04c0,0.02,0.03,0.02,0.03,0
			C890.37,384.91,890.36,371.52,889.39,358.19z"/>
		<path class="st5" d="M887.69,292.27c0-0.01-0.02-0.01-0.02,0c0.26,8.46,0.46,16.94,0.98,25.39c0,0.04,0.07,0.04,0.07,0
			C888.58,309.2,888.11,300.73,887.69,292.27z"/>
		<path class="st5" d="M865.88,324.95c-0.17,6.31-0.31,12.62-0.37,18.93c0,0.04,0.06,0.04,0.06,0c0.17-6.31,0.27-12.62,0.33-18.92
			C865.9,324.94,865.88,324.94,865.88,324.95z"/>
		<path class="st5" d="M925.38,401.59c0-0.1-0.16-0.1-0.15,0c0.01,2.16,0.02,4.33,0.1,6.49c0,0.07,0.1,0.07,0.1,0
			C925.46,405.91,925.42,403.75,925.38,401.59z"/>
		<path class="st6" d="M791.35,330.89c2.85-21.21,5.71-42.46,10.79-63.24c2.55-10.41,5.72-20.84,11.52-29.85
			c8.29-12.88,21.78-22.15,36.61-25.97c14.83-3.82,30.87-2.29,45,3.6c5.2,2.17,10.2,4.93,14.46,8.63
			c13.35,11.57,18.73,29.9,22.24,47.21c1.81,8.95,3.66,18.09,4.95,27.12c1.41,9.89,2.39,21.41,4.81,42.47
			c2.66,23.17,2.18,43.42,6.08,66.41c-2.27,1.25-7.8,1.7-10.15,0.59c-3.51-1.66-7.56,0.19-11.31,1.2
			c-11.87,3.19-25.87-2.14-36.07,4.72c-0.74,0.5-1.51,1.08-2.41,1.07c-1.78-0.02-2.59-2.16-3.79-3.47c-2.1-2.29-5.7-2.09-8.81-1.84
			c-13.31,1.07-26.81-0.26-39.66-3.92c-3.52-1-7.21-2.19-10.77-1.34c-1.71,0.41-3.35,1.27-5.1,1.15c-2.73-0.19-4.98-2.77-7.71-2.58
			c-2.3,0.16-4.13,2.27-6.43,2.35c-1.63,0.06-3.09-0.91-4.51-1.71c-5.84-3.3-12.64-4.08-19.16-2.75
			C782.69,377.85,788.28,353.75,791.35,330.89z"/>
		<path class="st7" d="M904.87,221.82c1.9,11.74-16.33,0.77-35.74,1c-19.41,0.22-31.21,6.99-37.01,1.83
			c-5.8-5.16,18.05-16.35,37.84-14.85C891.8,211.45,904.35,218.61,904.87,221.82z"/>
		
			<ellipse transform="matrix(0.1636 -0.9865 0.9865 0.1636 667.3436 940.8662)" class="st8" cx="888.54" cy="76.87" rx="16.9" ry="3.86"/>
		
			<ellipse transform="matrix(0.1636 -0.9865 0.9865 0.1636 632.8878 962.002)" class="st8" cx="883.78" cy="107.76" rx="10.76" ry="2.46"/>
		<path class="st9" d="M935.66,288.78c-0.01-0.05-0.02-0.1-0.03-0.15c-0.11,0.03-0.23,0.07-0.34,0.11
			c-0.17-0.05-0.35-0.07-0.55-0.04c-45.27,7.27-91.61,10.64-136.09-2.81c-0.06,0.21-0.11,0.42-0.18,0.63
			c-0.06,0.18-0.11,0.35-0.17,0.53c43.8,15.65,92,10.56,137.02,3.9c0.03,0,0.05-0.01,0.07-0.02c0.03,0.01,0.05,0.02,0.08,0.02
			c0.09-0.02,0.18-0.03,0.27-0.05c0.07,0,0.13-0.01,0.2-0.02C935.83,290.18,935.72,289.48,935.66,288.78z"/>
		<path class="st10" d="M937.08,299.91c-0.03,0.01-0.06,0.02-0.09,0.03c-0.58,0.08-1.14,0.21-1.69,0.4
			c-0.7,0.04-1.58,0.17-2.68,0.43c-45.61,11-91.63,10.64-136.13-2.82c-0.08-0.03-0.16-0.03-0.23-0.02c-0.11-0.06-0.22-0.1-0.34-0.15
			c-0.03,0.12-0.07,0.24-0.1,0.37c-0.04,0.25-0.09,0.51-0.15,0.76c0.12,0.08,0.24,0.13,0.39,0.15c0.03,0.02,0.05,0.04,0.09,0.05
			c43.81,15.67,89.7,16.61,137.05,3.91c1.4-0.37,2.41-0.79,3.07-1.19c0.14-0.05,0.27-0.1,0.41-0.15c0.17-0.06,0.33-0.11,0.5-0.16
			c0.01,0,0.01-0.01,0.02-0.01C937.15,300.97,937.11,300.44,937.08,299.91z"/>
		<path class="st11" d="M938.67,313.77c-0.19,0-0.38,0.04-0.55,0.1c-0.11,0.02-0.22,0.04-0.33,0.06c-0.14-0.02-0.28-0.03-0.44,0
			c-46.09,8.47-91.19,9.07-136.13-2.82c-2.05-0.54-3.72-0.94-4.92-1.18c-0.06-0.02-0.13-0.04-0.19-0.06
			c-0.73-0.27-1.46-0.54-2.18-0.84c-0.01,0.04-0.01,0.07-0.02,0.11c-0.01,0.19-0.03,0.38-0.06,0.57c0.11,0.05,0.21,0.09,0.32,0.13
			c0.5,0.35,2.61,1.15,6.71,2.42c45.17,14,90.77,13.11,137.05,3.91c0.03-0.01,0.05-0.02,0.07-0.02c0.03,0.01,0.05,0.02,0.09,0.01
			c0.27-0.05,0.52-0.16,0.78-0.26C938.77,315.2,938.7,314.49,938.67,313.77z"/>
		<path class="st12" d="M862.41,265.59c2.95,9.46-0.47,18.95-7.64,21.18s-15.38-3.62-18.33-13.08c-2.95-9.46,1.53-13.19,8.71-15.43
			S859.46,256.13,862.41,265.59z"/>
		<path class="st12" d="M872.86,265.47c-2.73,9.53,0.9,18.93,8.12,21c7.22,2.07,15.29-3.97,18.03-13.5
			c2.73-9.53-5.85-1.68-13.08-3.75C878.71,267.15,875.6,255.94,872.86,265.47z"/>
		<circle class="st15" cx="881.1" cy="279.28" r="6.76"/>
		<circle class="st15" cx="853.68" cy="279.73" r="6.76"/>
		<line class="st16" x1="859.17" y1="309.89" x2="881.64" y2="301.72"/>
		<g>
			<g id="XMLID_3_">
				<g>
					<path class="st1" d="M921.24,221.5c2.68,2.89,4.1,6.89,4.17,10.84c0.03,1.35-0.08,2.76,0.48,3.98
						c0.53,1.15,1.57,1.96,2.58,2.73c7.37,5.65,14.74,11.29,22.11,16.94c1.05,0.8,2.17,1.72,2.44,3.01c0.3,1.46-0.59,2.88-1.44,4.11
						c-5.38,7.76-10.77,15.52-16.17,23.27c-1.06-0.38-1.36-1.57-1.17-2.68c0.18-1.12,0.86-2.07,1.51-2.98
						c3.9-5.41,7.79-10.8,11.69-16.21c1.21-1.68,2.48-3.84,1.52-5.67c-0.46-0.85-1.3-1.41-2.1-1.94
						c-6.53-4.25-8.63-7.58-18.01-13.96c-2.97-1.89-7.7-1.21-9.97-2.54c-2.26-1.33-3.87-3.53-5.19-5.79
						c-0.59-1.02-1.25-2.15-2.36-2.53c-1.95-0.68-3.92,1.29-5.98,1.11c-1.67-0.15-2.89-1.69-3.43-3.27
						c-1.07-3.11-0.09-6.64,2.08-9.13c0.83-0.97,1.86-1.78,3.01-2.35c4.12-2.03,9.36-1.1,12.9,1.81
						C920.38,220.63,920.82,221.05,921.24,221.5z"/>
					<path class="st1" d="M921.24,221.5c-0.42-0.45-0.85-0.87-1.33-1.27c-3.54-2.91-8.79-3.85-12.9-1.81
						c-1.16,0.57-2.18,1.38-3.01,2.35l-0.44-0.08c-1.02-1.09-2.07-2.23-2.52-3.65c-0.45-1.38,0.15-3.32,1.35-4.14
						c0.02-0.02,0.06-0.04,0.08-0.06c4.27-2.88,7.99-2.96,9.84-2.47C916.97,211.61,919.81,216.88,921.24,221.5z"/>
				</g>
				<g>
					<path class="st2" d="M928.84,242.92c-2.97-1.89-7.7-1.21-9.97-2.54c-2.26-1.33-3.87-3.53-5.19-5.79
						c-0.59-1.02-1.25-2.15-2.36-2.53c-1.95-0.68-3.92,1.29-5.98,1.11c-1.67-0.15-2.89-1.69-3.43-3.27
						c-1.07-3.11-0.09-6.64,2.08-9.13c0.83-0.97,1.86-1.78,3.01-2.35c4.12-2.03,9.36-1.1,12.9,1.81c0.47,0.39,0.91,0.81,1.33,1.27
						c2.68,2.89,4.1,6.89,4.17,10.84c0.03,1.35-0.08,2.76,0.48,3.98c0.53,1.15,1.57,1.96,2.58,2.73
						c7.37,5.65,14.74,11.29,22.11,16.94c1.05,0.8,2.17,1.72,2.44,3.01c0.3,1.46-0.59,2.88-1.44,4.11
						c-5.38,7.76-10.77,15.52-16.17,23.27c-1.06-0.38-1.36-1.57-1.17-2.68c0.18-1.12,0.86-2.07,1.51-2.98
						c3.9-5.41,7.79-10.8,11.69-16.21c1.21-1.68,2.48-3.84,1.52-5.67c-0.46-0.85-1.3-1.41-2.1-1.94
						C940.31,252.64,938.22,249.3,928.84,242.92"/>
					<path class="st2" d="M902.38,212.9c-0.08,0.05-0.16,0.1-0.24,0.16"/>
					<path class="st2" d="M921.32,221.73c-0.03-0.08-0.04-0.15-0.08-0.23c-1.43-4.62-4.27-9.89-8.94-11.12
						c-1.84-0.49-5.57-0.41-9.84,2.47"/>
					<path class="st2" d="M902.46,212.84c-0.02,0.02-0.06,0.04-0.08,0.06c-1.2,0.82-1.8,2.77-1.35,4.14
						c0.46,1.42,1.5,2.56,2.52,3.65"/>
				</g>
			</g>
		</g>
	</g>
</g>
</svg>
