<?xml version="1.0" encoding="utf-8"?>
<!-- Generator: Adobe Illustrator 23.0.3, SVG Export Plug-In . SVG Version: 6.00 Build 0)  -->
<svg version="1.1" xmlns="http://www.w3.org/2000/svg" xmlns:xlink="http://www.w3.org/1999/xlink" x="0px" y="0px"
	 viewBox="0 0 258 456" style="enable-background:new 0 0 258 456;" xml:space="preserve">
<style type="text/css">
	.st0{fill:#754C28;stroke:#231F20;stroke-width:1.0006;stroke-linecap:round;stroke-linejoin:round;stroke-miterlimit:10;}
	.st1{fill:#754C28;}
	.st2{fill:none;stroke:#231F20;stroke-miterlimit:10;}
	.st3{fill:#754C28;stroke:#231F20;stroke-miterlimit:10;}
	.st4{fill:#FFDD15;}
	.st5{fill:#F16522;}
	.st6{fill:none;stroke:#231F20;stroke-width:0.5;stroke-linecap:round;stroke-linejoin:round;}
	.st7{opacity:0.67;fill:#FAAF40;}
	.st8{opacity:0.59;fill:#FFFFFF;}
	.st9{fill:#BE1E2D;}
	.st10{fill:#25A9E0;}
	.st11{fill:#009345;}
	.st12{fill:#FFFFFF;stroke:#231F20;stroke-miterlimit:10;}
	.st13{fill:#231F20;stroke:#231F20;stroke-miterlimit:10;}
</style>
<g id="Layer_1">
</g>
<g id="Layer_7">
</g>
<g id="hands">
	<path class="st0" d="M19.21,360.57c1.88-0.87,4.04-1.11,5.99-1.79c1.73-0.6,3.23-1.83,4.18-3.39l3.32,0.23
		c-2.7,2.94-6.13,6.32-7.6,10.03c-0.65,1.64-1.04,3.39-1.81,4.99c-1.1,2.29-3.12,4.26-5.61,4.74c-2.5,0.47-5.38-0.92-6.07-3.37
		C10.91,369.6,14,362.86,19.21,360.57"/>
</g>
<g id="face">
	<g>
		<g id="XMLID_4_">
			<g>
				<path class="st1" d="M154.09,38.65c6.73,2.85,7.6,11.9,7.26,19.21c-2.67,59.02-15.2,117.2-19.58,176.12
					c-0.32,4.4-1.76,12.96-8.23,11.27c-4.69-1.23-4.62-8.23-5.28-12.17c-2.67-15.98-2.04-32.15-1.06-48.25
					c2.8-45.44,7.33-90.77,13.59-135.86c0.29-2.12,0.61-4.29,1.62-6.18C144.55,38.79,149.91,36.89,154.09,38.65z"/>
			</g>
			<g>
				<path class="st2" d="M127.21,184.82c2.8-45.44,7.33-90.77,13.59-135.86c0.29-2.12,0.61-4.29,1.62-6.18
					c2.13-4,7.49-5.89,11.67-4.14c6.73,2.85,7.6,11.9,7.26,19.21c-2.67,59.02-15.2,117.2-19.58,176.12
					c-0.32,4.4-1.76,12.96-8.23,11.27c-4.69-1.23-4.62-8.23-5.28-12.17C125.6,217.09,126.22,200.93,127.21,184.82z"/>
			</g>
		</g>
		<path class="st3" d="M42.02,346.2c-0.87,1.04-1.78,2.08-2.95,2.75c-1.84,1.05-4.07,1.05-6.19,1.03c-3.01-0.04-6.02-0.07-9.03-0.11
			c-2.24-0.03-4.65,0-6.49,1.29c-1.87,1.32-2.71,3.7-2.98,5.97c-0.42,3.56,0.82,7.87,4.23,8.98c2.21,0.72,4.66-0.17,6.53-1.56
			c1.87-1.38,3.34-3.23,5.06-4.79c2.72-2.47,6.08-4.22,9.65-5.03c1.27-0.29,2.64-0.45,3.84,0.07c1.73,0.76,2.57,2.69,3.11,4.5
			c1.07,3.57,1.56,7.31,1.47,11.04c-0.02,0.7-0.04,1.45,0.37,2.02c0.64,0.9,2.07,0.85,2.95,0.19c0.88-0.65,1.35-1.71,1.79-2.72
			c1.24-2.89,2.47-5.78,3.71-8.67c0.25-0.59,0.51-1.21,0.46-1.85c-0.15-1.93-2.63-2.5-4.33-3.43c-2.98-1.63-4.15-5.43-3.92-8.82
			c0.34-4.93,2.97-9.42,6.04-13.3c2.92-3.67,9.34-8.52,10.42-13.22c0.89-3.88-3.46-1.95-5.35-0.5c-3.71,2.83-5.67,8.58-8.2,12.43
			C49.09,337.24,45.68,341.83,42.02,346.2z"/>
		<path class="st0" d="M225.73,360.44c-1.74-1.12-3.85-1.65-5.69-2.6c-1.63-0.83-2.95-2.25-3.67-3.94l-3.32-0.23
			c2.27,3.29,5.2,7.1,6.16,10.98c0.42,1.72,0.57,3.5,1.11,5.19c0.78,2.42,2.5,4.65,4.91,5.46s5.45-0.18,6.48-2.5
			C232.7,370.52,230.57,363.42,225.73,360.44"/>
		<path class="st3" d="M215.89,345.39c0.72,1.15,1.47,2.31,2.55,3.13c1.68,1.29,3.89,1.6,5.99,1.87c2.99,0.38,5.97,0.75,8.96,1.13
			c2.23,0.28,4.61,0.63,6.25,2.17c1.67,1.57,2.18,4.03,2.13,6.33c-0.07,3.59-1.89,7.68-5.43,8.31c-2.29,0.41-4.59-0.81-6.25-2.44
			c-1.66-1.63-2.86-3.66-4.35-5.44c-2.35-2.82-5.44-5.01-8.87-6.31c-1.22-0.46-2.56-0.81-3.81-0.46c-1.81,0.51-2.91,2.32-3.69,4.03
			c-1.55,3.39-2.55,7.03-2.97,10.73c-0.08,0.69-0.16,1.44-0.64,1.95c-0.75,0.8-2.16,0.56-2.95-0.21c-0.79-0.77-1.11-1.88-1.4-2.94
			c-0.83-3.03-1.66-6.07-2.49-9.1c-0.17-0.62-0.34-1.27-0.2-1.9c0.42-1.89,2.95-2.12,4.76-2.81c3.18-1.21,4.85-4.81,5.09-8.2
			c0.34-4.93-1.65-9.74-4.16-14c-2.38-4.04-8.08-9.72-8.51-14.52c-0.35-3.97,3.7-1.45,5.37,0.23c3.29,3.31,4.44,9.27,6.42,13.44
			C210.11,335.54,212.86,340.56,215.89,345.39z"/>
		<g id="XMLID_3_">
			<g>
				<path class="st4" d="M204.77,364.86c2.66,23.17,2.18,43.42,6.08,66.41c-2.27,1.25-7.8,1.7-10.14,0.59
					c-3.51-1.66-7.56,0.2-11.31,1.2c-11.86,3.19-25.87-2.15-36.06,4.72c-0.74,0.5-1.51,1.08-2.41,1.07
					c-1.78-0.02-2.59-2.16-3.79-3.47c-2.1-2.29-5.71-2.09-8.81-1.84c-13.31,1.07-26.81-0.26-39.66-3.92
					c-3.53-1-7.21-2.18-10.77-1.34c-1.7,0.41-3.35,1.27-5.1,1.15c-2.73-0.19-4.98-2.77-7.71-2.58c-2.3,0.17-4.13,2.27-6.43,2.35
					c-1.63,0.06-3.09-0.9-4.51-1.71c-5.83-3.3-12.65-4.08-19.16-2.75c0.75-22.91,6.34-47,9.41-69.86
					c2.85-21.21,5.71-42.46,10.79-63.25c2.55-10.41,5.72-20.84,11.51-29.85c8.29-12.88,21.78-22.15,36.61-25.97
					c14.83-3.82,30.87-2.29,45,3.61c5.21,2.16,10.2,4.93,14.46,8.62c13.35,11.58,18.73,29.9,22.24,47.22
					c1.81,8.94,3.66,18.08,4.95,27.12C201.38,332.28,202.36,343.8,204.77,364.86z"/>
			</g>
			<g>
				<path class="st2" d="M54.4,354.89c2.85-21.21,5.71-42.46,10.79-63.25c2.55-10.41,5.72-20.84,11.51-29.85
					c8.29-12.88,21.78-22.15,36.61-25.97c14.83-3.82,30.87-2.29,45,3.61c5.21,2.16,10.2,4.93,14.46,8.62
					c13.35,11.58,18.73,29.9,22.24,47.22c1.81,8.94,3.66,18.08,4.95,27.12c1.41,9.89,2.39,21.41,4.81,42.47
					c2.66,23.17,2.18,43.42,6.08,66.41c-2.27,1.25-7.8,1.7-10.14,0.59c-3.51-1.66-7.56,0.2-11.31,1.2
					c-11.86,3.19-25.87-2.15-36.06,4.72c-0.74,0.5-1.51,1.08-2.41,1.07c-1.78-0.02-2.59-2.16-3.79-3.47
					c-2.1-2.29-5.71-2.09-8.81-1.84c-13.31,1.07-26.81-0.26-39.66-3.92c-3.53-1-7.21-2.18-10.77-1.34c-1.7,0.41-3.35,1.27-5.1,1.15
					c-2.73-0.19-4.98-2.77-7.71-2.58c-2.3,0.17-4.13,2.27-6.43,2.35c-1.63,0.06-3.09-0.9-4.51-1.71c-5.83-3.3-12.65-4.08-19.16-2.75
					C45.74,401.85,51.33,377.75,54.4,354.89z"/>
			</g>
		</g>
		<path class="st5" d="M158.49,246.52c-0.03-0.02-0.07,0.03-0.04,0.05c5.85,5.09,10.35,11.2,13.61,18.23
			c3.65,7.86,5.56,16.29,7.27,24.74c0.02,0.1,0.17,0.06,0.15-0.04C176.72,274.01,171.68,256.44,158.49,246.52z"/>
		<path class="st5" d="M185.28,335.33c-0.49-6.67-1.19-13.33-2.32-19.92c0-0.01-0.01,0-0.01,0c1.51,11.69,2.69,23.4,2.86,35.19
			c0.18,12-0.48,24.02-1.95,35.93c-0.83,6.75-2.03,13.42-3.19,20.12c-0.01,0.08,0.1,0.11,0.12,0.03c2.65-11.56,3.97-23.54,4.7-35.36
			C186.22,359.34,186.16,347.3,185.28,335.33z"/>
		<path class="st5" d="M200.09,384.88c0-0.03-0.04-0.02-0.04,0c-0.59,6.29-0.64,12.69,0.25,18.96c0.02,0.12,0.2,0.12,0.19,0
			C199.99,397.51,199.71,391.23,200.09,384.88z"/>
		<path class="st5" d="M170.42,342.64c-0.07-1.77-0.17-3.53-0.29-5.3c-0.27-4.57-0.58-9.15-0.97-13.7c0-0.04-0.06-0.04-0.06,0
			c0.06,1.73,0.15,3.45,0.23,5.18c-0.14-1.19-0.29-2.38-0.46-3.56c0-0.02-0.04-0.02-0.03,0c1.1,12.43,1.69,24.8,1.31,37.28
			c0,0.05,0.08,0.05,0.08,0c0.27-4.7,0.39-9.44,0.34-14.18c0.1,1.3,0.19,2.6,0.28,3.9c0,0.04,0.06,0.04,0.06,0
			C170.75,349.05,170.59,345.85,170.42,342.64z"/>
		<path class="st5" d="M141.97,254.76c-0.01-0.05-0.08-0.03-0.07,0.02c0.93,5.02,1.95,9.99,2.57,15.06
			c0.59,4.85,0.85,9.71,1.09,14.59c0,0.09,0.14,0.09,0.14,0C145.79,274.62,144.63,264.22,141.97,254.76z"/>
		<path class="st5" d="M130.16,240.47c-9.27,9.98-15.19,24.26-15.87,37.85c-0.01,0.1,0.14,0.1,0.15,0
			c0.7-7.06,2.16-13.87,4.93-20.43c2.7-6.39,6.45-12.03,10.83-17.37C130.24,240.48,130.19,240.43,130.16,240.47z"/>
		<path class="st5" d="M105.11,254.48C93.49,270.42,86.73,290.26,86.37,310c0,0.07,0.11,0.07,0.11,0c0.89-20,7.22-39.05,18.65-55.5
			C105.14,254.48,105.12,254.47,105.11,254.48z"/>
		<path class="st5" d="M91.7,258.46c-4.17,5.56-7.24,11.82-9.02,18.54c-0.01,0.05,0.07,0.07,0.08,0.02
			c1.9-6.67,4.9-12.92,8.97-18.54C91.73,258.46,91.71,258.45,91.7,258.46z"/>
		<path class="st5" d="M102.14,322.72c-5.84,16.54-8.92,33.97-8.87,51.52c0,0.04,0.06,0.04,0.06,0c0.26-17.52,3.16-34.93,8.85-51.51
			C102.19,322.71,102.15,322.7,102.14,322.72z"/>
		<path class="st5" d="M113.07,383.71c-2.08,14.71-3.87,29.58-4.87,44.41c0,0.05,0.08,0.05,0.08,0c1.55-14.81,3-29.61,4.84-44.39
			C113.13,383.69,113.08,383.67,113.07,383.71z"/>
		<path class="st5" d="M78.69,348.42c-5.18,17.9-8.13,36.67-8.69,55.29c0,0.05,0.07,0.05,0.07,0c0.9-18.76,3.78-37.15,8.64-55.29
			C78.71,348.41,78.69,348.41,78.69,348.42z"/>
		<path class="st5" d="M54.68,409.83c-0.81,3.19-1.15,6.44-1.06,9.73c0,0.04,0.06,0.04,0.06,0c-0.03-3.29,0.33-6.51,1.05-9.72
			C54.75,409.81,54.69,409.79,54.68,409.83z"/>
		<path class="st5" d="M152.44,382.19c0-0.01-0.02-0.01-0.02,0c0.82,13.34,0.74,26.7-0.11,40.04c0,0.02,0.03,0.02,0.03,0
			C153.42,408.91,153.42,395.52,152.44,382.19z"/>
		<path class="st5" d="M150.75,316.27c0-0.01-0.02-0.01-0.02,0c0.26,8.46,0.46,16.94,0.98,25.39c0,0.04,0.07,0.04,0.07,0
			C151.64,333.2,151.16,324.73,150.75,316.27z"/>
		<path class="st5" d="M128.93,348.95c-0.17,6.31-0.31,12.62-0.37,18.93c0,0.04,0.06,0.04,0.06,0c0.17-6.31,0.27-12.62,0.33-18.92
			C128.95,348.94,128.93,348.94,128.93,348.95z"/>
		<path class="st6" d="M54.4,354.89c2.85-21.21,5.71-42.46,10.79-63.24c2.55-10.41,5.72-20.84,11.52-29.85
			c8.29-12.88,21.78-22.15,36.61-25.97c14.83-3.82,30.87-2.29,45,3.6c5.2,2.17,10.2,4.93,14.46,8.63
			c13.35,11.57,18.73,29.9,22.24,47.21c1.81,8.95,3.66,18.09,4.95,27.12c1.41,9.89,2.39,21.41,4.81,42.47
			c2.66,23.17,2.18,43.42,6.08,66.41c-2.27,1.25-7.8,1.7-10.15,0.59c-3.51-1.66-7.56,0.19-11.31,1.2
			c-11.87,3.19-25.87-2.14-36.07,4.72c-0.74,0.5-1.51,1.08-2.41,1.07c-1.78-0.02-2.59-2.16-3.79-3.47c-2.1-2.29-5.7-2.09-8.81-1.84
			c-13.31,1.07-26.81-0.26-39.66-3.92c-3.52-1-7.21-2.19-10.77-1.34c-1.71,0.41-3.35,1.27-5.1,1.15c-2.73-0.19-4.98-2.77-7.71-2.58
			c-2.3,0.16-4.13,2.27-6.43,2.35c-1.63,0.06-3.09-0.91-4.51-1.71c-5.84-3.3-12.64-4.08-19.16-2.75
			C45.74,401.85,51.33,377.75,54.4,354.89z"/>
		<path class="st7" d="M167.92,245.82c1.9,11.74-16.33,0.77-35.74,1s-31.21,6.99-37.01,1.83c-5.8-5.16,18.05-16.35,37.84-14.85
			C154.86,235.45,167.4,242.61,167.92,245.82z"/>
		
			<ellipse transform="matrix(0.1636 -0.9865 0.9865 0.1636 27.2811 233.9228)" class="st8" cx="151.59" cy="100.87" rx="16.9" ry="3.86"/>
		
			<ellipse transform="matrix(0.1636 -0.9865 0.9865 0.1636 -7.1748 255.0585)" class="st8" cx="146.83" cy="131.76" rx="10.76" ry="2.46"/>
		<path class="st9" d="M198.71,312.78c-0.01-0.05-0.02-0.1-0.03-0.15c-0.11,0.03-0.23,0.07-0.34,0.11
			c-0.17-0.05-0.35-0.07-0.55-0.04c-45.27,7.27-91.61,10.64-136.09-2.81c-0.06,0.21-0.11,0.42-0.18,0.63
			c-0.06,0.18-0.11,0.35-0.17,0.53c43.8,15.65,92,10.56,137.02,3.9c0.03,0,0.05-0.01,0.07-0.02c0.03,0.01,0.05,0.02,0.08,0.02
			c0.09-0.02,0.18-0.03,0.27-0.05c0.07,0,0.13-0.01,0.2-0.02C198.88,314.18,198.78,313.48,198.71,312.78z"/>
		<path class="st10" d="M200.13,323.91c-0.03,0.01-0.06,0.02-0.09,0.03c-0.58,0.08-1.14,0.21-1.69,0.4
			c-0.7,0.04-1.58,0.17-2.68,0.43c-45.61,11-91.63,10.64-136.13-2.82c-0.08-0.03-0.16-0.03-0.23-0.02c-0.11-0.06-0.22-0.1-0.34-0.15
			c-0.03,0.12-0.07,0.24-0.1,0.37c-0.04,0.25-0.09,0.51-0.15,0.76c0.12,0.08,0.24,0.13,0.39,0.15c0.03,0.02,0.05,0.04,0.09,0.05
			c43.81,15.67,89.7,16.61,137.05,3.91c1.4-0.37,2.41-0.79,3.07-1.19c0.14-0.05,0.27-0.1,0.41-0.15c0.17-0.06,0.33-0.11,0.5-0.16
			c0.01,0,0.01-0.01,0.02-0.01C200.2,324.97,200.17,324.44,200.13,323.91z"/>
		<path class="st11" d="M201.72,337.77c-0.19,0-0.38,0.04-0.55,0.1c-0.11,0.02-0.22,0.04-0.33,0.06c-0.14-0.02-0.28-0.03-0.44,0
			c-46.09,8.47-91.19,9.07-136.13-2.82c-2.05-0.54-3.72-0.94-4.92-1.18c-0.06-0.02-0.13-0.04-0.19-0.06
			c-0.73-0.27-1.46-0.54-2.18-0.84c-0.01,0.04-0.01,0.07-0.02,0.11c-0.01,0.19-0.03,0.38-0.06,0.57c0.11,0.05,0.21,0.09,0.32,0.13
			c0.5,0.35,2.61,1.15,6.71,2.42c45.17,14,90.77,13.11,137.05,3.91c0.03-0.01,0.05-0.02,0.07-0.02c0.03,0.01,0.05,0.02,0.09,0.01
			c0.27-0.05,0.52-0.16,0.78-0.26C201.83,339.2,201.76,338.49,201.72,337.77z"/>
		<path class="st12" d="M125.47,289.59c2.95,9.46-0.47,18.95-7.64,21.18c-7.17,2.24-15.38-3.62-18.33-13.08
			c-2.95-9.46,3.01-13.19,10.19-15.43C116.85,280.03,122.51,280.13,125.47,289.59z"/>
		<path class="st12" d="M135.92,289.47c-2.73,9.53,0.9,18.93,8.12,21c7.22,2.07,15.29-3.97,18.03-13.5
			c2.73-9.53-3.59-12.64-10.81-14.71C144.03,280.19,138.65,279.94,135.92,289.47z"/>
		<circle class="st13" cx="144.15" cy="303.28" r="6.76"/>
		<circle class="st13" cx="116.73" cy="303.73" r="6.76"/>
		<path class="st2" d="M109.68,332.17c-0.04-0.71,0.79-1.11,1.48-1.3c13.45-3.85,27.87-4.24,41.51-1.14"/>
	</g>
</g>
</svg>
